<?xml version="1.0" encoding="utf-8"?>
<!-- Generator: Adobe Illustrator 26.4.0, SVG Export Plug-In . SVG Version: 6.00 Build 0)  -->
<svg version="1.1" id="Livello_1" xmlns="http://www.w3.org/2000/svg" xmlns:xlink="http://www.w3.org/1999/xlink" x="0px" y="0px"
	 viewBox="0 0 906.9 107.7" style="enable-background:new 0 0 906.9 107.7;" xml:space="preserve">
<style type="text/css">
	.st0{clip-path:url(#SVGID_00000021121260924216275740000004729532102027815070_);fill:#BF2E2E;}
	.st1{fill:#BF2E2E;}
	.st2{clip-path:url(#SVGID_00000023983320219179017530000016323953328075969951_);fill:#BF2E2E;}
</style>
<g>
	<defs>
		<rect id="SVGID_1_" width="906.9" height="107.7"/>
	</defs>
	<clipPath id="SVGID_00000016042216575860915490000009557309438578248851_">
		<use xlink:href="#SVGID_1_"  style="overflow:visible;"/>
	</clipPath>
	<path style="clip-path:url(#SVGID_00000016042216575860915490000009557309438578248851_);fill:#BF2E2E;" d="M435.6,16.4v28.2
		c5.7-0.2,10.9-1.5,14.1-6.4c3.1-4.8,3.1-10.1,0.3-15.1C447,17.5,441.4,16.7,435.6,16.4 M435.6,91c6.9-0.3,13.2-1.6,16.9-7.9
		c3.4-5.8,3.8-12.2,0-17.9c-3.9-5.8-10.3-6.6-16.9-6.7V91z M414,1.6c7.7,0,15.4-0.3,23,0.1C443,2,449.1,2.7,455,4
		c10.4,2.4,17.1,10.1,18.4,20c1.7,12.7-3.9,20.4-13.6,25.5c-0.7,0.4-1.4,0.7-2.4,1.2c1.2,0.5,2.1,0.9,3,1.3
		c8.5,3.7,14.6,9.7,15.9,19.1c1.9,14-3.2,26.9-19.7,32.2c-5.5,1.8-11.2,2.6-17,2.6c-8.5,0-17,0-25.6,0V1.6z"/>
	<path style="clip-path:url(#SVGID_00000016042216575860915490000009557309438578248851_);fill:#BF2E2E;" d="M270.4,106h-21.8V25.2
		h21.7v7.9c3.1-4.1,6.6-6.6,10.8-8.1c8.7-3.2,20.3-0.6,25.6,5.9c3.5,4.4,5,9.6,5.1,15c0.3,15.1,0.3,30.3,0.5,45.5
		c0,4.8,0,9.6,0,14.5h-23.7c0-0.8,0-1.5,0-2.3c0-17.6,0.1-35.2,0-52.8c0-2.4-0.3-4.9-1-7.2c-1-3.2-3.6-4.6-6.9-4.9
		c-3.5-0.3-6.2,1-7.9,4.1c-1.9,3.5-2.4,7.3-2.4,11.2c0,16.5,0,32.9,0,49.4V106z"/>
	<path style="clip-path:url(#SVGID_00000016042216575860915490000009557309438578248851_);fill:#BF2E2E;" d="M686.9,106h-21.7V25.2
		h21.6v7.1c0.1,0.1,0.3,0.2,0.4,0.3c0.5-0.5,1-1,1.4-1.6c9.4-10.5,26.4-8.1,32.9-1.8c4.3,4.2,6.4,9.5,6.6,15.2
		c0.5,20.5,0.5,40.9,0.8,61.5h-23.8c0-0.7,0-1.5,0-2.2c0-17.6,0.1-35.2,0.1-52.8c0-2.3-0.4-4.7-1-7c-0.9-3.3-3.4-4.8-6.7-5.1
		c-3.6-0.4-6.3,0.8-8.1,4c-2.1,3.8-2.4,7.9-2.4,12.1c0,16.1,0,32.2,0,48.3C686.9,104,686.9,104.9,686.9,106"/>
	<path style="clip-path:url(#SVGID_00000016042216575860915490000009557309438578248851_);fill:#BF2E2E;" d="M358.2,68.3
		c-3.6,1-7.5,1.9-11.3,3.2c-4.9,1.7-7,5-6.9,10.2c0,4.9,3,8.7,7.3,9.3c5.8,0.8,10-1.5,10.8-6.9C358.7,78.9,358.2,73.5,358.2,68.3
		 M385.1,91.7v14.4c-9.1,1.5-17.7,1.5-24.2-5.6c-3.3,2-6.3,4.5-9.8,5.8c-11.3,3.9-29.4-1.3-33.4-16.7c-2.3-8.9,1.7-18.8,10-24.3
		c6.3-4.2,13.5-6.2,20.8-7.9c2.3-0.6,4.7-1.4,6.8-2.6c3.6-2.1,4.4-6.8,2.1-10.8c-1.9-3.4-6.7-5-10.1-3.3c-2.2,1.1-3.2,3.1-3.4,5.4
		c-0.1,2.3,0.2,4.6,0.3,6.8c0,0.7,0.1,1.4,0.2,2.3c-7.2-2-14.1-4-21.1-6c-1.7-0.5-1-1.9-0.9-2.9c1-8.3,5.2-14.4,12.4-18.5
		c4.2-2.4,8.8-3.5,13.6-3.8c6.3-0.3,12.5,0.2,18.4,2.4c7.9,2.9,12.1,8.8,13.3,17c0.3,2.5,0.4,5,0.4,7.5c0,11.1,0,22.3,0,33.4
		c0,0.7-0.1,1.4,0,2.2C381.2,90.2,380.6,91.1,385.1,91.7"/>
	<path style="clip-path:url(#SVGID_00000016042216575860915490000009557309438578248851_);fill:#BF2E2E;" d="M634.9,68.3
		c-3.3,0.8-6.5,1.6-9.6,2.5c-4.3,1.2-7.7,3.4-8.8,8.2c-1.2,5.5,1.8,11,6.7,12c5.9,1.2,10.8-1.9,11.6-7.9
		C635.4,78.1,634.9,73.2,634.9,68.3 M661.6,91.6v14.5c-9,1.4-17.6,1.5-24.6-6.1c-0.2,0.2-0.5,0.4-0.7,0.6c-6.4,6.6-14.2,8-22.8,6.1
		c-7.9-1.7-14.2-5.8-17.8-13.2c-4.8-9.9-1.1-21.8,8.6-28.3c6.3-4.2,13.4-6.1,20.6-7.9c2.4-0.6,4.9-1.4,7-2.6c3.6-2.1,4.3-6.8,2-10.8
		c-1.9-3.4-6.7-4.9-10.1-3.2c-2.3,1.1-3.2,3.2-3.4,5.6c-0.1,2.8,0,5.7,0,8.7c-3.9-1.1-8-2.3-12.2-3.4c-2.3-0.7-4.6-1.6-7-1.9
		c-2.4-0.4-2.5-1.8-2.3-3.6c1.3-8.9,6-15.5,14.3-19.1c10.6-4.6,21.5-4.1,32,0.3c7.1,2.9,10.6,8.9,11.5,16.2
		c0.5,3.8,0.4,7.7,0.5,11.6c0.1,9.8,0,19.7,0,29.5c0,0.9,0,1.9,0.1,2.8C657.6,90.8,657.9,91.1,661.6,91.6"/>
	<path style="clip-path:url(#SVGID_00000016042216575860915490000009557309438578248851_);fill:#BF2E2E;" d="M880.3,68.1
		c-4.1,1.2-8,2-11.7,3.4c-4.8,1.7-6.9,4.9-6.9,10c0,5.7,3.3,9.3,8.8,9.6c5.5,0.2,9.5-3.3,9.8-8.9C880.5,77.5,880.3,72.9,880.3,68.1
		 M906.9,91.7v14.1c-6.6,2-18.7,1.7-24.5-5.8c-0.3,0.2-0.6,0.4-0.8,0.6c-6.4,6.6-14.2,8-22.8,6.1c-7.9-1.7-14.2-5.8-17.9-13.2
		c-4.8-9.8-1.1-21.9,8.5-28.3c6.3-4.2,13.5-6.2,20.8-7.9c2.3-0.6,4.7-1.4,6.8-2.6c3.6-2.1,4.4-6.8,2.1-10.8c-1.9-3.4-6.7-5-10.1-3.3
		c-2.3,1.1-3.3,3.2-3.4,5.6c-0.1,2.8,0,5.7,0,8.7c-3.4-0.9-7-2-10.7-3c-2.8-0.8-5.6-1.8-8.5-2.3c-2.4-0.4-2.6-1.7-2.3-3.6
		c1.3-9,6.1-15.6,14.4-19.2c10.5-4.5,21.2-3.9,31.6,0.3c7.2,2.9,10.7,8.9,11.7,16.3c0.4,3.4,0.4,6.9,0.5,10.3
		c0.1,10.2,0,20.4,0,30.6c0,0.6-0.1,1.3,0,1.9C902.9,90.1,902.2,91,906.9,91.7"/>
	<path style="clip-path:url(#SVGID_00000016042216575860915490000009557309438578248851_);fill:#BF2E2E;" d="M44.9,73.5
		c5.2,0.9,10.1,1.7,15,2.5c2.1,0.4,4.3,0.7,6.3,1.2c0.5,0.1,1.2,1,1.2,1.4c-0.4,14.6-9,26.1-25.3,28.2c-5.8,0.8-11.6,0.8-17.2-1.2
		c-9.2-3.2-14.9-10-18.7-18.5C1.1,75.6-0.1,63.4,0,50.8C0.1,41,1.3,31.4,4.9,22.2c3.2-8,8-14.8,15.9-18.8C28-0.2,35.7-0.6,43.5,0.7
		c6.4,1,12.1,3.6,16.5,8.5c5.5,6,7.5,13.2,7.6,21.3c-7.5,1.2-14.9,2.5-22.6,3.7c0.2-2.1,0.7-4,0.5-5.9c-0.2-3-0.3-6.1-1.3-8.8
		c-2.2-5.9-9.5-6.7-13.3-1.6c-3,3.9-4.1,8.6-4.9,13.4c-2.3,13.6-1.9,27.2-0.8,40.8c0.4,4.5,1.8,8.9,2.9,13.4c0.2,1,0.8,1.8,1.3,2.7
		c1.8,3.1,4.3,5,8.1,4.5c3.8-0.5,6.3-2.7,7.1-6.3c0.6-3.3,0.5-6.7,0.7-10C45.2,75.6,45,74.8,44.9,73.5"/>
	<path style="clip-path:url(#SVGID_00000016042216575860915490000009557309438578248851_);fill:#BF2E2E;" d="M115.9,98.9
		c-3.4,4.3-7.3,7.7-12.6,8.3c-11.9,1.3-23.5-2.6-26.6-18c-0.8-4-1-8.3-1.1-12.4c-0.1-16.5,0-33,0-49.6c0-0.6,0.1-1.3,0.1-2h22v2.6
		c0,16.5-0.1,32.9,0.1,49.3c0,2.8,0.5,5.7,1.3,8.4c1.4,4.9,4.6,7.2,8.6,6.9c4.3-0.4,7.1-3.5,7.7-8.4c0.3-2.3,0.4-4.7,0.4-7.1
		c0-16.4,0-32.8,0-49.1V25c4.2,0,8.2,0,12.2,0c2.7,0,5.3,0.1,8,0c1.3,0,1.9,0.5,1.7,1.7c0,0.3,0,0.6,0,0.9c0,25.4,0,50.7,0,76.1v2.2
		h-21.8V98.9z"/>
	<path style="clip-path:url(#SVGID_00000016042216575860915490000009557309438578248851_);fill:#BF2E2E;" d="M501.4,65.3
		c0.2,0,0.4,0,0.6,0.1c0,1.6-0.1,3.2,0,4.7c0.4,5.5,0.3,11,2.5,16.2c1.7,3.9,4.7,6.1,9,6.2c4.4,0.1,7.8-1.7,9.7-5.8
		c0.7-1.5,1.3-3.1,1.6-4.6c1.8-9.4,1.7-18.8,0.7-28.3c-0.3-3.3-1.4-6.6-2.5-9.7c-1-2.7-3.1-4.6-6.1-5.3c-6.4-1.7-11.6,1.3-13.1,8.2
		C502.5,53,502.2,59.2,501.4,65.3 M480.3,64.9c0.4-8.9,1.9-17.4,6.1-25.3c6.6-12.4,18.2-17,31.4-15.6c12.6,1.3,20.8,8.5,25,20.1
		c5.5,15.3,5.4,30.7-1.1,45.7c-5.6,13-17.2,18.6-31.1,17.4c-7.9-0.7-14.7-3.5-20-9.6c-4.5-5.2-7-11.3-8.3-17.9
		C481.3,74.8,480.9,69.8,480.3,64.9"/>
	<path style="clip-path:url(#SVGID_00000016042216575860915490000009557309438578248851_);fill:#BF2E2E;" d="M834.8,52.9
		c-7.9,1.3-15.5,2.6-23.1,3.9c0.1-2.9,0.5-5.5,0.4-8.2c-0.1-1.9-0.6-3.8-1.2-5.6c-1.1-2.9-3.5-4.4-6.7-4.6c-3.3-0.2-5.8,1.1-7,4
		c-1.3,3.1-2.3,6.5-2.7,9.9c-1,9.9-1,19.8,0.8,29.6c0.5,2.6,1.4,5.1,2.6,7.4c1.2,2.6,3.5,3.9,6.5,3.7c3.1-0.2,5.2-1.8,6.4-4.6
		c1.7-4,1.3-8.2,0.8-12.3c0-0.3-0.1-0.7-0.2-1.4c3.1,0.5,6.2,0.9,9.2,1.4c4.2,0.7,8.5,1.3,12.7,2.1c0.5,0.1,1.4,0.9,1.4,1.3
		c-0.2,7.8-2.2,14.9-8,20.5c-4.3,4.2-9.7,6.3-15.6,7.1c-6.3,0.9-12.6,1-18.7-1.2c-8.5-3-14-9.1-17.5-17.1
		c-4.4-9.9-5.8-20.3-4.7-31.1c0.7-7.4,2.5-14.5,6.6-20.9c5.3-8.2,13.2-12.2,22.7-13c5.4-0.5,10.8-0.3,16,1.3
		c10.8,3.2,16.7,10.6,18.7,21.4C834.4,48.6,834.5,50.6,834.8,52.9"/>
	<path style="clip-path:url(#SVGID_00000016042216575860915490000009557309438578248851_);fill:#BF2E2E;" d="M185.6,74.6
		c7.3,1.2,14.9,2.4,22.5,3.6c0.7,11.5-4.8,24.6-20.3,28.2c-7.2,1.6-14.4,1.9-21.5-0.5c-8.6-2.9-14.3-9.1-17.9-17.2
		c-4.6-10.2-5.8-20.9-4.6-32c0.8-7.4,2.7-14.5,7-20.7c4.8-6.8,11.4-10.7,19.7-11.9c6.4-0.9,12.8-0.8,19,1.1
		c10.9,3.3,16.5,11.1,18.3,22c0.3,1.8,0.4,3.7,0.6,5.6c-7.9,1.3-15.5,2.6-23.4,3.9c0.2-1.7,0.5-3.2,0.6-4.6c0.4-4,0.2-7.9-2.5-11.2
		c-3.1-3.8-9.6-3.7-11.9,0.7c-1.6,2.9-2.6,6.3-3,9.5C167.1,61.6,167,72,169,82.4c0.4,2.1,1.1,4.1,2.1,6.1c1.7,3.4,4.1,4.7,7.4,4.3
		c3.3-0.4,5.9-2.4,6.4-6C185.4,82.9,185.3,78.9,185.6,74.6"/>
	<path style="clip-path:url(#SVGID_00000016042216575860915490000009557309438578248851_);fill:#BF2E2E;" d="M556.6,40.7h-8.8V25.2
		h8.8c0-4.6,0.1-8.9-0.1-13.1c-0.1-2.1,0.6-3,2.5-3.6c5.8-1.9,11.5-4.1,17.2-6.2c0.7-0.2,1.3-0.4,2.3-0.7v23.6c3.2,0,6.1,0.1,9,0
		c1.9-0.1,2.5,0.4,2.4,2.4c-0.2,4.3,0,8.6,0,13.2h-11.1c-0.1,0.8-0.1,1.4-0.1,2c0,13.3,0,26.6,0,39.9c0,0.7,0,1.4,0,2.2
		c0.4,4.8,2.4,6.6,7.2,6.7c1.3,0,2.6,0,3.9,0V106c-3.5,0-7,0.2-10.5-0.1c-3.9-0.3-7.9-0.8-11.7-1.8c-6.8-1.8-10.8-7.2-10.9-14.3
		c-0.2-12.6-0.1-25.3-0.2-37.9C556.6,48.3,556.6,44.7,556.6,40.7"/>
</g>
<rect x="216.6" y="25.1" class="st1" width="21.5" height="80.8"/>
<rect x="739.2" y="25.1" class="st1" width="21.3" height="80.8"/>
<g>
	<defs>
		<rect id="SVGID_00000070814791742227712140000012247441944277705654_" width="906.9" height="107.7"/>
	</defs>
	<clipPath id="SVGID_00000000916371387016551460000003884650149583878822_">
		<use xlink:href="#SVGID_00000070814791742227712140000012247441944277705654_"  style="overflow:visible;"/>
	</clipPath>
	<path style="clip-path:url(#SVGID_00000000916371387016551460000003884650149583878822_);fill:#BF2E2E;" d="M238.4,1.4v16.8h-22.3
		c0-5.3,0-10.5,0.1-15.6c0-0.4,0.7-1.1,1.1-1.1C224.3,1.4,231.2,1.4,238.4,1.4"/>
</g>
<rect x="738.8" y="1.6" class="st1" width="22.1" height="16.6"/>
</svg>
