<?xml version="1.0" encoding="utf-8"?>
<!-- Generator: Adobe Illustrator 26.4.0, SVG Export Plug-In . SVG Version: 6.00 Build 0)  -->
<svg version="1.1" id="Livello_1" xmlns="http://www.w3.org/2000/svg" xmlns:xlink="http://www.w3.org/1999/xlink" x="0px" y="0px"
	 viewBox="0 0 341.2 167.1" style="enable-background:new 0 0 341.2 167.1;" xml:space="preserve">
<style type="text/css">
	.st0{clip-path:url(#SVGID_00000183244762414347937610000010596329590090333085_);fill:#BF2E2E;}
</style>
<g>
	<defs>
		<rect id="SVGID_1_" width="341.2" height="167.1"/>
	</defs>
	<clipPath id="SVGID_00000125597466995205029930000006578062972313148812_">
		<use xlink:href="#SVGID_1_"  style="overflow:visible;"/>
	</clipPath>
	<path style="clip-path:url(#SVGID_00000125597466995205029930000006578062972313148812_);fill:#BF2E2E;" d="M176.1,90.6
		c-0.4,0-0.8-0.1-1.2-0.1c-5.3,0.1-10.7-0.1-16,0.3c-8.3,0.5-14.2,5.5-16.6,13.5c-1.8,6-1.8,12.2-0.8,18.3
		c1.7,10.8,7.1,17.2,16.4,18.9c9,1.7,15.6-1.3,17.1-10.5C177.3,117.6,176.4,104.2,176.1,90.6 M180.6,155.6
		c-8.8,10.5-20.6,12.1-33.1,11.4c-6.9-0.4-13.5-1.8-19.7-5c-7.9-4.2-13.4-10.5-16.7-18.8c-4.7-11.8-5.5-24-3.5-36.3
		c2.6-15.6,13-25,29.4-27.4c0.4-0.1,0.8-0.1,1.8-0.2c-1.7-0.7-3-1.1-4.2-1.6c-13.7-5.7-21.2-17.4-21-32.6c0.1-8,1.4-15.7,5.2-22.8
		c5-9.2,12.8-15,22.5-18.3c15.4-5.1,30.9-5.2,46.4-0.7c11.8,3.4,18.1,12,20,24c0.5,3.3,0.7,6.6,1,10c-11.8,2.5-23.3,5-35.4,7.6
		c0.5-1.3,0.8-2.3,1.2-3.2c2.3-6.3,0.5-12.8-4.4-15.1c-6.2-2.8-14.7-1.9-17.6,7.1c-2.5,7.8-2.6,15.7-0.6,23.6
		c1.9,7.3,7.9,11.9,15.5,12.2c2.9,0.1,5.8,0,8.9,0V58.3h34.8v11.2H227v21h-15.6c-0.1,0.7-0.2,1.2-0.2,1.6c0,13,0,26.1,0.1,39.1
		c0,1.5,0.2,3,0.4,4.5c0.7,4.7,2.5,6.5,7.3,7c2.6,0.3,5.3,0.3,8.1,0.4v22.1c-8.6,0.9-17.1,1.5-25.6,0.2c-4.1-0.6-8.1-1.6-12.1-2.8
		C185.7,161.5,182.9,158.9,180.6,155.6"/>
	<path style="clip-path:url(#SVGID_00000125597466995205029930000006578062972313148812_);fill:#BF2E2E;" d="M277.1,25.2v44.7
		c9-0.5,17.6-2.2,22.7-10.4c5-8,4.9-16.8,0-24.8C294.7,26.4,285.9,25.8,277.1,25.2 M277.1,90.9v51.3c17.4,0.3,30.5-8.2,30.6-27
		C307.8,99.5,296.4,90.3,277.1,90.9 M309.9,79.3c2.5,1,4.6,1.7,6.6,2.6c18.5,8.2,27.1,24.7,24,44.7c-3.1,20-17.4,31.9-36.7,36.1
		c-8.2,1.8-16.6,2.6-25,2.5c-10.7-0.1-21.5,0-32.2,0h-2.8V2.7c0.6-0.1,1.2-0.2,1.7-0.2c14.6,0.2,29.3,0.1,43.9,0.7
		c10.3,0.4,20.3,2.6,29.4,7.8c10.4,6.1,15.7,15.4,17.3,27.1c1.3,10.1-0.2,19.5-6.9,27.7c-4.5,5.4-10.1,9.4-16.5,12.2
		C311.9,78.4,311.2,78.7,309.9,79.3"/>
	<path style="clip-path:url(#SVGID_00000125597466995205029930000006578062972313148812_);fill:#BF2E2E;" d="M33.4,70
		c9.5-0.8,18.5-2.5,23.2-11.5c4.3-8.2,4.2-16.9-1.2-24.6c-5.3-7.5-13.6-8.3-22-8.6V70z M33.4,90.8v51.6c2.5-0.2,4.9-0.3,7.1-0.7
		c7-1,13.2-3.5,17.8-9.1c5.3-6.5,6.3-14.1,5.3-22.1c-0.8-6.1-3.6-11-8.7-14.5C48.4,91.8,41.1,90.8,33.4,90.8 M0,2.6
		c0.6,0,1.1-0.1,1.6-0.1C16.4,2.7,31.3,2.6,46,3.2c10,0.4,19.8,2.7,28.7,7.7c11,6.2,16.2,16,17.7,28.2c1.4,11-1,20.8-8.9,29
		c-4.8,5-10.5,8.7-17.6,11.2c1.5,0.6,2.5,1,3.5,1.3c12.1,4.4,21.6,11.9,25.7,24.3c6.2,19,0.4,44.6-24.5,54.6
		c-9.2,3.7-18.7,5.4-28.5,5.6c-13.6,0.4-27.1,0.1-40.7,0.1c-0.4,0-0.8,0-1.4-0.1V2.6z"/>
</g>
</svg>
