<?xml version="1.0" encoding="utf-8"?>
<!-- Generator: Adobe Illustrator 26.4.0, SVG Export Plug-In . SVG Version: 6.00 Build 0)  -->
<svg version="1.1" id="Livello_1" xmlns="http://www.w3.org/2000/svg" xmlns:xlink="http://www.w3.org/1999/xlink" x="0px" y="0px"
	 viewBox="0 0 489.7 210.3" style="enable-background:new 0 0 489.7 210.3;" xml:space="preserve">
<style type="text/css">
	.st0{clip-path:url(#SVGID_00000007404530317134266190000011729866334916825512_);fill:#BF2E2E;}
</style>
<g>
	<defs>
		<rect id="SVGID_1_" width="489.7" height="210.3"/>
	</defs>
	<clipPath id="SVGID_00000072257304776620926680000005525102163395344016_">
		<use xlink:href="#SVGID_1_"  style="overflow:visible;"/>
	</clipPath>
	<path style="clip-path:url(#SVGID_00000072257304776620926680000005525102163395344016_);fill:#BF2E2E;" d="M397.2,173.1
		c10.4-1.6,20.5-3.3,30.5-4.8c-0.2,2.8-0.7,5.4-0.5,8c0.5,6.4,4.9,10.5,11.5,10.9c2.3,0.1,4.8,0,7.1-0.5c4.4-1.1,7-4.2,8.5-8.4
		c1.3-3.6,1.6-7.4,1.6-11.2c0-7.6,0-15.3,0-22.9c0-0.3,0-0.5-0.1-1c-1.3,1.8-2.4,3.6-3.8,5.1c-6,6.9-13.6,10.4-22.8,10
		c-5.9-0.2-11.5-1.2-16.9-3.6c-8.8-4-13.9-11.1-16.8-20.1c-2.1-6.6-2.9-13.5-3-20.4c-0.1-24.3,0-48.6,0-72.9v-1.6h34.4
		c0,0.6,0,1.2,0,1.8c0,24,0,48,0.1,72.1c0,5.1,0.8,10.1,3.2,14.7c3,5.7,8.3,8.2,14.6,7c5.1-1,8-4.3,9.6-9c1.2-3.9,1.5-7.9,1.5-12
		c0-24.2,0-48.3,0-72.5c0-0.6,0-1.2,0-2h33.9v1.5c0,41.7,0,83.3,0,125c0,7-0.8,13.8-3.3,20.4c-3.1,8.2-8.6,14.2-16.5,18.1
		c-6.7,3.4-14,4.9-21.4,5.3c-7.7,0.5-15.4,0.5-23-1.1c-7.3-1.5-14-4.2-19.3-9.7c-5.5-5.7-8-12.6-8.8-20.4
		C397.4,177,397.3,175.1,397.2,173.1"/>
	<path style="clip-path:url(#SVGID_00000072257304776620926680000005525102163395344016_);fill:#BF2E2E;" d="M99.7,51.3
		c-12.1,2.2-24.2,4.5-36.5,6.7c0.3-2.5,0.8-4.9,0.9-7.4c0.4-5.3,0.2-10.5-1.8-15.5c-2.3-5.8-6.6-8.9-12.6-8.9
		c-5.8,0-10.8,3.4-12.7,9c-2.8,8.4-1.5,16.3,4.5,23c3.5,3.9,7.9,6.7,12.3,9.4c7.7,4.7,15.2,9.5,22,15.4c8.5,7.3,15.8,15.6,20.2,26.1
		c4.8,11.6,5.5,23.4,0,35c-3.2,6.9-8.4,12.3-14.8,16.4c-12.4,7.9-26,10.3-40.4,8.3c-15.6-2.2-26.6-11.1-33.7-25
		c-4.4-8.5-6.5-17.6-7.3-27c0-0.3,0-0.6,0-0.9c0-0.1,0.1-0.3,0.1-0.5c12-3.1,24-6.2,36.2-9.3c-0.4,1.3-0.8,2.5-1.1,3.6
		c-1.9,7.4-1.9,14.8,1.2,21.9c2.8,6.5,8.6,9.9,15.9,9.7c9-0.1,14.9-7.2,13.5-17.4c-0.8-5.5-3.4-10-7.3-13.8c-4.1-4-8.8-7.1-13.6-10
		c-8.7-5.2-17-10.9-24.2-18.1C13.1,74.8,7.1,66.4,4,56.2c-4.4-14.4-2.1-27.7,7.6-39.4c8.2-9.8,19-15,31.7-16.4
		c9.4-1.1,18.6-0.2,27.6,2.7c11.7,3.8,20.1,11.3,24.8,22.7c3.3,8,4.2,16.4,4.2,24.9C99.8,50.9,99.8,51,99.7,51.3"/>
	<path style="clip-path:url(#SVGID_00000072257304776620926680000005525102163395344016_);fill:#BF2E2E;" d="M215.5,103.6
		c0.3,6.4,0.5,12.7,1,19.1c0.4,5.3,1.5,10.5,4.1,15.3c1.7,3,3.9,5.5,7.2,6.7c7.9,2.8,18.2,1.5,22.6-9.3c2.3-5.6,3.1-11.5,3.4-17.5
		c0.6-9.5,0.6-19.1,0-28.6c-0.4-6-1.1-12-3.2-17.7c-2.7-7-7.2-11.4-15.3-11.6c-6.7-0.1-12,2.3-14.9,8.5c-1.4,3-2.5,6.3-3.1,9.5
		C215.7,86.4,215.8,95,215.5,103.6 M182.6,105.1c0.2-16.3,2.3-29.6,8.7-42c5.5-10.7,13.6-18.7,25.1-22.8c8.1-2.9,16.4-3.4,24.8-2.5
		c10.3,1.1,19.4,5,26.8,12.4c6.2,6.1,10.2,13.5,12.9,21.6c3.7,11.1,5.4,22.6,4.9,34.4c-0.5,12.5-2.7,24.7-8.2,36.1
		c-4.1,8.5-10,15.6-18.3,20.4c-6,3.5-12.5,5.2-19.3,5.8c-10.2,0.8-20-0.4-29.3-5.1c-7.2-3.7-12.8-9.1-17.1-16
		c-5.5-8.7-8.4-18.4-9.8-28.5C183.3,113.5,182.9,108,182.6,105.1"/>
	<path style="clip-path:url(#SVGID_00000072257304776620926680000005525102163395344016_);fill:#BF2E2E;" d="M157.6,39.7h17.7v23.9
		h-17.6c0,0.6-0.1,1-0.1,1.4c0,21.3,0,42.6,0.1,63.9c0,2.5,0.3,5,0.6,7.4c0.7,4.7,3.5,7.2,8.6,7.6c2.9,0.2,5.7,0.3,8.7,0.5v22.3
		c-3.4,0-6.8,0.1-10.1,0c-7.6-0.2-15.1-0.4-22.5-2.3c-4.8-1.2-9.2-3.1-12.7-6.8c-4.3-4.4-6-9.9-6.5-15.9c-0.2-2.9-0.3-5.8-0.3-8.8
		c0-22.4,0-44.8,0-67.2v-2h-13.9V39.8h13.9v-5.2c0-6.2,0-12.4,0-18.6c0-0.8,0-1.3,1-1.7c10.8-3.9,21.7-7.9,32.5-11.8
		c0.2-0.1,0.4-0.1,0.7-0.1V39.7z"/>
	<path style="clip-path:url(#SVGID_00000072257304776620926680000005525102163395344016_);fill:#BF2E2E;" d="M334.1,166.8h-33.8
		V39.7H334v15.1c0.1,0,0.1,0,0.2,0.1c0.9-1.7,1.8-3.5,2.8-5.1c7-12,24-16,35.5-8.4c4.5,3,7.2,7.4,8.8,12.5c2.4,7.6,2.3,15.4,1,23.1
		c-0.5,3.2-1.5,6.3-2.1,9.5c-0.2,0.9-0.7,1.2-1.6,1.3c-9.8,1-19.6,2.1-29.3,3.1c-0.6,0.1-1.2,0.1-2,0.1c0.9-2.8,1.9-5.3,2.7-8
		c1.4-4.4,2.4-8.9,2.2-13.6c-0.3-7-5.3-9-11.1-7.1c-3.6,1.2-5.5,4-6.3,7.5c-0.5,2.2-0.8,4.5-0.8,6.8c-0.1,29.3,0,58.7,0,88V166.8z"
		/>
</g>
</svg>
