<?xml version="1.0" encoding="utf-8"?>
<!-- Generator: Adobe Illustrator 26.4.0, SVG Export Plug-In . SVG Version: 6.00 Build 0)  -->
<svg version="1.1" id="Livello_1" xmlns="http://www.w3.org/2000/svg" xmlns:xlink="http://www.w3.org/1999/xlink" x="0px" y="0px"
	 viewBox="0 0 328.9 67.8" style="enable-background:new 0 0 328.9 67.8;" xml:space="preserve">
<style type="text/css">
	.st0{clip-path:url(#SVGID_00000021837273031718783110000001483230787787845776_);fill:#BF2E2E;}
	.st1{fill:#BF2E2E;}
</style>
<g>
	<defs>
		<rect id="SVGID_1_" width="328.9" height="67.8"/>
	</defs>
	<clipPath id="SVGID_00000141457061442309498330000001056313301090966660_">
		<use xlink:href="#SVGID_1_"  style="overflow:visible;"/>
	</clipPath>
	<path style="clip-path:url(#SVGID_00000141457061442309498330000001056313301090966660_);fill:#BF2E2E;" d="M66.1,66.9H52.2V15.2
		h13.9v4.5c2.9-3.8,6.7-5.4,11.2-5.4c4.8,0,7.8,2.9,10.2,6.4c1.7-1.4,3.3-2.8,5.1-3.9c4-2.5,8.5-2.9,13-2.1
		c6.6,1.2,10.2,4.9,11.5,11.8c0.4,2.3,0.6,4.7,0.6,7c0.1,10.9,0,21.7,0,32.6v0.8h-13.7c0-0.4,0-0.8,0-1.2c0-11.5,0-23-0.1-34.5
		c0-1.4-0.3-2.8-0.7-4.1c-0.7-2.3-2.9-3.5-5.7-3.5c-2.3,0-3.9,1.2-4.8,3.5c-0.9,2.2-1,4.5-1,6.9c0,10.5,0,21.1,0,31.6v1.3H78.4v-1.2
		c0-11.5,0-23-0.1-34.4c0-1.4-0.3-2.8-0.7-4.1c-0.9-2.5-3-3.7-5.9-3.6c-2.2,0.1-4.1,1.4-4.7,3.8c-0.5,2.1-0.9,4.2-0.9,6.4
		c-0.1,10.6,0,21.2,0,31.8V66.9z"/>
	<path style="clip-path:url(#SVGID_00000141457061442309498330000001056313301090966660_);fill:#BF2E2E;" d="M23.7,14.5
		c-0.1,0-0.1,0-0.2,0c-1.4,9.8-2.8,19.6-4.2,29.4h8.7C26.6,34,25.2,24.3,23.7,14.5 M31.9,66.9c-0.6-3.8-1.2-7.6-1.8-11.4H17.3
		c-0.6,3.8-1.2,7.6-1.9,11.4H0c0.5-2.1,0.9-4.2,1.4-6.3C5.2,43.6,9,26.5,12.9,9.4c0.7-2.9,1.3-5.8,1.9-8.7C14.9,0.2,15,0,15.6,0
		c5.6,0,11.2,0,16.8,0c0.1,0,0.2,0,0.4,0.1c4.8,22.2,9.7,44.5,14.6,66.8H31.9z"/>
	<path style="clip-path:url(#SVGID_00000141457061442309498330000001056313301090966660_);fill:#BF2E2E;" d="M138.6,41.5L138.6,41.5
		c-0.1,3.5,0,7-0.1,10.5c-0.1,3.6,2,5.7,5,6.3c3.4,0.7,5.9,0,7.3-3.3c0.7-1.6,1.1-3.2,1.4-4.9c0.8-5.8,0.7-11.7,0.4-17.6
		c-0.1-1.1-0.3-2.2-0.5-3.3c-1-4.3-4.3-6.3-8.7-5.2c-2.6,0.6-4.6,2.6-4.6,5.3C138.5,33.3,138.6,37.4,138.6,41.5 M138.5,62.3
		c-0.3,1.5-0.5,2.7-0.7,4c-0.1,0.3-0.4,0.6-0.6,0.6c-4.1,0-8.3,0-12.5,0V0.1h13.8V19c0.4-0.3,0.6-0.5,0.8-0.6
		c5.8-5.7,17-5.6,22.5,1.5c2.7,3.5,4,7.5,4.7,11.7c0.9,5.4,1.1,10.9,0.4,16.3c-0.7,5.4-2.2,10.6-5.9,14.8c-4.8,5.4-14,7.4-20.3,1.8
		C139.9,63.9,139.3,63.1,138.5,62.3"/>
	<path style="clip-path:url(#SVGID_00000141457061442309498330000001056313301090966660_);fill:#BF2E2E;" d="M277.9,67H271
		c-2.4,0-4.8,0-7.2,0c-0.7,0-1-0.1-1-1c0-11.2,0-22.5,0-33.7c0-1.9,0.1-3.7-0.7-5.5c-0.8-1.9-2.4-2.8-4.4-3c-2.2-0.2-4,0.4-5.2,2.3
		c-1.3,2.1-1.7,4.4-1.7,6.8c0,11,0,22,0,33.1c0,0.9-0.2,1.1-1.1,1.1c-4,0-8,0-12,0c-0.8,0-1-0.2-1-1c0-16.6,0-33.2,0-49.8
		c0-0.8,0.2-1.1,1-1.1c4,0,8,0,12,0c0.8,0,1.1,0.2,1.1,1c-0.1,1.3,0,2.6,0,4c0.3-0.2,0.4-0.3,0.4-0.3c3.6-4.4,8.3-6.1,14-5.5
		c3,0.3,5.8,1.2,8.1,3.3c2.2,2.1,3.4,4.7,3.8,7.6c0.4,3,0.7,6,0.7,9c0.1,10.6,0,21.3,0,31.9V67z"/>
	<path style="clip-path:url(#SVGID_00000141457061442309498330000001056313301090966660_);fill:#BF2E2E;" d="M213.2,35.6h4.9
		c0.5,0,1,0,0.9-0.7c-0.2-2.5-0.3-5-0.6-7.4c-0.2-1.2-0.8-2.4-2-3.1c-2.7-1.5-6.2-0.5-7.5,2.3c-1.3,2.6-1.3,5.4-1.3,8.2
		c0,0.6,0.4,0.6,0.9,0.6C210,35.6,211.6,35.6,213.2,35.6 M207.6,44.5c-0.2,3.7-0.1,7.2,1.3,10.6c1.6,3.7,6.3,4.8,9,2.1
		c1-1,1.5-2.3,1.6-3.7c0.1-1.2,0-2.4,0-3.8c4.3,0.5,8.8,1,13.4,1.5c-0.3,3.6-1.3,6.8-3.4,9.6c-3.3,4.4-7.8,6.4-13.2,6.9
		c-3.7,0.3-7.4,0.2-11-1.1c-3.9-1.5-6.8-4.1-8.8-7.6c-2.4-4.3-3.2-9-3.5-13.8c-0.4-5.8-0.1-11.6,1.8-17.1c1.1-3.4,2.9-6.4,5.6-8.9
		c2.8-2.6,6.2-4,10-4.5c3.7-0.5,7.4-0.2,10.9,0.9c5.6,1.7,8.8,5.5,10.2,11c1,4,1.1,8,1.1,12.1c0,1.6-0.1,3.2,0,4.8
		c0,0.8-0.2,1.1-1,1.1c-2.5,0-5,0-7.4,0c-5.1,0-10.3,0-15.4,0H207.6z"/>
	<path style="clip-path:url(#SVGID_00000141457061442309498330000001056313301090966660_);fill:#BF2E2E;" d="M309.9,57.8v9.1
		c-1.4,0-2.8,0-4.2,0c-3.5-0.1-6.9-0.1-10.3-1.2c-3.8-1.2-6-3.8-6.6-7.6c-0.2-1.4-0.3-2.8-0.3-4.1c0-9.2,0-18.4,0-27.5V25h-5.7v-9.8
		h5.7v-2.8c0-2.2,0-4.4,0-6.6c0-0.5,0-0.8,0.6-1c4.3-1.5,8.6-3.1,12.9-4.6c0.1-0.1,0.3-0.1,0.5-0.1v15.1h7.2V25h-7.2v1.1
		c0,7.7,0,15.4,0,23.1c0,1.8,0.1,3.7,0.3,5.5c0.2,1.8,1.3,2.7,3.1,2.9c0.6,0.1,1.3,0.2,1.9,0.2C308.5,57.9,309.2,57.8,309.9,57.8"/>
</g>
<rect x="173.2" y="15.2" class="st1" width="13.8" height="51.7"/>
<rect x="315" y="15.2" class="st1" width="13.7" height="51.7"/>
<rect x="173" y="0.1" class="st1" width="14.2" height="10.4"/>
<rect x="314.9" y="0.1" class="st1" width="14.1" height="10.4"/>
</svg>
