<?xml version="1.0" encoding="utf-8"?>
<!-- Generator: Adobe Illustrator 26.4.0, SVG Export Plug-In . SVG Version: 6.00 Build 0)  -->
<svg version="1.1" id="Livello_1" xmlns="http://www.w3.org/2000/svg" xmlns:xlink="http://www.w3.org/1999/xlink" x="0px" y="0px"
	 viewBox="0 0 221.8 133.1" style="enable-background:new 0 0 221.8 133.1;" xml:space="preserve">
<style type="text/css">
	.st0{fill:#BF2E2E;}
</style>
<path class="st0" d="M188.6,64.2c0-0.1,0.1-0.2,0.1-0.2c-0.4-0.2-0.7-0.3-1.1-0.5c0,0.1-0.1,0.1-0.1,0.2
	C187.9,63.8,188.2,64,188.6,64.2 M147.2,41.7c-0.1,0.1-0.1,0.2-0.2,0.2c0.5,0.3,0.9,0.6,1.4,0.9c0-0.1,0.1-0.1,0.1-0.2
	C148.1,42.4,147.7,42,147.2,41.7 M156.3,41.6c-0.3-0.6-0.9-0.8-1.4-0.6C155.3,41.4,155.6,41.7,156.3,41.6 M46.1,62.7
	c-0.6-0.2-1,0-1.3,0.3c-0.1,0.1-0.1,0.3-0.1,0.4c0.1,0,0.3,0.1,0.4,0C45.4,63.2,45.7,63,46.1,62.7 M100.2,84.1
	c0.5-0.7,0.3-1.3-0.4-1.4C99.4,83.3,99.5,83.6,100.2,84.1 M71.9,70.1c-0.7-0.1-1,0.3-1.3,0.7c-0.1,0.1-0.1,0.4,0,0.5
	s0.4,0.1,0.5,0.1C71.7,71.3,71.9,70.8,71.9,70.1 M108.3,65.4c0-0.1-0.1-0.4-0.2-0.7c0-0.1-0.2-0.2-0.3-0.3c-0.1,0-0.3,0.1-0.3,0.3
	c-0.1,0.3-0.3,0.6-0.2,1c0,0.2,0.3,0.5,0.4,0.7c0.2-0.2,0.4-0.3,0.6-0.5C108.3,65.7,108.3,65.6,108.3,65.4 M100.9,64.8
	c0,0,0.1,0.1,0.2,0.1c0,0.6,0.2,0.9,0.7,0.7c0.4-0.2,0.7-0.6,0.8-0.9s-0.1-0.7-0.2-1c0-0.1-0.5-0.1-0.6,0
	C101.4,63.9,101.2,64.4,100.9,64.8 M120.5,74.7c0.1,0,0.2,0,0.3,0c0.5-0.6,0.4-1.3,0.5-2c0-0.3-0.1-0.7-0.2-1c0-0.1-0.3-0.2-0.4-0.2
	c-0.1,0-0.3,0.2-0.3,0.3c-0.1,0.4-0.2,0.9-0.1,1.3C120.3,73.7,120.4,74.2,120.5,74.7 M70.7,64.4c0.9-0.2,2.2-2.1,2-2.9
	C71.6,61.7,70.5,63.4,70.7,64.4 M51.2,104.2c0.1,0.8,0.6,1.4,1.1,2c0.3,0.3,0.7,0.6,1.1,0.8c0.2,0.1,0.5,0,0.8,0
	c-0.1-0.2-0.1-0.5-0.3-0.7c-0.6-0.5-1.2-1-1.8-1.5C51.8,104.6,51.5,104.4,51.2,104.2 M141.4,68c0.1,0,0.1,0,0.2,0
	c0.1-0.2,0.2-0.4,0.2-0.6c0.1-0.6,0.2-1.3,0.1-1.9c0-0.4-0.3-0.8-0.6-1.1c-0.1-0.1-0.6-0.2-0.7-0.1c-0.2,0.1-0.4,0.5-0.4,0.7
	c0.1,0.7,0.3,1.4,0.5,2C140.9,67.3,141.2,67.6,141.4,68 M131.5,59.2c-0.7,0-1.3,0.5-1.3,1.1s0.9,1.4,1.6,1.4c0.6,0,1-0.5,1-1.3
	C132.8,59.7,132.2,59.2,131.5,59.2 M71.9,94.9c0-0.8-0.6-1.5-1.3-1.8c-0.6-0.2-1.3,0.1-1.3,0.7c0,0.7,0.4,1.5,1.2,1.8
	C71.2,95.9,71.9,95.6,71.9,94.9 M54.8,112.7c-0.1-1.1-1.4-2.2-2.5-2.1c-0.2,0-0.4,0.3-0.4,0.4c0.1,0.8,0.4,1.6,1.1,2.1
	c0.3,0.3,0.8,0.5,1.2,0.2C54.5,113.2,54.6,112.9,54.8,112.7 M104.4,100.4C104.5,100.4,104.5,100.4,104.4,100.4
	c0.1,0.4,0.1,0.7,0.2,1c0,0.2,0.2,0.4,0.3,0.6c0.2-0.1,0.5-0.3,0.7-0.4c0.1-0.1,0.2-0.3,0.2-0.4c0.4-1,0.4-2,0.1-3
	c-0.1-0.2-0.3-0.5-0.5-0.7c-0.2,0.2-0.5,0.4-0.6,0.7C104.7,98.8,104.6,99.6,104.4,100.4 M65.4,112.9c-0.2-0.9-0.1-1.8-0.9-2.5
	c-0.6-0.5-1-0.4-1.2,0.3c-0.4,1.1,0.3,2.8,1.2,3.4c0.4,0.3,0.8,0.1,0.9-0.4C65.3,113.4,65.3,113.1,65.4,112.9 M158.4,117.2
	c0,0,0.1,0,0.1,0.1c0.1,0.5,0.1,0.9,0.2,1.4c0.1,0.3,0.3,0.5,0.5,0.8c0.3-0.2,0.7-0.3,0.8-0.5c0.7-1.2,0.5-2.5,0-3.8
	c-0.2-0.4-0.7-0.4-0.9,0C158.8,115.8,158.6,116.5,158.4,117.2 M84.6,95c0-0.9-0.6-1.8-1.4-2.1c-0.8-0.3-1.5,0.2-1.4,1
	s0.5,1.3,1.1,1.9c0.3,0.3,0.8,0.4,1.3,0.3C84.5,95.8,84.7,95.4,84.6,95 M197.3,56.9c0,0.1-0.1,0.1-0.1,0.2c0.1,0.2,0.2,0.4,0.3,0.5
	c1.5,1,3.2,1.4,5,1.4c0.4,0,0.6-0.3,0.4-0.7c-0.1-0.2-0.3-0.4-0.6-0.5c-0.6-0.2-1.1-0.4-1.7-0.5C199.5,57.1,198.4,57.1,197.3,56.9
	 M86.6,72.8c-0.1,0-0.1,0-0.2,0c-0.2,0.3-0.3,0.5-0.4,0.8c-0.2,0.4-0.4,0.9-0.4,1.4c-0.2,1-0.3,2.1-0.4,3.2c0,0.2,0.2,0.4,0.3,0.7
	c0.2-0.1,0.5-0.2,0.6-0.4c0.2-0.3,0.5-0.6,0.5-0.9c0.1-1.4,0.1-2.7,0.2-4.1C86.8,73.1,86.7,73,86.6,72.8 M57.1,56.2
	c0.4-0.1,0.7-0.1,1-0.2c0.5-0.3,1-0.6,1.5-1c0.9-0.8,1.7-1.7,2.8-2.3c0.4-0.3,0.8-0.7,1.1-1.1c0.2-0.4-0.1-0.8-0.6-0.7
	c-0.4,0.2-0.9,0.4-1.2,0.8c-0.8,1-1.7,1.9-2.8,2.7C58,54.7,57.4,55.2,57.1,56.2 M47.6,53.5c0.2,0,0.3,0.1,0.4,0.1
	c1.1-0.4,2.2-0.8,3.3-1.2c0.9-0.4,1.8-1,2.2-1.9c0.1-0.2,0-0.5,0-0.7c-0.2,0-0.5,0-0.6,0.1c-1,0.5-1.9,1.1-2.9,1.7
	C49.2,52,48.3,52.6,47.6,53.5 M109.2,104c0,0.1,0,0.2,0,0.2c0.2,0.3,0.3,0.6,0.5,0.9c0.2-0.3,0.4-0.5,0.6-0.8c0.3-0.7,0.4-1.4,0.8-2
	c0.7-1.1-0.1-2.1-0.9-2.7c-0.3-0.2-0.7-0.3-0.9,0c-0.2,0.2-0.3,0.6-0.2,0.9c0.2,0.8,0.6,1.5,0.5,2.3
	C109.4,103.2,109.3,103.6,109.2,104 M148.2,108.7c-0.3,0.2-0.6,0.3-0.7,0.4c-0.9,1-1,2.1-0.3,3.2c0.6,0.9,1.4,0.8,2-0.1
	c0.5-0.9,0.4-1.8-0.1-2.7C149,109.2,148.5,109,148.2,108.7 M136.1,121.6c-0.1-0.3-0.3-0.9-0.5-1.4c-0.2-0.4-0.5-0.6-1-0.6
	s-0.7,0.2-0.9,0.6c-0.3,0.6-0.3,1.1-0.1,1.7c0.2,0.7,0.4,1.3,0.7,2c0.2,0.5,0.7,0.5,1,0.1C136,123.4,136.1,122.7,136.1,121.6
	 M82.7,68.8c-0.1,0-0.2-0.1-0.2-0.1c-0.2,0.3-0.6,0.6-0.7,0.9c-0.4,0.9-0.7,1.8-1.1,2.6c-0.4,1-0.9,2.1-1.2,3.1
	c-0.1,0.2,0.1,0.7,0.3,0.9c0.2,0.1,0.7,0,0.9-0.2c0.3-0.4,0.6-0.9,0.8-1.3c0.3-1.1,0.5-2.2,0.7-3.4C82.3,70.5,82.5,69.7,82.7,68.8
	 M78.1,63.9c-0.1-0.1-0.2-0.4-0.3-0.4s-0.3,0-0.5,0.1s-0.3,0.3-0.4,0.5c-0.7,1.1-1.5,2.3-2.2,3.4c-0.5,0.8-0.8,1.7-1.2,2.5
	c-0.1,0.1,0,0.5,0.1,0.5c0.1,0.1,0.5,0,0.6-0.1c0.4-0.4,0.9-0.7,1.2-1.2c0.8-1.5,1.6-3,2.4-4.5C77.9,64.5,78,64.2,78.1,63.9
	 M71.7,111.4c-0.1-0.3-0.4-0.6-0.6-1c-0.5-0.8-1-1.5-1.5-2.2c-0.2-0.2-0.6-0.4-0.9-0.5c-0.2,0-0.5,0.4-0.5,0.6
	c-0.5,1.3,1,3.8,2.4,4.1C71.1,112.6,71.7,112.1,71.7,111.4 M144.9,68.3L144.9,68.3c-0.1,0.2-0.1,0.4-0.1,0.5
	c0.2,1.4,0.8,2.6,1.6,3.8c0.4,0.6,0.9,1.1,1.5,1.6c0.2,0.1,0.6,0.2,0.8,0s0.4-0.5,0.3-0.8c-0.1-0.4-0.3-0.8-0.5-1.1
	c-0.4-0.6-0.8-1.2-1.3-1.8C146.4,69.8,145.6,69.1,144.9,68.3 M126.1,114.8c-0.1-0.4-0.2-0.9-0.3-1.3c-0.2-0.5-0.6-0.8-1.1-0.9
	c-0.5-0.1-0.8,0.3-1,0.7c-0.5,1.1-0.9,2.2-1.2,3.3c-0.2,0.7,0.2,1.1,0.8,1C124.9,117.3,126.1,116.6,126.1,114.8 M177.7,65.4
	c0-0.1,0-0.2-0.1-0.3c-0.6-0.5-1.1-1-1.7-1.4c-1.4-0.8-2.8-1.6-4.3-2.3c-0.1-0.1-0.4-0.1-0.5,0c-0.1,0.2-0.1,0.4-0.1,0.6
	c0.2,0.3,0.4,0.7,0.7,1c1,0.8,1.9,1.6,3,2.3c0.6,0.4,1.3,0.7,2,1C177.2,66.3,177.7,65.9,177.7,65.4 M65.4,59.2L65.4,59.2
	c0.2,0.1,0.3,0,0.4,0c1.3-0.9,2.5-1.9,3.8-2.8c1-0.7,1.7-1.7,2.3-2.8c0.2-0.4,0.3-0.8-0.1-1.1c-0.4-0.3-0.8-0.2-1.1,0
	c-0.5,0.4-1.1,0.8-1.5,1.3c-1.2,1.5-2.3,3-3.4,4.6C65.7,58.6,65.6,58.9,65.4,59.2 M67.3,124.4c1,0,1.3-0.4,1-1.1
	c-0.2-0.5-0.6-1-1-1.5c-0.9-1.1-2-2-3.5-2.3c-0.5-0.1-1,0.2-1.2,0.6c-0.1,0.2,0.1,0.6,0.3,0.9c0.6,0.7,1.2,1.4,1.8,2.1
	C65.5,123.8,66.4,124.3,67.3,124.4 M59.4,107.6c-0.1-0.3-0.1-0.5-0.2-0.7c-0.4-1.2-1.4-1.8-2.5-2.2c-0.3-0.1-0.7,0-0.9,0.1
	c-0.5,0.3-0.9,1.8-0.6,2.2c0.5,0.8,1,1.5,1.7,2.2s1.5,0.6,1.9-0.1C59.1,108.7,59.3,108.1,59.4,107.6 M115.9,97.8
	c-0.1-1.1-0.2-2.2-1.1-3.1c-0.3-0.3-0.7-0.5-1-0.3c-0.2,0.1-0.4,0.6-0.4,0.9c-0.1,0.7,0,1.3-0.1,2c-0.1,0.8-0.2,1.6-0.3,2.4
	c-0.1,0.7,0.4,1.2,1.1,1.4c0.6,0.1,1.2-0.3,1.4-1C115.6,99.3,115.7,98.5,115.9,97.8 M157.4,105.9c0,0.3,0,0.6,0,0.9
	c0.2,1.3,0.7,1.8,1.7,1.3c0.4-0.2,0.9-0.8,0.9-1.2c0.2-1.6,0.2-3.3,0.3-4.9c0-0.6-0.6-0.9-1.2-0.5c-0.3,0.2-0.5,0.5-0.7,0.7
	C157.6,103.3,157.4,104.6,157.4,105.9 M93,108c0.9-0.6,1.6-1.1,2.3-1.6s1-1,0.6-1.8c-0.6-1.1-1.3-2.2-2-3.3c-0.4-0.6-1.3-0.5-1.5,0
	c-0.1,0.3-0.2,0.6-0.1,0.9c0,0.8,0.2,1.6,0.2,2.4c0.1,0.7,0,1.5,0.1,2.2C92.7,107.3,92.9,107.7,93,108 M50.5,116
	c0.2,2,1.3,3.6,3.1,4.7c0.7,0.4,1.3,0.3,1.8-0.2c0.7-0.7,0.6-1.5-0.3-2.4c-0.9-0.9-1.6-1.9-2.5-2.8c-0.3-0.3-0.8-0.6-1.2-0.6
	c-0.3,0-0.5,0.5-0.8,0.9C50.5,115.7,50.5,115.8,50.5,116 M89.4,108.9C89.4,108.8,89.5,108.8,89.4,108.9c-0.1-0.6-0.2-1.2-0.5-1.8
	c-0.5-1.1-1-2.1-1.4-3.2c-0.1-0.3-0.2-0.6-0.4-0.9c-0.3-0.5-0.8-0.6-1.1-0.1s-0.6,1.1-0.5,1.6c0.1,1.2,0.4,2.3,0.8,3.5
	c0.2,0.8,0.5,1.5,0.9,2.3c0.3,0.5,0.8,0.6,1.3,0.4c0.3-0.1,0.5-0.4,0.6-0.6C89.4,109.7,89.4,109.3,89.4,108.9 M92.7,79.4
	c0-1.4-0.7-2.5-1.1-3.6c-0.2-0.5-0.4-1-0.6-1.4c-0.1-0.2-0.3-0.3-0.5-0.4c-0.1,0-0.3,0.2-0.4,0.4c-0.2,0.7-0.5,1.4-0.7,2.2
	c-0.3,1.4-0.4,2.7,0.2,4.1c0.4,0.9,1.3,1,2,0.7C92.4,80.8,92.8,80.1,92.7,79.4 M151.4,63.1c-0.1,0-0.1,0.1-0.2,0.1
	c0.1,0.3,0.1,0.7,0.2,1c0.4,1.2,0.8,2.4,1.1,3.7c0.4,1.7,1.2,3.1,2.6,4.1c0.6,0.5,1.1,0.3,1.3-0.4c0.3-1.2,0.1-2.2-0.6-3.2
	c-1.1-1.5-2.3-2.9-3.5-4.4C152.1,63.8,151.8,63.5,151.4,63.1 M68.9,97.2c-0.1-0.2-0.2-0.7-0.5-1.1C67.7,95,66.9,94,66.1,93
	c-0.5-0.7-1-1.4-1.6-2c-0.5-0.6-1.3-0.3-1.5,0.4c-0.2,1,0,2,0.6,2.8c0.6,0.9,1.4,1.6,2.2,2.4c0.6,0.5,1.3,1,2,1.4
	C68.5,98.3,68.9,98,68.9,97.2 M60.3,113.2c-0.2-0.2-0.3-0.5-0.5-0.6s-0.5,0-0.6,0.2c-0.5,0.5-1,1-1.4,1.7c-0.3,0.5-0.5,1.2-0.6,1.8
	c-0.1,0.8-0.2,1.8,0.2,2.5c0.6,1.1,1.5,2.1,2.4,3c0.4,0.4,1,0.3,1.3,0s0.6-0.7,0.8-1.1c0.1-0.2,0-0.5-0.1-0.6
	c-0.2-0.3-0.5-0.6-0.8-0.9c-0.6-0.8-1.2-1.5-1.6-2.3c-0.5-1-0.6-2,0.3-2.9C60,113.8,60.1,113.5,60.3,113.2 M106.6,110.5
	c-0.1-0.7-0.2-1.3-0.3-2c-0.1-0.6-0.3-1.2-0.5-1.8c-0.1-0.1-0.3-0.3-0.5-0.3c-0.7-0.1-0.9,0.4-1.2,0.8c-0.7,0.9-1.3,1.9-1.9,2.9
	c-0.3,0.6-0.5,1.2-0.3,1.9c0.3,0.8,1.3,1.6,2,1.5C104.9,113.3,106.8,111.5,106.6,110.5 M126.5,80.2c0,1,0.2,1.6,0.7,2.2
	c0.6,0.8,1.5,0.8,1.9-0.1c0.6-1.4,1.4-2.7,1.1-4.3c-0.2-1-0.4-2.1-0.7-3.1c-0.1-0.2-0.3-0.6-0.5-0.6s-0.6,0.2-0.7,0.4
	C127.2,76.5,126.8,78.5,126.5,80.2 M116.2,106.9C116.2,106.9,116.3,106.9,116.2,106.9c0,0.1,0,0.2,0,0.3c0,0.8,0.5,1.1,1.2,0.7
	c1-0.5,1.7-1.3,2-2.3c0.4-1.4,0.8-2.9,1.2-4.3c0.2-0.8-0.4-1.5-1.2-1.2c-1.2,0.4-2.3,0.9-2.6,2.2c-0.1,0.3-0.1,0.7-0.1,1
	C116.6,104.5,116.4,105.7,116.2,106.9 M60.9,69.2c0,1.1,0.2,1.3,0.9,1.6c0.6,0.3,1.2,0.1,1.6-0.3c0.4-0.4,0.8-0.9,1.1-1.4
	c0.8-1.3,1.6-2.7,2.4-4.1c0.4-0.8,0.9-1.5,1.3-2.3c0.1-0.1,0-0.3,0-0.5c-0.2,0-0.5-0.1-0.7,0c-0.5,0.2-0.9,0.5-1.3,0.9
	c-1.6,1.6-3.2,3.2-4.7,4.8C61.2,68.3,61.1,68.9,60.9,69.2 M128.9,111c-0.2-0.6-0.2-1.1-0.4-1.6c-0.8-1.8-1.7-3.6-1.8-5.7
	c-0.1-0.8-0.6-1-1.3-0.6c-1.1,0.6-2,2.6-0.8,4.2c0.7,0.8,1.3,1.8,1.7,2.8c0.3,0.7,0.4,1.5,0.7,2.2c0.2,0.6,0.8,0.7,1.1,0.2
	C128.5,112.1,128.7,111.5,128.9,111 M92.5,51.8c0.5-0.1,0.9-0.1,1.3-0.2c0.8-0.1,1.3-0.7,1.3-1.2c0-0.6-0.3-0.9-1.2-1
	c-1-0.2-1.9-0.3-2.9-0.3c-1.3-0.1-2.4-0.6-3.4-1.4c-0.6-0.6-1.3-1.1-2-1.5C85.3,46,85,46,84.9,46.5c-0.1,1.3,0.5,2.3,1.3,3.1
	C88.1,51.1,90.3,51.6,92.5,51.8 M131.9,126.6c0-0.2,0-0.5,0-0.7s-0.1-0.4-0.1-0.5c-0.2-0.6-0.7-0.9-1.4-0.7s-1.5,0.5-2.2,0.8
	c-0.5,0.2-1,0.3-1.5,0.5c-0.4,0.2-0.8,0.6-0.9,1c-0.2,1.2,0.4,2.2,1.7,2.8c1.1,0.5,2.9,0.1,3.5-0.4
	C131.9,128.6,131.9,127.6,131.9,126.6 M162.3,69.3L162.3,69.3c0.7-0.1,1.1-0.6,0.8-1.1c-0.1-0.3-0.3-0.5-0.5-0.7
	c-0.6-0.6-1.3-1.2-1.8-1.8c-0.7-0.9-1.3-1.9-2-2.9c-0.9-1.2-1.7-2.4-2.6-3.6c-0.2-0.2-0.4-0.4-0.6-0.6c-0.3-0.3-0.6-0.2-0.6,0.2
	c0,0.6-0.1,1.2,0.2,1.7c0.8,1.6,1.6,3.2,2.5,4.8c0.3,0.5,0.7,1,1.2,1.5c0.6,0.6,1.3,1,1.9,1.5C161.3,68.6,161.8,69,162.3,69.3
	 M98.2,97.7c0,0.3,0,0.4,0,0.5s0,0.2,0.1,0.3c0.6,1.8,0.7,3.6,0.1,5.5c-0.3,0.8-0.3,1.6,0.2,2.4c0.7,1,2.3,1.4,2.9,0.1
	c0.8-1.6,0.9-3.1,0.2-4.7c-0.6-1.5-1.7-2.6-2.8-3.7C98.8,97.9,98.5,97.8,98.2,97.7 M145.9,63.2L145.9,63.2c0,0.4,0.1,0.9,0.2,1.3
	c0.5,1.1,1.1,2.1,1.6,3.2c0.5,0.9,0.9,1.9,1.4,2.8s1,1.8,2.2,2.2c0.7,0.2,1.1,0,1.3-0.6c0.3-0.9-0.1-1.6-0.6-2.3
	c-1.1-1.5-2.3-3-3.2-4.7c-0.4-0.8-1-1.6-1.6-2.3c-0.2-0.2-0.6-0.4-0.9-0.5C146.2,62.5,146,62.8,145.9,63.2L145.9,63.2 M85.2,113.1
	c-0.2-0.5-0.3-0.9-0.6-1.4c-0.4-0.6-0.9-1-1.2-1.6c-0.6-1-1.1-2-1.5-3.1c-0.5-1.1-0.9-1.2-1.7-0.3c-0.5,0.6-1,1.2-1.4,1.9
	c-0.5,0.7-0.4,1.5,0.3,2.1c0.6,0.5,1.3,1,1.9,1.4c0.9,0.6,1.9,1.2,2.9,1.7C84.6,114.2,85.1,113.9,85.2,113.1 M130.6,116.7
	c0,0.2,0,0.4,0,0.6c0,0.8,0.5,1.3,1.3,1.2c1-0.1,1.8-0.6,2.4-1.3c1.4-2,1.2-4.1,0.5-6.2c-0.2-0.7-0.9-0.8-1.5-0.2
	C131.7,112.4,130.7,114.4,130.6,116.7 M63.8,99.5c-1.1,0-1.3,0.2-1,1.1c0.3,0.7,0.6,1.5,1.1,2.1c0.7,1.1,1.7,1.6,3.1,1.2
	c0.4-0.1,0.9,0,1.3,0.1c0.7,0.2,1.4,0.5,2.1,0.6c0.4,0.1,0.8-0.1,1.1-0.3s0.2-0.7,0-1c-0.2-0.4-0.5-0.7-0.8-1
	c-0.6-0.5-1.2-1.1-1.9-1.5c-0.5-0.3-1-0.5-1.5-0.7c-0.5-0.1-1-0.1-1.4-0.2C65.1,99.7,64.4,99.6,63.8,99.5 M60.2,57.2
	c0-0.1-0.1-0.1-0.1-0.2c-0.2,0-0.4-0.1-0.6,0c-0.6,0.3-1.2,0.5-1.7,0.8c-2.1,1.2-4.2,2.5-6.3,3.8c-0.9,0.6-1.8,1.1-2.3,2.2
	c-0.4,0.9,0,1.6,1,1.5c0.4,0,0.9-0.2,1.2-0.4c1-0.6,1.9-1.3,2.8-2c1.4-0.9,2.8-1.8,3.8-3.1C58.8,59,59.5,58.1,60.2,57.2 M205.1,32.5
	C205.1,32.5,205.1,32.6,205.1,32.5c1-0.1,2.1-0.2,3.1-0.4c1.1-0.2,2.2-0.5,3.3-0.8c1.9-0.5,3.7-1.4,5.1-2.7c0.2-0.2,0.3-0.7,0.3-1
	c0-0.4-0.5-0.6-0.9-0.7c-1.3-0.1-2.5,0.2-3.6,0.7c-2,1-4,2.1-5.9,3.2c-0.6,0.3-1.2,0.8-1.9,1.2c-0.1,0.1-0.2,0.3-0.3,0.5
	c0.2,0.1,0.3,0.1,0.5,0.2C204.9,32.6,205,32.5,205.1,32.5 M15.8,27.3c0.3-0.1,0.6-0.2,0.8-0.3c-0.1-0.2-0.2-0.4-0.3-0.6
	c-0.1-0.1-0.2-0.3-0.3-0.3c-0.9-0.6-1.8-1.1-2.8-1.7c-1.9-1.1-3.4-2.7-4.9-4.1c-0.7-0.7-1.6-1.3-2.7-1.2c-0.5,0-1,0.5-0.9,1
	c0.3,0.6,0.6,1.3,1,1.8c0.7,0.8,1.5,1.4,2.4,2c0.8,0.6,1.7,1.3,2.7,1.7c1.1,0.5,2.4,0.9,3.6,1.4C14.8,27,15.3,27.1,15.8,27.3
	 M53.6,32.6c-0.3-0.1-0.6-0.3-0.9-0.3c-1.7-0.2-3.5-0.3-5.2-0.5c-1.8-0.1-3.6-0.1-5.4-0.3c-1.4-0.1-2.9-0.4-4.2-0.8
	c-1-0.3-1.9-0.8-2.9-1.1c-1.5-0.6-3-1.1-4.5-1.7c-1.1-0.4-2.3-0.9-3.4-1.3c-0.3-0.1-0.8-0.3-1.2,0c1.7,2,4,2.8,6.4,3.5
	c1.7,0.6,3.4,0.8,5.1,1.4c2.4,0.9,4.9,1.4,7.5,1.4c0.8,0,1.5,0.1,2.3,0.2c1.6,0.3,3.1,0.3,4.7,0.1C52.4,33.2,53.1,33.2,53.6,32.6
	 M94.2,130.3c0.7-0.1,1.3-0.1,2-0.2c0.2,0,0.4-0.2,0.6-0.3c-0.1-0.2-0.2-0.4-0.3-0.5c-0.6-0.4-1.2-0.7-1.8-1.1
	c-1.8-0.9-3.1-2.3-4.4-3.7c-0.4-0.4-0.6-0.9-1.1-1.1c-1.7-0.5-2.6,0.6-2.6,1.8c0.1,1.8,1.1,3.1,2.7,4
	C90.7,130.1,92.5,130.2,94.2,130.3 M112.8,111.2c0.1,0,0.1,0,0.2,0c-0.3-1-0.5-2-0.9-3c-0.1-0.3-0.6-0.5-0.9-0.8
	c-0.2,0.3-0.5,0.6-0.7,0.9c-0.4,1-0.8,2-1.6,2.8c-0.7,0.6-1.1,1.4-1.3,2.3c-0.2,0.7-0.4,1.4-0.6,2.1c-0.2,0.7-0.5,1.3-0.7,1.9
	c-0.1,0.3,0,0.7,0.2,0.8c0.2,0.2,0.6,0.2,0.9,0.1c0.3-0.1,0.6-0.2,0.9-0.5c1-0.8,1.9-1.7,2.8-2.6
	C112.1,114.2,112.9,112.8,112.8,111.2 M23.6,25.5c-0.8-0.7-1.5-1.4-2.2-2c-0.5-0.4-1-0.7-1.5-0.9c-3.3-1.3-6-3.4-8.1-6.1
	c-0.8-1-1.7-1.9-2.6-2.7c-0.5-0.5-1.1-0.3-1.2,0.3s0,1.3,0.1,2c0.4,1.9,1.5,3.3,3.4,4.2c1.6,0.7,3.2,1.6,4.8,2.4
	c1.5,0.8,3,1.7,4.5,2.4C21.6,25.3,22.5,25.5,23.6,25.5 M78,104.1c0.3-0.1,0.6-0.1,0.9-0.3c0.6-0.5,1.2-1.1,1.8-1.6
	c1-0.9,0.7-1.5,0.2-2.2c-0.9-1.2-1.9-2.3-3.5-2.8c-0.8-0.2-1.6-0.7-2.4-1c-0.7-0.3-1.5,0.2-1.6,0.8c-0.1,1.2,0,2.4,0.5,3.5
	s1.3,2.1,2.3,3C76.7,103.8,77.3,104.1,78,104.1 M194.5,48.2v0.2c0.6,0.2,1.2,0.5,1.9,0.6c2,0.4,4.1,0.7,6.1,1.1
	c1.9,0.3,3.8,0.5,5.7,0.2c1.2-0.2,2.4-0.5,3.3-1.3c0.7-0.7,0.6-1.6-0.3-2.1c-0.9-0.6-1.9-0.5-2.9-0.4c-1.7,0.2-3.3,0.6-4.9,0.9
	c-2.5,0.5-5.1,0.7-7.6,0.7C195.3,48,194.9,48.2,194.5,48.2 M116.3,120.2c0.7,0,1.2-0.3,1.5-1c0.4-0.9,0.7-1.9,1.2-2.7
	c0.6-1.1,1.4-2.1,2.1-3.2c0.7-1.1,1.1-2.2,0.8-3.5c-0.2-0.8-0.8-1.1-1.5-0.8c-0.4,0.2-0.8,0.5-1.3,0.7c-1.9,1.1-3.1,2.7-3.7,4.7
	c-0.3,0.9-0.6,1.9-0.9,2.8c-0.1,0.4-0.4,0.9-0.3,1.3C114.3,119.4,115.4,120.2,116.3,120.2 M177.3,53.5c0,0.1-0.1,0.2-0.1,0.3
	c0.2,0.2,0.3,0.4,0.6,0.6c1,0.6,2.1,1.3,3.1,1.8c2.1,1.1,4.2,2.1,6.3,3c2.3,1.1,4.5,2.4,7,3.1c1.3,0.3,2.5,0.7,3.9,0.4
	c0.7-0.1,1-0.8,0.5-1.3c-0.3-0.3-0.7-0.6-1.1-0.8c-2.8-1.2-5.6-2.3-8.4-3.4c-2.9-1.2-5.8-2.5-9-3.2
	C179.1,53.8,178.2,53.7,177.3,53.5 M138,124.7C137.9,124.7,137.9,124.7,138,124.7c-0.1,0.5-0.1,0.9,0,1.4c0,1,1,1.8,2.2,1.5
	c2.4-0.6,3.6-3.9,2.7-5.9c-0.7-1.6-1.1-3.3-1.7-4.9c-0.3-0.9-0.7-1.9-1.1-2.7c-0.1-0.3-0.6-0.4-1-0.5c-0.1,0.3-0.4,0.5-0.4,0.8
	c-0.1,0.5-0.1,1-0.1,1.5c0,1.7-0.2,3.4-0.5,5c-0.1,0.6-0.2,1.3-0.2,1.9C137.8,123.4,137.9,124.1,138,124.7 M87.6,117.7
	c0.1,1.9,0.8,3.8,1.7,5.5c0.1,0.1,0.2,0.2,0.4,0.3c0.5,0.2,1.1,0.5,1.7,0.6c1.2,0.2,2.2-0.2,2.1-1.5c-0.1-0.9-0.3-1.8-0.3-2.8
	c-0.1-1.3,0-2.6,0-3.9c0-0.6,0.1-1.1,0.1-1.7c-0.1-1.1-1-1.7-2-2.1c-0.6-0.3-1-0.1-1.4,0.5c-0.3,0.6-0.6,1.3-1.1,1.8
	C88,115.4,87.5,116.4,87.6,117.7 M43.1,62.2c0.4-0.1,0.8-0.2,1.1-0.4c0.7-0.3,1.4-0.7,2.1-1.1c2-1.1,4-2.2,6-3.3
	c3-1.8,5.8-4,8.3-6.5c0.6-0.6,1-1.4,1.5-2.1c0.1-0.1,0-0.4,0.1-0.6c-0.2,0-0.4,0-0.6,0.1c-0.2,0.1-0.4,0.2-0.6,0.3
	c-1.9,1.1-3.8,2.1-5.6,3.2c-0.6,0.3-1.2,0.6-1.8,0.9c-2.2,1.3-3.9,3.2-5.8,4.7c-1.1,0.8-2.2,1.6-3.3,2.4c-0.6,0.4-1.2,0.8-1.8,1.3
	c-0.2,0.1-0.2,0.5-0.2,0.7C42.5,62.1,42.9,62.1,43.1,62.2 M113.2,119.4c0-0.9-0.1-1-0.9-1.3c-0.5-0.2-1,0-1.3,0.4
	c-0.8,0.9-1.6,1.9-2.3,2.8c-1.3,1.9-1,3.9,0.1,5.8c0.8,1.3,2.3,1.9,3.7,2.4c0.4,0.1,1,0.2,1.4,0.1c1-0.2,1.7-1,1-2.7
	C113.9,124.5,112.7,122.1,113.2,119.4 M117,127.9c0,0.5,0.2,1,0.7,1.1c0.3,0,0.6-0.4,0.9-0.6l0,0c0.2-0.5,0.5-0.5,0.9-0.2
	c0.3,0.3,0.7,0.5,1,0.7c1,0.6,1.8,0.5,2.5-0.4c0.8-1,1.5-2.1,2.1-3.2c1-1.7,2-3.3,2.4-5.2c0.2-0.9-0.3-1.5-1.3-1.2
	c-2.2,0.7-4,2-5.8,3.3c-0.9,0.7-1.4,1.7-1.8,2.8c-0.2,0.5-0.3,0.9-0.9,1.2C117.4,126.6,117,127.2,117,127.9 M192.6,43.8
	c0,0.1,0,0.1,0,0.2c0.2,0.1,0.4,0.2,0.6,0.3c0.7,0.1,1.4,0.3,2.1,0.4c1.5,0.2,3.1,0.5,4.6,0.5c1.6,0,3.2-0.2,4.8-0.3
	c1.4-0.1,2.9-0.1,4.3-0.1c2-0.1,3.6-0.9,4.8-2.4c0.8-1,0.6-1.7-0.6-2c-0.2,0-0.3,0-0.5,0c-1.6,0.2-3.3,0.4-4.9,0.6
	c-1.5,0.3-3,0.6-4.5,0.9c-1.4,0.3-2.9,0.5-4.4,0.8c-1.4,0.2-2.9,0.5-4.3,0.7C194,43.5,193.3,43.7,192.6,43.8 M88.2,32.4
	c-0.1-0.4-0.2-0.8-0.4-1.1c-1.1-1.1-2.2-2.3-3.4-3.3c-1.8-1.4-4-1.8-6.1-2.4c-0.3-0.1-0.8,0.3-1.1,0.5c-0.3,0.3-0.3,0.7,0,1
	s0.6,0.5,0.9,0.7c1.2,0.7,2.3,1.5,3.2,2.6c1.3,1.6,1.7,3.5,2,5.4c0.3,1.5,0.6,2.9,0.9,4.4c0.1,0.3,0.4,0.6,0.6,0.9
	c0.2-0.3,0.5-0.6,0.7-0.9c0.7-1.8,1.4-3.6,2.1-5.4C87.7,34.1,87.9,33.2,88.2,32.4 M174.2,46.9c0,0.1,0,0.1-0.1,0.2
	c0.2,0.2,0.4,0.4,0.7,0.5c1.1,0.4,2.2,0.8,3.3,1.1c4.5,1.4,9,2.7,13.4,4.1c1.1,0.4,2.2,0.9,3.4,1.2c1.5,0.4,3.1,0.7,4.6,1
	c1.5,0.4,3,0.7,4.6,0.7c0.9,0,1.8,0.2,2.8,0.2c0.7,0,1.4,0,2.1-0.1c0.5-0.1,0.9-0.5,0.9-1s-0.2-0.9-0.8-1.1
	c-0.5-0.2-1.1-0.4-1.6-0.4c-1.5-0.1-3-0.1-4.6-0.3c-1.4-0.1-2.7-0.2-4.1-0.5c-2-0.4-3.9-0.8-5.9-1.2c-3-0.7-5.9-1.4-8.9-2.1
	c-2.8-0.7-5.6-1.4-8.3-2.1C175.3,47,174.7,47,174.2,46.9 M135.7,78.1c0.3,0.2,0.4,0.3,0.6,0.3c0.5,0.3,1,0.7,1.6,1
	c0.8,0.3,1.3-0.1,1.3-0.9c0-1-0.1-2.1-0.2-3.1c-0.1-0.9-0.2-1.9-0.5-2.7c-0.5-1.5-1.2-3-1.9-4.5c-0.4-0.8-1.1-1.3-2-1.6
	c-0.6-0.2-1.1,0-1.3,0.5c-0.1,0.5-0.2,1.1-0.1,1.6c0.2,1.4,0.6,2.8,0.8,4.2c0,0.1-0.1,0.4-0.2,0.5c-0.7,0.2-0.9,0.7-1,1.4
	c-0.1,0.9-0.2,1.8-0.4,2.7c-0.4,1.9,0.1,3.6,1.1,5.2c0.4,0.7,1.2,0.8,1.6,0.1c0.1-0.2,0.2-0.3,0.2-0.5c0.1-0.8,0.2-1.7,0.3-2.5
	C135.5,79.1,135.6,78.7,135.7,78.1 M214.1,20c0-0.5,0.1-1-0.6-1.2c-0.6-0.2-0.9,0.2-1.3,0.5c-1,0.7-2,1.3-2.9,2.1
	c-1.4,1.1-2.8,2.3-4.2,3.3c-1.8,1.3-3.8,2.4-5.9,3.2c-1.4,0.5-2.8,0.9-4.1,1.5c-1.6,0.7-3.1,1.6-4.7,2.4c-0.2,0.1-0.3,0.3-0.5,0.5
	c0.3,0.1,0.5,0.1,0.8,0.1c0.1,0,0.1,0,0.2,0c1.7-0.3,3.4-0.6,5.1-1c3.2-0.9,6.4-2,9.6-3.1c2.6-0.9,5.1-2.1,6.9-4.3
	C213.4,22.8,214,21.5,214.1,20 M78.9,124.8c0.1,0.3,0.1,0.6,0.2,0.9c0.4,1,1,1.9,2,2.5c0.6,0.4,1.3,0.7,2.1,0.4
	c1.5-0.4,2.4-2.2,1.9-3.7c-0.2-0.6-0.4-1.1-0.7-1.7c-0.6-1.3-1.1-2.6-0.6-3.9c0.4-1.4-0.3-2.5-1.3-3.2c-0.9-0.6-1.8-1.1-2.7-1.6
	c-1.5-1-3-1.9-4.5-2.9c-0.1-0.1-0.2-0.2-0.3-0.2c-0.4-0.1-0.8-0.3-1,0.1c-0.1,0.2-0.2,0.7,0,0.9c0.4,0.6,0.9,1.2,1.4,1.8
	c0.9,1,1.6,2.2,2.6,3.1c1.6,1.5,1.9,3.2,1.5,5.1C79.2,123.1,79.1,124,78.9,124.8 M42.5,39.3c0-0.1,0-0.2,0-0.2
	c-0.2-0.1-0.4-0.1-0.6-0.2c-2.1-0.6-4.3-0.6-6.4-0.9c-0.9-0.1-1.8-0.1-2.6-0.2c-1.2-0.1-2.4-0.3-3.7-0.4c-1.1-0.1-2.2-0.2-3.3-0.4
	c-1.7-0.3-3.4-0.7-5.1-1c-3-0.6-6-1.4-8.8-2.6c-1.3-0.5-2.5-1.1-3.8-1.6C7.1,31.4,6,31.1,4.8,31c-1-0.1-1.6,0.7-1.1,1.6
	c0.2,0.3,0.4,0.6,0.6,0.8c1.5,1.5,3.5,2.3,5.4,3.2c1.7,0.8,3.7,0.9,5.5,1c2,0.1,4,0.1,6,0.3c1.5,0.1,3,0.2,4.5,0.5
	c3.2,0.7,6.4,1.1,9.6,1.3c1.8,0.1,3.6,0,5.4-0.1C41.3,39.7,41.9,39.5,42.5,39.3 M187.1,39.9c0,0.1,0,0.2,0,0.3
	c0.6,0.1,1.2,0.2,1.8,0.2c1,0,2-0.1,3.1-0.2c1.7-0.1,3.5-0.2,5.2-0.3c1.4-0.1,2.8-0.1,4.2-0.4c1.8-0.3,3.6-0.6,5.3-1.1
	c2-0.5,4-1.1,6.1-1.4c1.5-0.2,2.9-0.8,4-1.7c0.5-0.4,0.9-1,0.8-1.7c-0.1-0.7-0.6-1.2-1.4-1.2c-0.9-0.1-1.9-0.1-2.8,0
	c-1.9,0.3-3.7,0.8-5.5,1.5c-1.3,0.6-2.7,0.9-4.1,1.3c-1.5,0.4-3.2,0.5-4.6,1c-2.7,1-5.5,1.9-8.3,2.6
	C189.6,39.2,188.4,39.5,187.1,39.9 M133.2,46.5c-0.2,0.5-0.3,1.2-0.7,1.8c-0.7,1.3-2.1,1.6-3.5,1.9c-1,0.2-2,0.5-2.3,1.6
	c-0.2,0.7,0.2,1.5,0.9,1.6c0.8,0.1,1.6,0,2.3-0.1c1.4-0.3,2.6-0.8,3.4-1.9c0.4-0.5,0.7-1,0.9-1.6c0.5-0.9,1-1.8,1.3-2.7
	c0.6-1.6,0.2-3.3-0.2-4.9c-0.3-1.4-0.8-2.7-0.5-4.1c0.4-1.8,1-3.4,1.9-5c0.8-1.4,1.9-2.5,2.9-3.7c0.2-0.2,0.4-0.7,0.3-0.8
	c-0.2-0.3-0.6-0.5-0.9-0.5c-0.6,0-1.2,0.1-1.7,0.2c-1.5,0.2-2.8,0.8-3.5,2.1c-0.3,0.6-0.7,1.2-1,1.9c-0.6,1.5-1.2,2.9-1.1,4.6
	c0.1,1.8,0.2,3.6,0.4,5.4c0.1,0.9,0.4,1.8,0.7,2.6C133,45.3,133.1,45.8,133.2,46.5 M29.8,34.5L29.8,34.5c0.1-0.1,0.3,0,0.4-0.1
	c0.4-0.1,0.7-0.2,1.1-0.3c-0.3-0.3-0.5-0.6-0.8-0.8c-1.3-0.5-2.6-1-3.9-1.5c-1-0.4-2-0.8-3-1.1c-0.9-0.3-1.9-0.4-2.8-0.7
	c-1.7-0.5-3.4-1-5.1-1.6c-1.3-0.4-2.7-0.8-4-1.3c-1.8-0.8-3.5-1.7-5.2-2.6c-0.6-0.3-1.3-0.6-2-0.9c-0.7-0.2-1.2,0-1.3,0.6
	c-0.3,1.2-0.1,2.4,0.9,3.2c1.7,1.5,3.5,2.9,6,3.3c2.9,0.5,5.8,1.4,8.7,2.1c2,0.5,4.1,0.9,6.2,1C26.6,34.1,28.2,34.4,29.8,34.5
	 M105.2,130.7c0.9,0,1.8-0.1,2.2-0.9c0.5-0.8,0.1-1.6-0.3-2.4c-0.3-0.5-0.6-1-0.9-1.5c-0.8-1.5-1.6-3.2-2.5-4.6
	c-1.3-2.1-2.5-4.2-3.4-6.5c-0.4-1-0.7-2.1-1.6-2.8c-0.5-0.4-1.1-0.4-1.3,0.3s-0.4,1.4-0.6,2.1c-0.4,2-0.9,4.1-1.3,6.1
	c-0.3,1.3-0.2,2.5,0.7,3.6c0.7,0.9,1.4,1.8,2.2,2.7c0.5,0.6,1.1,1.3,1.7,1.8c0.5,0.4,1.1,0.6,1.6,0.9
	C102.8,130.1,103.9,130.7,105.2,130.7 M144.7,121.4c-0.2,1,0.2,2,0.8,2.9c0.7,1,1.6,1.7,2.8,1.7c1.6,0.1,3.1,0,4.6-0.5
	c1-0.3,2-0.6,2.6-1.5c0.9-1.4,1-3,0.5-4.6c-0.4-1.1-0.6-2.1-0.6-3.2c0.1-0.8,0.2-1.7,0.2-2.5c0-1.1-0.2-2.2-0.3-3.3
	c0-0.3-0.1-0.7-0.2-1c-0.1-0.3-0.4-0.6-0.6-0.6c-0.2,0-0.7,0.2-0.8,0.4c-0.7,1.2-1.4,2.5-2,3.8c-0.4,0.8-0.5,1.6-0.2,2.5
	s0.5,1.9,0.7,2.8c0.2,0.9-0.6,1.6-1.4,1.2c-0.6-0.2-1.2-0.7-1.7-1.1c-1.3-1.2-2.1-2.7-2.5-4.3c-0.3-1-0.6-2.1-1.1-3
	c-0.4-0.9-1.4-1.1-2.2-0.6c-0.9,0.6-1.4,2-0.8,3c0.5,0.8,0.9,1.7,1.3,2.6C144.6,117.7,144.7,119.5,144.7,121.4 M43.9,54.7L43.9,54.7
	c0.6-0.6,1.3-1,1.9-1.5c0.7-0.5,1.4-1,1.8-1.8c0.2-0.6,0.1-0.9-0.6-0.9c-0.8,0.1-1.7,0.1-2.4,0.3c-3.6,1-7.2,2.1-10.7,3.2
	c-0.3,0.1-0.7,0.2-1.1,0.3c0.3-0.3,0.4-0.5,0.6-0.8c0.4-0.5,0.3-1-0.4-1.1c-1.4-0.2-2.8-0.3-4.2,0.2c-2.5,0.9-5,1.6-7.6,2
	c-0.7,0.1-1.4,0.5-1.8,1.2c-0.5,0.8-0.2,1.7,0.7,1.8c0.5,0.1,1.1,0.1,1.7,0c0.9-0.2,1.8-0.6,2.7-0.8c1.2-0.3,2.5-0.5,3.7-0.7
	c0.3-0.1,0.6-0.1,1.1-0.1c-0.3,0.4-0.5,0.6-0.7,0.8c-0.3,0.5-0.7,0.9-0.9,1.5c-0.3,0.8,0.4,1.5,1.2,1.4c0.5-0.1,1-0.2,1.4-0.3
	c1.2-0.4,2.4-0.5,3.8-0.6c-0.2,0.3-0.4,0.5-0.5,0.7c-0.4,0.6-0.5,1.5-0.1,2s1.1,1.2,2.1,0.8c1.9-0.8,4-1.6,5.8-2.7
	c1.5-1,2.6-2.4,3.8-3.7c0.3-0.3,0.6-0.7,0.9-1.1c0-0.1-0.1-0.1-0.1-0.2C45.1,54.6,44.5,54.7,43.9,54.7 M106.3,17.1
	c0.1,1.4,0.2,3,0.4,4.5c0.1,1,0.4,2,0.7,3c0.4,1.3,1.7,1.5,2.5,0.6c0.1-0.1,0.2-0.2,0.2-0.4c0.3-0.9,0.6-1.7,0.9-2.6
	c0.6-1.7,1.3-3.5,1.8-5.2c0.4-1.5,0.7-3,1-4.5c0.2-1.4,0.6-2.6,2.1-3.2c1.4-0.5,1.5-1.7,0.4-2.6c-1-0.8-2-1.7-3.1-2.5
	c-0.4-0.3-0.9-0.7-1.5-0.9c-1.5-0.5-3.1-0.4-4.7-0.3c-0.3,0-0.7,0.3-0.8,0.5c-0.1,0.1,0.2,0.5,0.4,0.7c0.1,0.1,0.2,0.2,0.3,0.3
	c0.6,0.4,0.7,0.9,0.2,1.4c-0.4,0.4-0.9,0.8-1.4,0.9c-0.6,0.2-1.3,0.2-2,0.3c-0.8,0.1-1.2,0.6-1,1.3c0.2,0.6,0.6,1,1.1,1.3
	c1.8,1,2.6,2.4,2.4,4.4C106.4,15.3,106.4,16.1,106.3,17.1 M32.5,47.5c0-0.1,0-0.1,0-0.2c0.4-0.2,0.7-0.5,1.1-0.7
	c0.8-0.5,0.7-1.1-0.1-1.6c-0.3-0.2-0.5-0.3-0.9-0.6c2.5-0.7,5.1-0.4,7.4-1.4c-0.2-0.1-0.3-0.2-0.5-0.2c-1.6-0.1-3.2-0.2-4.8-0.2
	c-1.5-0.1-3-0.1-4.5-0.2c-2.1-0.2-4.3-0.3-6.4-0.6c-1.9-0.3-3.8-0.7-5.6-1.1c-2.2-0.5-4.3-1.3-6.5-1.8c-1.5-0.4-3.1-0.6-4.6,0.1
	c-0.6,0.3-1.2,0.6-1.3,1.3c-0.2,0.8,0.4,1.3,1,1.6c0.3,0.2,0.6,0.3,0.9,0.4c0.7,0.3,1.5,0.7,2.3,1c-0.6,0.4-1.1,0.7-1.6,1
	c-1.2,0.9-1.1,2.3,0.2,2.9c0.5,0.2,1,0.4,1.4,0.6c0.9,0.4,1.8,0.9,2.6,1.6c-0.3,0.3-0.6,0.5-0.9,0.8c-0.4,0.4-0.5,0.8-0.4,1.4
	c0.2,0.8,0.8,1.3,1.6,1.7c1.7,0.9,3.6,0.5,5.5,0.5c0.6,0,1.1-0.1,1.6-0.3c1-0.3,1.9-0.8,2.9-1.1c1.4-0.5,2.8-0.9,4.2-1
	c1.1-0.1,2.2-0.3,3.3-0.6c1-0.2,2.1-0.5,3.1-0.7c0.9-0.2,1.9-0.3,2.8-0.6c0.9-0.2,1.7-0.6,2.6-0.9c1.1-0.4,2.2-0.7,3.2-1.1
	c0.3-0.1,0.5-0.5,0.8-0.8c-0.4-0.1-0.8-0.2-1.1-0.2c-1.3,0.1-2.6,0.3-3.9,0.5c-1.3,0.2-2.5,0.3-3.8,0.4
	C33.7,47.5,33.1,47.5,32.5,47.5 M168.8,70c1.5-0.7,1.5-2.4,0.8-3.5c-0.6-0.8-1.4-1.5-2.2-2.2c-1-1-2-2-3.1-2.9
	c-0.7-0.7-1.4-1.4-2.2-2c-1-0.8-2.1-1.6-3.1-2.4c-0.3-0.2-0.6-0.4-0.9-0.6c-0.5-0.2-0.8-0.1-0.7,0.4c0,0.8,0.6,1.4,1.1,2
	c1.4,1.7,2.9,3.3,4.3,5c0.6,0.7,1.1,1.4,1.5,2.1c0.4,0.8,1,1.4,1.7,2c0.9,0.7,1.7,1.4,2.5,2.1c-0.6,0.4-1.4,0.8-2,1.2
	c-0.5,0.4-0.9,0.9-1.4,1.2c-0.7,0.5-1.5,1-2.4,1.3c-1.2,0.4-2.2,1.1-3.1,2c-0.4,0.4-1,0.6-1.5,0.8c-1,0.3-1.9-0.1-2.7-0.6
	c-1.6-1-2.6-0.6-4,0.3c-1.5,1-3.1,2-4.7,2.7c-0.7,0.3-1.6,0.2-2.4,0.1c-1.1-0.1-2.2,0-3,0.9c-0.2,0.2-0.4,0.5-0.5,0.9
	c-0.4,1.3-1.5,2-2.7,2.5c-1.6,0.6-3.2,0.9-4.9,0.8c-1.3-0.1-2.6,0.1-3.8,0.6c-1.1,0.5-2.2,0.2-3.3,0c-0.7-0.1-1.5,0.1-1.8,0.7
	c-1.1,1.7-1.8,3.6-2.2,5.6c-0.2,0.8-0.3,1.6-0.2,2.3c0,0.6,0.2,1.3,0.5,1.9c0.2,0.6,0.7,1.2,0.8,1.8c0.1,0.8-0.1,1.6-0.1,2.5
	c0,0.3,0.1,0.6,0.2,0.8c0.2,0.1,0.6,0.1,0.8,0c0.7-0.4,1.5-0.9,2.1-1.5c0.4-0.3,0.7-0.7,1.2-1.1c0.6-0.4,1.2-0.9,2-0.6
	c0.8,0.3,0.9,1.1,0.9,1.7c0,1.3-0.1,2.7-0.1,4c0,1.1,0.2,2.1,0.7,3.1c0.1,0.1,0.2,0.3,0.3,0.4c0.5,0.8,1.3,0.7,1.8,0
	c0.4-0.6,0.8-1.2,1.3-1.8c0.7-0.7,1.5-0.7,2.3,0s1,1.7,1.3,2.6c0.1,0.3,0.1,0.7,0.3,1c0.5,1,1.3,1.6,2.5,0.8
	c0.7-0.5,1.4-1.1,2.1-1.6c0.8-0.6,0.8-1.3,0.6-2.1c-0.4-1.2-0.4-2.5,0.1-3.7c0.2-0.4,0.3-0.7,0.6-1c0.7-0.8,1.9-0.7,2.4,0.2
	s0.9,1.9,1.5,2.7c0.9,1.1,1.8,2.2,2.8,3.2c0.4,0.5,1.1,0.4,1.5-0.2c0.6-0.8,0.5-1.6,0.5-2.5c0-0.6,0-1.2,0.2-1.8
	c0.1-0.6,0.7-0.8,1.3-0.8c1.5,0.1,2.6-0.4,3.5-1.4c0.3-0.3,0.6-0.6,1-0.9c1.2-1,2.4-1.9,3.9-2.3c0.5-0.1,1.2-0.2,1.7-0.1
	c1.1,0.2,1.3,1.1,0.9,1.9c-0.3,0.8-0.8,1.4-1.2,2.2c-0.1,0.2-0.2,0.5-0.3,0.8c-0.4,1.3,0.2,1.4,1.2,1.6c0.3,0,0.6,0,0.9,0.1
	c0.8,0.3,1.1,0.9,0.7,1.9c-0.5,1.5-1.1,3.1-1.6,4.6c-0.4,1-0.7,2.1-0.6,3.2c0.1,1.2,0.3,2.4,0.2,3.5c-0.1,1.5,0.1,3,0.3,4.5
	c0.3,1.9-0.4,3.4-2.4,4.4c-1,0.5-1.9,1-2.8,1.6c-0.9,0.6-1.9,0.9-3,0.9c-1.6,0-3,0.4-4.5,1c-1.2,0.5-2.4,0.8-3.6,0.7
	c-1.7,0-3.4,0.1-5,0.4c-1.3,0.3-2.7,0.6-4,0.8c-0.9,0.2-1.8,0.2-2.6,0.3c-1.4,0.2-2.7,0.5-4,0.8c-0.9,0.2-1.6,0.7-2.5,1
	c-1.5,0.5-2.9,0.3-4.3-0.3c-1.8-0.8-3.6-0.8-5.4-0.2c-1.3,0.4-2.6,0.4-3.9,0.1c-0.2,0-0.4-0.1-0.6-0.1c-1.5-0.1-3-0.2-4.5-0.2
	c-0.8,0-1.7,0.1-2.5,0.4c-1.8,0.5-3.5,0.5-5.2-0.1c-1.2-0.5-2.5-0.4-3.8-0.1c-1.1,0.2-2.3,0.4-3.4,0.4c-1.9,0-3.8,0-5.7-0.2
	c-1-0.1-2-0.5-3-0.9c-0.9-0.4-1.8-0.9-2.8-1.2c-1.7-0.5-3.3-1.2-4.9-1.7c-0.8-0.2-1.6-0.4-2.4-0.5c-0.9-0.2-1.8-0.2-2.6-0.8
	c0.3-0.2,0.6-0.4,0.7-0.7c0.4-0.5,0.5-1.1,0.3-1.7c-0.8-1.9-0.4-3.8-0.1-5.7c0.3-1.5,0-2.7-1.6-3.4c-1.1-0.5-2.2-1.2-3.3-1.7
	c-1.2-0.6-2.5-0.6-3.7,0.1c-0.6,0.3-0.8,0.7-0.5,1.2c0.7,1.2,1.4,2.4,2.1,3.6c0.6,0.9,1.2,1.8,1.7,2.8c0.7,1.6,1.9,3,2.9,4.5
	c0.2,0.3,0.5,0.6,0.9,1.1c-1.1,0-2.1,0.1-3,0.1c-1.2-0.1-2.4-0.3-3.6-0.5c-1.1-0.2-2.1-0.7-3.1-1.3c-0.8-0.4-1.8-0.6-2.7-0.9
	c-1.3-0.4-2.7-0.9-4.1-1.2c-0.6-0.2-1.2-0.2-1.7-0.2c-1.5,0.1-2.8-0.3-4-1.2c-1.1-0.8-2.2-1.5-3-2.6c-0.7-1-1-2.1-1-3.2
	c-0.1-1.7,0-3.4,0.3-5.1c0.2-0.7,0.5-1.3,1.1-1.8c0.7-0.5,0.8-0.9,0.5-1.7c-0.6-1.3-1.2-2.5-1.5-4c-0.2-1.2-0.6-2.4-0.9-3.6
	c-0.2-0.7,0.1-1.4,0.8-1.8c0.5-0.3,1.5-0.2,1.9,0.2c0.3,0.2,0.6,0.4,0.8,0.7c1,1,1.6,0.6,2.3-0.3c0.4-0.6,0.8-1.1,1.3-1.6
	c0.7-0.6,1.6-0.2,1.9,0.4c0.3,0.7,0.4,1.5,0.6,2.2c0.2,1,0.2,2,0.8,2.9c0.7,0.9,1.6,1.6,2.6,2c0.5,0.2,1,0.1,1.4-0.3
	c0.4-0.4,0.7-0.9,0.5-1.4c-0.4-0.8-0.8-1.5-1.4-2.2c-1.1-1.5-2-3-2.4-4.8c-0.2-0.9-0.2-2.1,1.3-2.7c1-0.4,1.5-1.2,1.4-2.2
	s-0.3-2-0.4-3c-0.1-0.5-0.1-1,0-1.5c0.2-0.8,1.2-1.2,2-0.9c0.8,0.4,1.5,0.9,2.2,1.4c0.5,0.3,1,0.7,1.6,1.1c1.3,0.8,2.7,1.5,3.9,2.3
	c0.9,0.6,1.8,0.9,2.8,0.9c1,0.1,1.8,0.4,2.6,0.9c0.6,0.4,1.3,0.5,2,0.4c0.8-0.1,1.4-0.9,1.4-1.7s0.1-1.6,0.6-2.3
	c0.6-0.7,1.7-0.6,2.3,0c0.7,0.8,1.4,1.6,2,2.4c0.9,1.1,1.7,2.3,2.6,3.3c0.7,0.8,1.6,1.1,2.7,1.1c1.2,0,2.3,0.4,3.3,1
	c0.4,0.2,0.9,0.6,1.2,0.2c0.2-0.3,0.2-0.9,0-1.3c-0.3-0.9-0.8-1.8-1-2.8c-0.6-1.9,0.5-3.3,2.8-2.7c0.1,0,0.1,0.1,0.2,0.1
	c0.5,0,1.1,0,1.5-0.4s0.2-0.9,0-1.3c-0.5-0.9-0.9-1.8-1.4-2.7c-0.2-0.4-0.4-0.8-0.6-1.3c-0.5-1.2-1-1.5-2.3-1.4
	c-1.4,0.1-2.7-0.2-3.8-1c-0.7-0.5-1.4-0.8-2.3-0.8c-0.4,0-0.8,0-1.3,0c-1.6,0.2-3-0.4-4.3-1.2c-0.7-0.5-1.5-0.6-2.3-0.4
	s-1.5-0.1-2.2-0.5c-0.9-0.5-1.9-1-2.8-1.7c-0.6-0.5-1.1-1.1-1.6-1.7c-0.7-0.8-1-1.2-2.3-0.8c-0.8,0.3-1.7,0.4-2.6,0.1
	c-0.4-0.2-0.8-0.4-1.2-0.6c-1.7-0.8-3.4-1.7-5.2-2.1c-0.6-0.1-1.2-0.4-1.7-0.8c-1.1-0.7-2.4-0.8-3.6-1.2c-1.7-0.6-3.3-1.3-4.9-2.1
	c-2-1-4.1-2-6.3-2.5c-0.4-0.1-0.8,0-1.2,0.1c-1.1,0.3-2.2,0.3-3.2-0.1c-1.2-0.5-2.4-0.9-3.7-1.4c-0.2-0.1-0.4-0.3-0.6-0.4
	c-0.9-0.7-2-0.9-3.1-0.9c-0.7,0-1.4-0.2-2.1-0.6c-1.2-0.6-2.3-1.1-3.6-1.4c-0.5-0.1-1.1-0.4-1.5-0.7c-0.8-0.6-1.7-0.9-2.6-0.9
	c-2.1,0-3.9-0.8-5.6-1.9c-1.5-1-3.2-1.8-5-2.3c-2.6-0.7-4.3-2.5-5-5C8,49.1,7.5,47.9,6.2,47c-0.5-0.3-0.9-1-0.9-1.6
	c0-1.7-0.7-3.1-1.4-4.6C3.5,40,3.3,39,3.2,38c-0.2-1.1-0.4-2.1-1-3c-0.9-1.4-1.4-2.8-1.2-4.5c0-0.4,0.1-0.8,0.2-1.2
	c0.3-1-0.1-1.8-0.5-2.7c-0.3-0.9-0.6-1.8-0.7-2.7c-0.2-1.3,0.3-2.4,1.2-3.3c0.7-0.7,1.1-1.5,1.4-2.4c0.1-0.3,0.3-0.7,0.5-1
	c1-1.1,1.3-2.5,1.6-3.9c0.3-1.6,0.9-3.1,1.7-4.5c1-1.7,2.7-1.6,3.8,0c1.2,1.8,2.4,3.7,3.7,5.5c0.6,0.7,1.5,1.3,2.2,1.9
	c0.6,0.5,1.2,0.9,1.8,1.4c1.2,1.1,2.4,2.3,3.7,3.4c0.7,0.6,1.6,1,2.5,1.5c1,0.6,1.9,1.3,2.9,1.8c1.1,0.5,2.4,0.9,3.6,1.2
	c1.4,0.5,2.9,0.9,4.3,1.3c1,0.3,2,0.4,3,0.6c1.3,0.2,2.6,0.4,3.8,0.7c2.4,0.5,4.8,1.1,7.2,1.4c2.1,0.3,4.2,0.2,6.1-1
	c1.4-0.9,2.9-1.2,4.6-1.4c1.8-0.2,3.5-0.6,5.3-0.9c1.4-0.2,2.7-0.9,3.9-1.5c1.4-0.8,3-1.1,4.5-1.4c1.7-0.3,3.4,0,5,0.4
	c0.5,0.1,1,0,1.6,0c1,0.1,1.9,0.1,2.9,0.2c1.5,0.2,3,0.7,4.3,1.6c1.6,1,2.4,2.4,2.7,4.2c0.1,0.6,0.2,1.2,0.5,1.7
	c0.8,1.8,0.7,3.6,0.1,5.4c-0.5,1.6-1.1,3.1-1.7,4.6c-0.5,1.3-0.7,2.6,0.1,3.8c0.4,0.6,1,0.9,1.6,1c1.3,0.2,2.6,0.3,3.8,0.5
	c0.7,0.1,1.5,0.1,2.2,0.1c3.4,0,5.6-1.8,6.8-4.5c0.6-1.2,0.9-2.6,1.3-3.9c0.1-0.5,0.2-1,0.2-1.4c0-0.8,0-1.6,0-2.4
	c0-3.8,0-7.6,0-11.4c0-1.9,0-3.8-0.1-5.7c-0.1-1.8-0.8-3.6-2-5c-1.1-1.3-2.3-2.6-4-3.3c-2.2-0.9-4.3-1.8-6.5-2.5
	c-2.7-0.9-5.4-1.5-8.2-2.3c-1.5-0.4-3-1-4.3-2c-0.4-0.3-0.8-0.7-0.6-1.3s0.8-0.8,1.3-0.9c1.8-0.3,3.5-0.2,5.3,0.1
	C87,0.6,88.3,0.7,89.7,1c1.9,0.4,3.8,1,5.7,1.3c1.3,0.2,2.6,0.2,4,0.2c2.4,0,4.5-1,6.8-1.7c1.8-0.5,3.4-0.8,5.2,0.1
	c1.7,0.8,3.4,1.5,5.1,2.3c1.2,0.6,2.3,1.2,3.5,1.8c1.5,0.7,3.1,1,4.8,0.7c0.7-0.1,1.5-0.1,2.3,0c1.1,0.1,1.4,1.1,0.6,1.9
	c-0.4,0.4-1,0.6-1.5,1c-0.2,0.2-0.6,0.5-0.6,0.6c0.1,0.3,0.4,0.6,0.6,0.7c0.8,0.4,1.6,0.7,2.4,1c0.5,0.2,0.9,0.4,1.4,0.8
	c0.4,0.3,0.3,0.8-0.2,1s-1,0.4-1.5,0.5c-1.9,0.3-3.8,0.1-5.6-0.4c-1.4-0.4-2.8-0.9-4.2-1.3c-1-0.3-1.7,0.3-1.7,1.3
	c0,1.4,0,2.8,0,4.2c0,1.9-0.3,3.8-0.8,5.6c-0.5,2.1-1.1,4.3-1.5,6.4c-0.2,1.1,0.1,2.3,0.4,3.4c0.5,1.7,0.9,3.4,1.5,5.1
	c0.9,2.5,2.2,4.8,4.1,6.8c0.8,0.8,1.6,1.6,2.5,2.3c0.7,0.6,1.5,0.9,2.4,0.9c1,0,2.1,0.1,3-0.1c1.9-0.4,2.6-1.5,2.8-3.2
	c0.1-1-0.3-1.8-0.8-2.6c-0.9-1.5-1.4-3-1.6-4.7c-0.1-0.8-0.3-1.5-0.2-2.3c0.1-1.5,0.6-2.9,1.5-4.2c0.9-1.4,2.3-2.3,3.8-3.1
	c1.2-0.6,2.3-1.3,3.6-1.8c1.1-0.4,2.3-0.6,3.5-0.7c3.5-0.2,6.8,0.5,10,1.7c0.9,0.3,1.6,0.8,2.5,1.1c0.9,0.3,1.9,0.5,2.9,0.8
	c2,0.6,4.1,1.3,6.1,2c1.7,0.6,3.3,1.3,5,1.8c1.8,0.5,3.7,0.6,5.5,0.2c1.5-0.3,3-0.4,4.5-0.6c2.9-0.3,5.8-0.9,8.7-1.6
	c1.3-0.3,2.6-0.6,3.8-1c0.4-0.1,0.9-0.4,1.3-0.6c1.6-0.7,3.2-1.4,4.7-2.1c4-2,8.2-3.8,11.8-6.5c0.9-0.6,1.6-1.4,2.3-2.2
	c1.1-1.3,2.2-2.7,3.3-3.9c1-1.2,2.3-0.7,3,0.4c0.7,1.1,1.1,2.4,1.1,3.7c0,0.9-0.3,1.8-0.5,2.7c0,0.1,0,0.2-0.1,0.3
	c-0.4,1.2-0.2,1.7,1,2.2s2.1,1.3,2.4,2.6c0.1,0.6,0.2,1.2,0.1,1.7c-0.3,1.2,0.1,2.2,0.7,3.1c1,1.5,0.8,2.9-0.1,4.4
	c-0.4,0.6-0.9,1.2-1.4,1.9c-0.4,0.6-0.5,1.2-0.4,1.9c0.2,1.9-0.2,3.6-1.6,5c-0.4,0.4-0.9,0.7-1.2,1.2c-0.3,0.4-0.7,0.9-0.7,1.4
	c-0.1,1.5-0.6,2.7-1.5,3.9c-0.4,0.5-0.6,1.1-0.6,1.8c0,0.8,0.1,1.5-0.2,2.3c-0.7,1.3-1.8,2.1-3.2,2.4c-1.2,0.3-2.1,0.9-2.7,1.9
	c-0.8,1.3-2,2.1-3.4,2.5c-1,0.3-1.8,1-2.4,1.8c-0.9,1.1-2,1.7-3.3,1.9c-1.3,0.2-2.5,0.5-3.8,1c-1.5,0.6-3.1,0.4-4.6,0.2
	c-1.1-0.1-2.2-0.4-3.2-0.4s-2,0.2-3,0.4c-0.6,0.1-1.2,0.5-1.7,0.9c-1.1,0.7-2.3,1-3.6,1.1c-1.5,0.1-3.1,0.2-4.6,0.4
	c-0.8,0.1-1.5,0.5-2.2,0.8C170.2,70,169.5,70.3,168.8,70"/>
</svg>
