<?xml version="1.0" encoding="utf-8"?>
<!-- Generator: Adobe Illustrator 26.4.0, SVG Export Plug-In . SVG Version: 6.00 Build 0)  -->
<svg version="1.1" id="Livello_1" xmlns="http://www.w3.org/2000/svg" xmlns:xlink="http://www.w3.org/1999/xlink" x="0px" y="0px"
	 viewBox="0 0 221.8 132.8" style="enable-background:new 0 0 221.8 132.8;" xml:space="preserve">
<style type="text/css">
	.st0{clip-path:url(#SVGID_00000054987909106783091840000002187385533310640823_);fill:#FFF9F8;}
</style>
<g>
	<g>
		<defs>
			<rect id="SVGID_1_" width="221.8" height="132.8"/>
		</defs>
		<clipPath id="SVGID_00000129193069299223881500000002127989010431302836_">
			<use xlink:href="#SVGID_1_"  style="overflow:visible;"/>
		</clipPath>
		<path style="clip-path:url(#SVGID_00000129193069299223881500000002127989010431302836_);fill:#FFF9F8;" d="M189.2,63.4
			c0-0.1,0.1-0.2,0.1-0.2c-0.4-0.2-0.7-0.3-1.1-0.5c0,0.1-0.1,0.1-0.1,0.2C188.5,63,188.8,63.2,189.2,63.4 M147.8,40.9
			c-0.1,0.1-0.1,0.2-0.2,0.2c0.5,0.3,0.9,0.6,1.4,0.9c0-0.1,0.1-0.1,0.1-0.2C148.7,41.6,148.3,41.2,147.8,40.9 M156.9,40.8
			c-0.3-0.6-0.9-0.8-1.4-0.6C155.9,40.6,156.2,40.9,156.9,40.8 M46.7,61.9c-0.6-0.2-1,0-1.3,0.3c-0.1,0.1-0.1,0.3-0.1,0.4
			c0.1,0,0.3,0.1,0.4,0C46,62.4,46.3,62.2,46.7,61.9 M100.8,83.3c0.5-0.7,0.3-1.3-0.4-1.4C100,82.5,100.1,82.8,100.8,83.3
			 M72.5,69.3c-0.7-0.1-1,0.3-1.3,0.7c-0.1,0.1-0.1,0.4,0,0.5c0.1,0.1,0.4,0.1,0.5,0.1C72.3,70.5,72.5,70,72.5,69.3 M108.9,64.6
			c0-0.1-0.1-0.4-0.2-0.7c0-0.1-0.2-0.2-0.3-0.3c-0.1,0-0.3,0.1-0.3,0.3c-0.1,0.3-0.3,0.6-0.2,1c0,0.2,0.3,0.5,0.4,0.7
			c0.2-0.2,0.4-0.3,0.6-0.5C108.9,64.9,108.9,64.8,108.9,64.6 M101.5,64c0,0,0.1,0.1,0.2,0.1c0,0.6,0.2,0.9,0.7,0.7
			c0.4-0.2,0.7-0.6,0.8-0.9c0.1-0.3-0.1-0.7-0.2-1c0-0.1-0.5-0.1-0.6,0C102,63.1,101.8,63.6,101.5,64 M121.1,73.9c0.1,0,0.2,0,0.3,0
			c0.5-0.6,0.4-1.3,0.5-2c0-0.3-0.1-0.7-0.2-1c0-0.1-0.3-0.2-0.4-0.2c-0.1,0-0.3,0.2-0.3,0.3c-0.1,0.4-0.2,0.9-0.1,1.3
			C120.9,72.9,121,73.4,121.1,73.9 M71.3,63.6c0.9-0.2,2.2-2.1,2-2.9C72.2,60.9,71.1,62.6,71.3,63.6 M51.8,103.4
			c0.1,0.8,0.6,1.4,1.1,2c0.3,0.3,0.7,0.6,1.1,0.8c0.2,0.1,0.5,0,0.8,0c-0.1-0.2-0.1-0.5-0.3-0.7c-0.6-0.5-1.2-1-1.8-1.5
			C52.4,103.8,52.1,103.6,51.8,103.4 M142,67.2c0.1,0,0.1,0,0.2,0c0.1-0.2,0.2-0.4,0.2-0.6c0.1-0.6,0.2-1.3,0.1-1.9
			c0-0.4-0.3-0.8-0.6-1.1c-0.1-0.1-0.6-0.2-0.7-0.1c-0.2,0.1-0.4,0.5-0.4,0.7c0.1,0.7,0.3,1.4,0.5,2C141.5,66.5,141.8,66.8,142,67.2
			 M132.1,58.4c-0.7,0-1.3,0.5-1.3,1.1s0.9,1.4,1.6,1.4c0.6,0,1-0.5,1-1.3C133.4,58.9,132.8,58.4,132.1,58.4 M72.5,94.1
			c0-0.8-0.6-1.5-1.3-1.8c-0.6-0.2-1.3,0.1-1.3,0.7c0,0.7,0.4,1.5,1.2,1.8C71.8,95.1,72.5,94.8,72.5,94.1 M55.4,111.9
			c-0.1-1.1-1.4-2.2-2.5-2.1c-0.2,0-0.4,0.3-0.4,0.4c0.1,0.8,0.4,1.6,1.1,2.1c0.3,0.3,0.8,0.5,1.2,0.2
			C55.1,112.4,55.2,112.1,55.4,111.9 M105,99.6C105.1,99.6,105.1,99.6,105,99.6c0.1,0.4,0.1,0.7,0.2,1c0,0.2,0.2,0.4,0.3,0.6
			c0.2-0.1,0.5-0.3,0.7-0.4c0.1-0.1,0.2-0.3,0.2-0.4c0.4-1,0.4-2,0.1-3c-0.1-0.2-0.3-0.5-0.5-0.7c-0.2,0.2-0.5,0.4-0.6,0.7
			C105.3,98,105.2,98.8,105,99.6 M66,112.1c-0.2-0.9-0.1-1.8-0.9-2.5c-0.6-0.5-1-0.4-1.2,0.3c-0.4,1.1,0.3,2.8,1.2,3.4
			c0.4,0.3,0.8,0.1,0.9-0.4C65.9,112.6,65.9,112.3,66,112.1 M159,116.4c0,0,0.1,0,0.1,0.1c0.1,0.5,0.1,0.9,0.2,1.4
			c0.1,0.3,0.3,0.5,0.5,0.8c0.3-0.2,0.7-0.3,0.8-0.5c0.7-1.2,0.5-2.5,0-3.8c-0.2-0.4-0.7-0.4-0.9,0C159.4,115,159.2,115.7,159,116.4
			 M85.2,94.2c0-0.9-0.6-1.8-1.4-2.1c-0.8-0.3-1.5,0.2-1.4,1s0.5,1.3,1.1,1.9c0.3,0.3,0.8,0.4,1.3,0.3C85.1,95,85.3,94.6,85.2,94.2
			 M197.9,56.1c0,0.1-0.1,0.1-0.1,0.2c0.1,0.2,0.2,0.4,0.3,0.5c1.5,1,3.2,1.4,5,1.4c0.4,0,0.6-0.3,0.4-0.7c-0.1-0.2-0.3-0.4-0.6-0.5
			c-0.6-0.2-1.1-0.4-1.7-0.5C200.1,56.3,199,56.3,197.9,56.1 M87.2,72c-0.1,0-0.1,0-0.2,0c-0.2,0.3-0.3,0.5-0.4,0.8
			c-0.2,0.4-0.4,0.9-0.4,1.4c-0.2,1-0.3,2.1-0.4,3.2c0,0.2,0.2,0.4,0.3,0.7c0.2-0.1,0.5-0.2,0.6-0.4c0.2-0.3,0.5-0.6,0.5-0.9
			c0.1-1.4,0.1-2.7,0.2-4.1C87.4,72.3,87.3,72.2,87.2,72 M57.7,55.4c0.4-0.1,0.7-0.1,1-0.2c0.5-0.3,1-0.6,1.5-1
			c0.9-0.8,1.7-1.7,2.8-2.3c0.4-0.3,0.8-0.7,1.1-1.1c0.2-0.4-0.1-0.8-0.6-0.7c-0.4,0.2-0.9,0.4-1.2,0.8c-0.8,1-1.7,1.9-2.8,2.7
			C58.6,53.9,58,54.4,57.7,55.4 M48.2,52.7c0.2,0,0.3,0.1,0.4,0.1c1.1-0.4,2.2-0.8,3.3-1.2c0.9-0.4,1.8-1,2.2-1.9
			c0.1-0.2,0-0.5,0-0.7c-0.2,0-0.5,0-0.6,0.1c-1,0.5-1.9,1.1-2.9,1.7C49.8,51.2,48.9,51.8,48.2,52.7 M109.8,103.2c0,0.1,0,0.2,0,0.2
			c0.2,0.3,0.3,0.6,0.5,0.9c0.2-0.3,0.4-0.5,0.6-0.8c0.3-0.7,0.4-1.4,0.8-2c0.7-1.1-0.1-2.1-0.9-2.7c-0.3-0.2-0.7-0.3-0.9,0
			c-0.2,0.2-0.3,0.6-0.2,0.9c0.2,0.8,0.6,1.5,0.5,2.3C110,102.4,109.9,102.8,109.8,103.2 M148.8,107.9c-0.3,0.2-0.6,0.3-0.7,0.4
			c-0.9,1-1,2.1-0.3,3.2c0.6,0.9,1.4,0.8,2-0.1c0.5-0.9,0.4-1.8-0.1-2.7C149.6,108.4,149.1,108.2,148.8,107.9 M136.7,120.8
			c-0.1-0.3-0.3-0.9-0.5-1.4c-0.2-0.4-0.5-0.6-1-0.6s-0.7,0.2-0.9,0.6c-0.3,0.6-0.3,1.1-0.1,1.7c0.2,0.7,0.4,1.3,0.7,2
			c0.2,0.5,0.7,0.5,1,0.1C136.6,122.6,136.7,121.9,136.7,120.8 M83.3,68c-0.1,0-0.2-0.1-0.2-0.1c-0.2,0.3-0.6,0.6-0.7,0.9
			c-0.4,0.9-0.7,1.8-1.1,2.6c-0.4,1-0.9,2.1-1.2,3.1c-0.1,0.2,0.1,0.7,0.3,0.9c0.2,0.1,0.7,0,0.9-0.2c0.3-0.4,0.6-0.9,0.8-1.3
			c0.3-1.1,0.5-2.2,0.7-3.4C82.9,69.7,83.1,68.9,83.3,68 M78.7,63.1c-0.1-0.1-0.2-0.4-0.3-0.4s-0.3,0-0.5,0.1s-0.3,0.3-0.4,0.5
			c-0.7,1.1-1.5,2.3-2.2,3.4c-0.5,0.8-0.8,1.7-1.2,2.5c-0.1,0.1,0,0.5,0.1,0.5c0.1,0.1,0.5,0,0.6-0.1c0.4-0.4,0.9-0.7,1.2-1.2
			c0.8-1.5,1.6-3,2.4-4.5C78.5,63.7,78.6,63.4,78.7,63.1 M72.3,110.6c-0.1-0.3-0.4-0.6-0.6-1c-0.5-0.8-1-1.5-1.5-2.2
			c-0.2-0.2-0.6-0.4-0.9-0.5c-0.2,0-0.5,0.4-0.5,0.6c-0.5,1.3,1,3.8,2.4,4.1C71.7,111.8,72.3,111.3,72.3,110.6 M145.5,67.5
			L145.5,67.5c-0.1,0.2-0.1,0.4-0.1,0.5c0.2,1.4,0.8,2.6,1.6,3.8c0.4,0.6,0.9,1.1,1.5,1.6c0.2,0.1,0.6,0.2,0.8,0s0.4-0.5,0.3-0.8
			c-0.1-0.4-0.3-0.8-0.5-1.1c-0.4-0.6-0.8-1.2-1.3-1.8C147,69,146.2,68.3,145.5,67.5 M126.7,114c-0.1-0.4-0.2-0.9-0.3-1.3
			c-0.2-0.5-0.6-0.8-1.1-0.9c-0.5-0.1-0.8,0.3-1,0.7c-0.5,1.1-0.9,2.2-1.2,3.3c-0.2,0.7,0.2,1.1,0.8,1
			C125.5,116.5,126.7,115.8,126.7,114 M178.3,64.6c0-0.1,0-0.2-0.1-0.3c-0.6-0.5-1.1-1-1.7-1.4c-1.4-0.8-2.8-1.6-4.3-2.3
			c-0.1-0.1-0.4-0.1-0.5,0c-0.1,0.2-0.1,0.4-0.1,0.6c0.2,0.3,0.4,0.7,0.7,1c1,0.8,1.9,1.6,3,2.3c0.6,0.4,1.3,0.7,2,1
			C177.8,65.5,178.3,65.1,178.3,64.6 M66,58.4L66,58.4c0.2,0.1,0.3,0,0.4,0c1.3-0.9,2.5-1.9,3.8-2.8c1-0.7,1.7-1.7,2.3-2.8
			c0.2-0.4,0.3-0.8-0.1-1.1c-0.4-0.3-0.8-0.2-1.1,0c-0.5,0.4-1.1,0.8-1.5,1.3c-1.2,1.5-2.3,3-3.4,4.6C66.3,57.8,66.2,58.1,66,58.4
			 M67.9,123.6c1,0,1.3-0.4,1-1.1c-0.2-0.5-0.6-1-1-1.5c-0.9-1.1-2-2-3.5-2.3c-0.5-0.1-1,0.2-1.2,0.6c-0.1,0.2,0.1,0.6,0.3,0.9
			c0.6,0.7,1.2,1.4,1.8,2.1C66.1,123,67,123.5,67.9,123.6 M60,106.8c-0.1-0.3-0.1-0.5-0.2-0.7c-0.4-1.2-1.4-1.8-2.5-2.2
			c-0.3-0.1-0.7,0-0.9,0.1c-0.5,0.3-0.9,1.8-0.6,2.2c0.5,0.8,1,1.5,1.7,2.2s1.5,0.6,1.9-0.1C59.7,107.9,59.9,107.3,60,106.8
			 M116.5,97c-0.1-1.1-0.2-2.2-1.1-3.1c-0.3-0.3-0.7-0.5-1-0.3c-0.2,0.1-0.4,0.6-0.4,0.9c-0.1,0.7,0,1.3-0.1,2
			c-0.1,0.8-0.2,1.6-0.3,2.4c-0.1,0.7,0.4,1.2,1.1,1.4c0.6,0.1,1.2-0.3,1.4-1C116.2,98.5,116.3,97.7,116.5,97 M158,105.1
			c0,0.3,0,0.6,0,0.9c0.2,1.3,0.7,1.8,1.7,1.3c0.4-0.2,0.9-0.8,0.9-1.2c0.2-1.6,0.2-3.3,0.3-4.9c0-0.6-0.6-0.9-1.2-0.5
			c-0.3,0.2-0.5,0.5-0.7,0.7C158.2,102.5,158,103.8,158,105.1 M93.6,107.2c0.9-0.6,1.6-1.1,2.3-1.6s1-1,0.6-1.8
			c-0.6-1.1-1.3-2.2-2-3.3c-0.4-0.6-1.3-0.5-1.5,0c-0.1,0.3-0.2,0.6-0.1,0.9c0,0.8,0.2,1.6,0.2,2.4c0.1,0.7,0,1.5,0.1,2.2
			C93.3,106.5,93.5,106.9,93.6,107.2 M51.1,115.2c0.2,2,1.3,3.6,3.1,4.7c0.7,0.4,1.3,0.3,1.8-0.2c0.7-0.7,0.6-1.5-0.3-2.4
			c-0.9-0.9-1.6-1.9-2.5-2.8c-0.3-0.3-0.8-0.6-1.2-0.6c-0.3,0-0.5,0.5-0.8,0.9C51.1,114.9,51.1,115,51.1,115.2 M90,108.1
			C90,108,90.1,108,90,108.1c-0.1-0.6-0.2-1.2-0.5-1.8c-0.5-1.1-1-2.1-1.4-3.2c-0.1-0.3-0.2-0.6-0.4-0.9c-0.3-0.5-0.8-0.6-1.1-0.1
			s-0.6,1.1-0.5,1.6c0.1,1.2,0.4,2.3,0.8,3.5c0.2,0.8,0.5,1.5,0.9,2.3c0.3,0.5,0.8,0.6,1.3,0.4c0.3-0.1,0.5-0.4,0.6-0.6
			C90,108.9,90,108.5,90,108.1 M93.3,78.6c0-1.4-0.7-2.5-1.1-3.6c-0.2-0.5-0.4-1-0.6-1.4c-0.1-0.2-0.3-0.3-0.5-0.4
			c-0.1,0-0.3,0.2-0.4,0.4c-0.2,0.7-0.5,1.4-0.7,2.2c-0.3,1.4-0.4,2.7,0.2,4.1c0.4,0.9,1.3,1,2,0.7C93,80,93.4,79.3,93.3,78.6
			 M152,62.3c-0.1,0-0.1,0.1-0.2,0.1c0.1,0.3,0.1,0.7,0.2,1c0.4,1.2,0.8,2.4,1.1,3.7c0.4,1.7,1.2,3.1,2.6,4.1
			c0.6,0.5,1.1,0.3,1.3-0.4c0.3-1.2,0.1-2.2-0.6-3.2c-1.1-1.5-2.3-2.9-3.5-4.4C152.7,63,152.4,62.7,152,62.3 M69.5,96.4
			c-0.1-0.2-0.2-0.7-0.5-1.1c-0.7-1.1-1.5-2.1-2.3-3.1c-0.5-0.7-1-1.4-1.6-2c-0.5-0.6-1.3-0.3-1.5,0.4c-0.2,1,0,2,0.6,2.8
			c0.6,0.9,1.4,1.6,2.2,2.4c0.6,0.5,1.3,1,2,1.4C69.1,97.5,69.5,97.2,69.5,96.4 M60.9,112.4c-0.2-0.2-0.3-0.5-0.5-0.6
			s-0.5,0-0.6,0.2c-0.5,0.5-1,1-1.4,1.7c-0.3,0.5-0.5,1.2-0.6,1.8c-0.1,0.8-0.2,1.8,0.2,2.5c0.6,1.1,1.5,2.1,2.4,3
			c0.4,0.4,1,0.3,1.3,0s0.6-0.7,0.8-1.1c0.1-0.2,0-0.5-0.1-0.6c-0.2-0.3-0.5-0.6-0.8-0.9c-0.6-0.8-1.2-1.5-1.6-2.3
			c-0.5-1-0.6-2,0.3-2.9C60.6,113,60.7,112.7,60.9,112.4 M107.2,109.7c-0.1-0.7-0.2-1.3-0.3-2c-0.1-0.6-0.3-1.2-0.5-1.8
			c-0.1-0.1-0.3-0.3-0.5-0.3c-0.7-0.1-0.9,0.4-1.2,0.8c-0.7,0.9-1.3,1.9-1.9,2.9c-0.3,0.6-0.5,1.2-0.3,1.9c0.3,0.8,1.3,1.6,2,1.5
			C105.5,112.5,107.4,110.7,107.2,109.7 M127.1,79.4c0,1,0.2,1.6,0.7,2.2c0.6,0.8,1.5,0.8,1.9-0.1c0.6-1.4,1.4-2.7,1.1-4.3
			c-0.2-1-0.4-2.1-0.7-3.1c-0.1-0.2-0.3-0.6-0.5-0.6s-0.6,0.2-0.7,0.4C127.8,75.7,127.4,77.7,127.1,79.4 M116.8,106.1
			C116.8,106.1,116.9,106.1,116.8,106.1c0,0.1,0,0.2,0,0.3c0,0.8,0.5,1.1,1.2,0.7c1-0.5,1.7-1.3,2-2.3c0.4-1.4,0.8-2.9,1.2-4.3
			c0.2-0.8-0.4-1.5-1.2-1.2c-1.2,0.4-2.3,0.9-2.6,2.2c-0.1,0.3-0.1,0.7-0.1,1C117.2,103.7,117,104.9,116.8,106.1 M61.5,68.4
			c0,1.1,0.2,1.3,0.9,1.6c0.6,0.3,1.2,0.1,1.6-0.3c0.4-0.4,0.8-0.9,1.1-1.4c0.8-1.3,1.6-2.7,2.4-4.1c0.4-0.8,0.9-1.5,1.3-2.3
			c0.1-0.1,0-0.3,0-0.5c-0.2,0-0.5-0.1-0.7,0c-0.5,0.2-0.9,0.5-1.3,0.9c-1.6,1.6-3.2,3.2-4.7,4.8C61.8,67.5,61.7,68.1,61.5,68.4
			 M129.5,110.2c-0.2-0.6-0.2-1.1-0.4-1.6c-0.8-1.8-1.7-3.6-1.8-5.7c-0.1-0.8-0.6-1-1.3-0.6c-1.1,0.6-2,2.6-0.8,4.2
			c0.7,0.8,1.3,1.8,1.7,2.8c0.3,0.7,0.4,1.5,0.7,2.2c0.2,0.6,0.8,0.7,1.1,0.2C129.1,111.3,129.3,110.7,129.5,110.2 M93.1,51
			c0.5-0.1,0.9-0.1,1.3-0.2c0.8-0.1,1.3-0.7,1.3-1.2c0-0.6-0.3-0.9-1.2-1c-1-0.2-1.9-0.3-2.9-0.3c-1.3-0.1-2.4-0.6-3.4-1.4
			c-0.6-0.6-1.3-1.1-2-1.5c-0.3-0.2-0.6-0.2-0.7,0.3C85.4,47,86,48,86.8,48.8C88.7,50.3,90.9,50.8,93.1,51 M132.5,125.8
			c0-0.2,0-0.5,0-0.7s-0.1-0.4-0.1-0.5c-0.2-0.6-0.7-0.9-1.4-0.7s-1.5,0.5-2.2,0.8c-0.5,0.2-1,0.3-1.5,0.5c-0.4,0.2-0.8,0.6-0.9,1
			c-0.2,1.2,0.4,2.2,1.7,2.8c1.1,0.5,2.9,0.1,3.5-0.4C132.5,127.8,132.5,126.8,132.5,125.8 M162.9,68.5l0.1-0.1c0.6,0,1-0.5,0.7-1
			c-0.1-0.3-0.3-0.5-0.5-0.7c-0.6-0.6-1.3-1.2-1.8-1.8c-0.7-0.9-1.3-1.9-2-2.9c-0.9-1.2-1.7-2.4-2.6-3.6c-0.2-0.2-0.4-0.4-0.6-0.6
			c-0.3-0.3-0.6-0.2-0.6,0.2c0,0.6-0.1,1.2,0.2,1.7c0.8,1.6,1.6,3.2,2.5,4.8c0.3,0.5,0.7,1,1.2,1.5c0.6,0.6,1.3,1,1.9,1.5
			C161.9,67.8,162.4,68.2,162.9,68.5 M98.8,96.9c0,0.3,0,0.4,0,0.5s0,0.2,0.1,0.3c0.6,1.8,0.7,3.6,0.1,5.5c-0.3,0.8-0.3,1.6,0.2,2.4
			c0.7,1,2.3,1.4,2.9,0.1c0.8-1.6,0.9-3.1,0.2-4.7c-0.6-1.5-1.7-2.6-2.8-3.7C99.4,97.1,99.1,97,98.8,96.9 M146.5,62.4L146.5,62.4
			c0,0.4,0.1,0.9,0.2,1.3c0.5,1.1,1.1,2.1,1.6,3.2c0.5,0.9,0.9,1.9,1.4,2.8c0.5,0.9,1,1.8,2.2,2.2c0.7,0.2,1.1,0,1.3-0.6
			c0.3-0.9-0.1-1.6-0.6-2.3c-1.1-1.5-2.3-3-3.2-4.7c-0.4-0.8-1-1.6-1.6-2.3c-0.2-0.2-0.6-0.4-0.9-0.5
			C146.8,61.7,146.6,62,146.5,62.4L146.5,62.4 M85.8,112.3c-0.2-0.5-0.3-0.9-0.6-1.4c-0.4-0.6-0.9-1-1.2-1.6c-0.6-1-1.1-2-1.5-3.1
			c-0.5-1.1-0.9-1.2-1.7-0.3c-0.5,0.6-1,1.2-1.4,1.9c-0.5,0.7-0.4,1.5,0.3,2.1c0.6,0.5,1.3,1,1.9,1.4c0.9,0.6,1.9,1.2,2.9,1.7
			C85.2,113.4,85.7,113.1,85.8,112.3 M131.2,115.9c0,0.2,0,0.4,0,0.6c0,0.8,0.5,1.3,1.3,1.2c1-0.1,1.8-0.6,2.4-1.3
			c1.4-2,1.2-4.1,0.5-6.2c-0.2-0.7-0.9-0.8-1.5-0.2C132.3,111.6,131.3,113.6,131.2,115.9 M64.4,98.7c-1.1,0-1.3,0.2-1,1.1
			c0.3,0.7,0.6,1.5,1.1,2.1c0.7,1.1,1.7,1.6,3.1,1.2c0.4-0.1,0.9,0,1.3,0.1c0.7,0.2,1.4,0.5,2.1,0.6c0.4,0.1,0.8-0.1,1.1-0.3
			s0.2-0.7,0-1c-0.2-0.4-0.5-0.7-0.8-1c-0.6-0.5-1.2-1.1-1.9-1.5c-0.5-0.3-1-0.5-1.5-0.7c-0.5-0.1-1-0.1-1.4-0.2
			C65.7,98.9,65,98.8,64.4,98.7 M60.8,56.4c0-0.1-0.1-0.1-0.1-0.2c-0.2,0-0.4-0.1-0.6,0c-0.6,0.3-1.2,0.5-1.7,0.8
			c-2.1,1.2-4.2,2.5-6.3,3.8c-0.9,0.6-1.8,1.1-2.3,2.2c-0.4,0.9,0,1.6,1,1.5c0.4,0,0.9-0.2,1.2-0.4c1-0.6,1.9-1.3,2.8-2
			c1.4-0.9,2.8-1.8,3.8-3.1C59.4,58.2,60.1,57.3,60.8,56.4 M205.7,31.7C205.7,31.7,205.7,31.8,205.7,31.7c1-0.1,2.1-0.2,3.1-0.4
			c1.1-0.2,2.2-0.5,3.3-0.8c1.9-0.5,3.7-1.4,5.1-2.7c0.2-0.2,0.3-0.7,0.3-1c0-0.4-0.5-0.6-0.9-0.7c-1.3-0.1-2.5,0.2-3.6,0.7
			c-2,1-4,2.1-5.9,3.2c-0.6,0.3-1.2,0.8-1.9,1.2c-0.1,0.1-0.2,0.3-0.3,0.5c0.2,0.1,0.3,0.1,0.5,0.2
			C205.5,31.8,205.6,31.7,205.7,31.7 M16.4,26.5c0.3-0.1,0.6-0.2,0.8-0.3c-0.1-0.2-0.2-0.4-0.3-0.6c-0.1-0.1-0.2-0.3-0.3-0.3
			c-0.9-0.6-1.8-1.1-2.8-1.7c-1.9-1.1-3.4-2.7-4.9-4.1c-0.7-0.7-1.6-1.3-2.7-1.2c-0.5,0-1,0.5-0.9,1c0.3,0.6,0.6,1.3,1,1.8
			c0.7,0.8,1.5,1.4,2.4,2c0.8,0.6,1.7,1.3,2.7,1.7c1.1,0.5,2.4,0.9,3.6,1.4C15.4,26.2,15.9,26.3,16.4,26.5 M54.2,31.8
			c-0.3-0.1-0.6-0.3-0.9-0.3c-1.7-0.2-3.5-0.3-5.2-0.5c-1.8-0.1-3.6-0.1-5.4-0.3c-1.4-0.1-2.9-0.4-4.2-0.8c-1-0.3-1.9-0.8-2.9-1.1
			c-1.5-0.6-3-1.1-4.5-1.7c-1.1-0.4-2.3-0.9-3.4-1.3c-0.3-0.1-0.8-0.3-1.2,0c1.7,2,4,2.8,6.4,3.5c1.7,0.6,3.4,0.8,5.1,1.4
			c2.4,0.9,4.9,1.4,7.5,1.4c0.8,0,1.5,0.1,2.3,0.2c1.6,0.3,3.1,0.3,4.7,0.1C53,32.4,53.7,32.4,54.2,31.8 M94.8,129.5
			c0.7-0.1,1.3-0.1,2-0.2c0.2,0,0.4-0.2,0.6-0.3c-0.1-0.2-0.2-0.4-0.3-0.5c-0.6-0.4-1.2-0.7-1.8-1.1c-1.8-0.9-3.1-2.3-4.4-3.7
			c-0.4-0.4-0.6-0.9-1.1-1.1c-1.7-0.5-2.6,0.6-2.6,1.8c0.1,1.8,1.1,3.1,2.7,4C91.3,129.3,93.1,129.4,94.8,129.5 M113.4,110.4
			c0.1,0,0.1,0,0.2,0c-0.3-1-0.5-2-0.9-3c-0.1-0.3-0.6-0.5-0.9-0.8c-0.2,0.3-0.5,0.6-0.7,0.9c-0.4,1-0.8,2-1.6,2.8
			c-0.7,0.6-1.1,1.4-1.3,2.3c-0.2,0.7-0.4,1.4-0.6,2.1c-0.2,0.7-0.5,1.3-0.7,1.9c-0.1,0.3,0,0.7,0.2,0.8c0.2,0.2,0.6,0.2,0.9,0.1
			c0.3-0.1,0.6-0.2,0.9-0.5c1-0.8,1.9-1.7,2.8-2.6C112.7,113.4,113.5,112,113.4,110.4 M24.2,24.7c-0.8-0.7-1.5-1.4-2.2-2
			c-0.5-0.4-1-0.7-1.5-0.9c-3.3-1.3-6-3.4-8.1-6.1c-0.8-1-1.7-1.9-2.6-2.7c-0.5-0.5-1.1-0.3-1.2,0.3s0,1.3,0.1,2
			c0.4,1.9,1.5,3.3,3.4,4.2c1.6,0.7,3.2,1.6,4.8,2.4c1.5,0.8,3,1.7,4.5,2.4C22.2,24.5,23.1,24.7,24.2,24.7 M78.6,103.3
			c0.3-0.1,0.6-0.1,0.9-0.3c0.6-0.5,1.2-1.1,1.8-1.6c1-0.9,0.7-1.5,0.2-2.2c-0.9-1.2-1.9-2.3-3.5-2.8c-0.8-0.2-1.6-0.7-2.4-1
			c-0.7-0.3-1.5,0.2-1.6,0.8c-0.1,1.2,0,2.4,0.5,3.5s1.3,2.1,2.3,3C77.3,103,77.9,103.3,78.6,103.3 M195.1,47.4v0.2
			c0.6,0.2,1.2,0.5,1.9,0.6c2,0.4,4.1,0.7,6.1,1.1c1.9,0.3,3.8,0.5,5.7,0.2c1.2-0.2,2.4-0.5,3.3-1.3c0.7-0.7,0.6-1.6-0.3-2.1
			c-0.9-0.6-1.9-0.5-2.9-0.4c-1.7,0.2-3.3,0.6-4.9,0.9c-2.5,0.5-5.1,0.7-7.6,0.7C195.9,47.2,195.5,47.4,195.1,47.4 M116.9,119.4
			c0.7,0,1.2-0.3,1.5-1c0.4-0.9,0.7-1.9,1.2-2.7c0.6-1.1,1.4-2.1,2.1-3.2c0.7-1.1,1.1-2.2,0.8-3.5c-0.2-0.8-0.8-1.1-1.5-0.8
			c-0.4,0.2-0.8,0.5-1.3,0.7c-1.9,1.1-3.1,2.7-3.7,4.7c-0.3,0.9-0.6,1.9-0.9,2.8c-0.1,0.4-0.4,0.9-0.3,1.3
			C114.9,118.6,116,119.4,116.9,119.4 M177.9,52.7c0,0.1-0.1,0.2-0.1,0.3c0.2,0.2,0.3,0.4,0.6,0.6c1,0.6,2.1,1.3,3.1,1.8
			c2.1,1.1,4.2,2.1,6.3,3c2.3,1.1,4.5,2.4,7,3.1c1.3,0.3,2.5,0.7,3.9,0.4c0.7-0.1,1-0.8,0.5-1.3c-0.3-0.3-0.7-0.6-1.1-0.8
			c-2.8-1.2-5.6-2.3-8.4-3.4c-2.9-1.2-5.8-2.5-9-3.2C179.7,53,178.8,52.9,177.9,52.7 M138.6,123.9
			C138.5,123.9,138.5,123.9,138.6,123.9c-0.1,0.5-0.1,0.9,0,1.4c0,1,1,1.8,2.2,1.5c2.4-0.6,3.6-3.9,2.7-5.9
			c-0.7-1.6-1.1-3.3-1.7-4.9c-0.3-0.9-0.7-1.9-1.1-2.7c-0.1-0.3-0.6-0.4-1-0.5c-0.1,0.3-0.4,0.5-0.4,0.8c-0.1,0.5-0.1,1-0.1,1.5
			c0,1.7-0.2,3.4-0.5,5c-0.1,0.6-0.2,1.3-0.2,1.9C138.4,122.6,138.5,123.3,138.6,123.9 M88.2,116.9c0.1,1.9,0.8,3.8,1.7,5.5
			c0.1,0.1,0.2,0.2,0.4,0.3c0.5,0.2,1.1,0.5,1.7,0.6c1.2,0.2,2.2-0.2,2.1-1.5c-0.1-0.9-0.3-1.8-0.3-2.8c-0.1-1.3,0-2.6,0-3.9
			c0-0.6,0.1-1.1,0.1-1.7c-0.1-1.1-1-1.7-2-2.1c-0.6-0.3-1-0.1-1.4,0.5c-0.3,0.6-0.6,1.3-1.1,1.8C88.6,114.6,88.1,115.6,88.2,116.9
			 M43.7,61.4c0.4-0.1,0.8-0.2,1.1-0.4c0.7-0.3,1.4-0.7,2.1-1.1c2-1.1,4-2.2,6-3.3c3-1.8,5.8-4,8.3-6.5c0.6-0.6,1-1.4,1.5-2.1
			c0.1-0.1,0-0.4,0.1-0.6c-0.2,0-0.4,0-0.6,0.1c-0.2,0.1-0.4,0.2-0.6,0.3c-1.9,1.1-3.8,2.1-5.6,3.2c-0.6,0.3-1.2,0.6-1.8,0.9
			c-2.2,1.3-3.9,3.2-5.8,4.7c-1.1,0.8-2.2,1.6-3.3,2.4c-0.6,0.4-1.2,0.8-1.8,1.3c-0.2,0.1-0.2,0.5-0.2,0.7
			C43.1,61.3,43.5,61.3,43.7,61.4 M113.8,118.6c0-0.9-0.1-1-0.9-1.3c-0.5-0.2-1,0-1.3,0.4c-0.8,0.9-1.6,1.9-2.3,2.8
			c-1.3,1.9-1,3.9,0.1,5.8c0.8,1.3,2.3,1.9,3.7,2.4c0.4,0.1,1,0.2,1.4,0.1c1-0.2,1.7-1,1-2.7C114.5,123.7,113.3,121.3,113.8,118.6
			 M117.6,127.1c0,0.5,0.2,1,0.7,1.1c0.3,0,0.6-0.4,0.9-0.6l0,0c0.2-0.5,0.5-0.5,0.9-0.2c0.3,0.3,0.7,0.5,1,0.7
			c1,0.6,1.8,0.5,2.5-0.4c0.8-1,1.5-2.1,2.1-3.2c1-1.7,2-3.3,2.4-5.2c0.2-0.9-0.3-1.5-1.3-1.2c-2.2,0.7-4,2-5.8,3.3
			c-0.9,0.7-1.4,1.7-1.8,2.8c-0.2,0.5-0.3,0.9-0.9,1.2C118,125.8,117.6,126.4,117.6,127.1 M193.2,43c0,0.1,0,0.1,0,0.2
			c0.2,0.1,0.4,0.2,0.6,0.3c0.7,0.1,1.4,0.3,2.1,0.4c1.5,0.2,3.1,0.5,4.6,0.5c1.6,0,3.2-0.2,4.8-0.3c1.4-0.1,2.9-0.1,4.3-0.1
			c2-0.1,3.6-0.9,4.8-2.4c0.8-1,0.6-1.7-0.6-2c-0.2,0-0.3,0-0.5,0c-1.6,0.2-3.3,0.4-4.9,0.6c-1.5,0.3-3,0.6-4.5,0.9
			c-1.4,0.3-2.9,0.5-4.4,0.8c-1.4,0.2-2.9,0.5-4.3,0.7C194.6,42.7,193.9,42.9,193.2,43 M88.8,31.6c-0.1-0.4-0.2-0.8-0.4-1.1
			c-1.1-1.1-2.2-2.3-3.4-3.3c-1.8-1.4-4-1.8-6.1-2.4c-0.3-0.1-0.8,0.3-1.1,0.5c-0.3,0.3-0.3,0.7,0,1s0.6,0.5,0.9,0.7
			c1.2,0.7,2.3,1.5,3.2,2.6c1.3,1.6,1.7,3.5,2,5.4c0.3,1.5,0.6,2.9,0.9,4.4c0.1,0.3,0.4,0.6,0.6,0.9c0.2-0.3,0.5-0.6,0.7-0.9
			c0.7-1.8,1.4-3.6,2.1-5.4C88.3,33.3,88.5,32.4,88.8,31.6 M174.8,46.1c0,0.1,0,0.1-0.1,0.2c0.2,0.2,0.4,0.4,0.7,0.5
			c1.1,0.4,2.2,0.8,3.3,1.1c4.5,1.4,9,2.7,13.4,4.1c1.1,0.4,2.2,0.9,3.4,1.2c1.5,0.4,3.1,0.7,4.6,1c1.5,0.4,3,0.7,4.6,0.7
			c0.9,0,1.8,0.2,2.8,0.2c0.7,0,1.4,0,2.1-0.1c0.5-0.1,0.9-0.5,0.9-1s-0.2-0.9-0.8-1.1c-0.5-0.2-1.1-0.4-1.6-0.4
			c-1.5-0.1-3-0.1-4.6-0.3c-1.4-0.1-2.7-0.2-4.1-0.5c-2-0.4-3.9-0.8-5.9-1.2c-3-0.7-5.9-1.4-8.9-2.1c-2.8-0.7-5.6-1.4-8.3-2.1
			C175.9,46.2,175.3,46.2,174.8,46.1 M136.3,77.3c0.3,0.2,0.4,0.3,0.6,0.3c0.5,0.3,1,0.7,1.6,1c0.8,0.3,1.3-0.1,1.3-0.9
			c0-1-0.1-2.1-0.2-3.1c-0.1-0.9-0.2-1.9-0.5-2.7c-0.5-1.5-1.2-3-1.9-4.5c-0.4-0.8-1.1-1.3-2-1.6c-0.6-0.2-1.1,0-1.3,0.5
			c-0.1,0.5-0.2,1.1-0.1,1.6c0.2,1.4,0.6,2.8,0.8,4.2c0,0.1-0.1,0.4-0.2,0.5c-0.7,0.2-0.9,0.7-1,1.4c-0.1,0.9-0.2,1.8-0.4,2.7
			c-0.4,1.9,0.1,3.6,1.1,5.2c0.4,0.7,1.2,0.8,1.6,0.1c0.1-0.2,0.2-0.3,0.2-0.5c0.1-0.8,0.2-1.7,0.3-2.5
			C136.1,78.3,136.2,77.9,136.3,77.3 M214.7,19.2c0-0.5,0.1-1-0.6-1.2c-0.6-0.2-0.9,0.2-1.3,0.5c-1,0.7-2,1.3-2.9,2.1
			c-1.4,1.1-2.8,2.3-4.2,3.3c-1.8,1.3-3.8,2.4-5.9,3.2c-1.4,0.5-2.8,0.9-4.1,1.5c-1.6,0.7-3.1,1.6-4.7,2.4c-0.2,0.1-0.3,0.3-0.5,0.5
			c0.3,0.1,0.5,0.1,0.8,0.1c0.1,0,0.1,0,0.2,0c1.7-0.3,3.4-0.6,5.1-1c3.2-0.9,6.4-2,9.6-3.1c2.6-0.9,5.1-2.1,6.9-4.3
			C214,22,214.6,20.7,214.7,19.2 M79.5,124c0.1,0.3,0.1,0.6,0.2,0.9c0.4,1,1,1.9,2,2.5c0.6,0.4,1.3,0.7,2.1,0.4
			c1.5-0.4,2.4-2.2,1.9-3.7c-0.2-0.6-0.4-1.1-0.7-1.7c-0.6-1.3-1.1-2.6-0.6-3.9c0.4-1.4-0.3-2.5-1.3-3.2c-0.9-0.6-1.8-1.1-2.7-1.6
			c-1.5-1-3-1.9-4.5-2.9c-0.1-0.1-0.2-0.2-0.3-0.2c-0.4-0.1-0.8-0.3-1,0.1c-0.1,0.2-0.2,0.7,0,0.9c0.4,0.6,0.9,1.2,1.4,1.8
			c0.9,1,1.6,2.2,2.6,3.1c1.6,1.5,1.9,3.2,1.5,5.1C79.8,122.3,79.7,123.2,79.5,124 M43.1,38.5c0-0.1,0-0.2,0-0.2
			c-0.2-0.1-0.4-0.1-0.6-0.2c-2.1-0.6-4.3-0.6-6.4-0.9c-0.9-0.1-1.8-0.1-2.6-0.2c-1.2-0.1-2.4-0.3-3.7-0.4c-1.1-0.1-2.2-0.2-3.3-0.4
			c-1.7-0.3-3.4-0.7-5.1-1c-3-0.6-6-1.4-8.8-2.6c-1.3-0.5-2.5-1.1-3.8-1.6c-1.1-0.4-2.2-0.7-3.4-0.8c-1-0.1-1.6,0.7-1.1,1.6
			c0.2,0.3,0.4,0.6,0.6,0.8c1.5,1.5,3.5,2.3,5.4,3.2c1.7,0.8,3.7,0.9,5.5,1c2,0.1,4,0.1,6,0.3c1.5,0.1,3,0.2,4.5,0.5
			c3.2,0.7,6.4,1.1,9.6,1.3c1.8,0.1,3.6,0,5.4-0.1C41.9,38.9,42.5,38.7,43.1,38.5 M187.7,39.1c0,0.1,0,0.2,0,0.3
			c0.6,0.1,1.2,0.2,1.8,0.2c1,0,2-0.1,3.1-0.2c1.7-0.1,3.5-0.2,5.2-0.3c1.4-0.1,2.8-0.1,4.2-0.4c1.8-0.3,3.6-0.6,5.3-1.1
			c2-0.5,4-1.1,6.1-1.4c1.5-0.2,2.9-0.8,4-1.7c0.5-0.4,0.9-1,0.8-1.7c-0.1-0.7-0.6-1.2-1.4-1.2c-0.9-0.1-1.9-0.1-2.8,0
			c-1.9,0.3-3.7,0.8-5.5,1.5c-1.3,0.6-2.7,0.9-4.1,1.3c-1.5,0.4-3.2,0.5-4.6,1c-2.7,1-5.5,1.9-8.3,2.6
			C190.2,38.4,189,38.7,187.7,39.1 M133.8,45.7c-0.2,0.5-0.3,1.2-0.7,1.8c-0.7,1.3-2.1,1.6-3.5,1.9c-1,0.2-2,0.5-2.3,1.6
			c-0.2,0.7,0.2,1.5,0.9,1.6c0.8,0.1,1.6,0,2.3-0.1c1.4-0.3,2.6-0.8,3.4-1.9c0.4-0.5,0.7-1,0.9-1.6c0.5-0.9,1-1.8,1.3-2.7
			c0.6-1.6,0.2-3.3-0.2-4.9c-0.3-1.4-0.8-2.7-0.5-4.1c0.4-1.8,1-3.4,1.9-5c0.8-1.4,1.9-2.5,2.9-3.7c0.2-0.2,0.4-0.7,0.3-0.8
			c-0.2-0.3-0.6-0.5-0.9-0.5c-0.6,0-1.2,0.1-1.7,0.2c-1.5,0.2-2.8,0.8-3.5,2.1c-0.3,0.6-0.7,1.2-1,1.9c-0.6,1.5-1.2,2.9-1.1,4.6
			c0.1,1.8,0.2,3.6,0.4,5.4c0.1,0.9,0.4,1.8,0.7,2.6C133.6,44.5,133.7,45,133.8,45.7 M30.4,33.7L30.4,33.7c0.1-0.1,0.3,0,0.4-0.1
			c0.4-0.1,0.7-0.2,1.1-0.3c-0.3-0.3-0.5-0.6-0.8-0.8c-1.3-0.5-2.6-1-3.9-1.5c-1-0.4-2-0.8-3-1.1c-0.9-0.3-1.9-0.4-2.8-0.7
			c-1.7-0.5-3.4-1-5.1-1.6c-1.3-0.4-2.7-0.8-4-1.3c-1.8-0.8-3.5-1.7-5.2-2.6c-0.6-0.3-1.3-0.6-2-0.9c-0.7-0.2-1.2,0-1.3,0.6
			c-0.3,1.2-0.1,2.4,0.9,3.2c1.7,1.5,3.5,2.9,6,3.3c2.9,0.5,5.8,1.4,8.7,2.1c2,0.5,4.1,0.9,6.2,1C27.2,33.3,28.8,33.6,30.4,33.7
			 M105.8,129.9c0.9,0,1.8-0.1,2.2-0.9c0.5-0.8,0.1-1.6-0.3-2.4c-0.3-0.5-0.6-1-0.9-1.5c-0.8-1.5-1.6-3.2-2.5-4.6
			c-1.3-2.1-2.5-4.2-3.4-6.5c-0.4-1-0.7-2.1-1.6-2.8c-0.5-0.4-1.1-0.4-1.3,0.3s-0.4,1.4-0.6,2.1c-0.4,2-0.9,4.1-1.3,6.1
			c-0.3,1.3-0.2,2.5,0.7,3.6c0.7,0.9,1.4,1.8,2.2,2.7c0.5,0.6,1.1,1.3,1.7,1.8c0.5,0.4,1.1,0.6,1.6,0.9
			C103.4,129.3,104.5,129.9,105.8,129.9 M145.3,120.6c-0.2,1,0.2,2,0.8,2.9c0.7,1,1.6,1.7,2.8,1.7c1.6,0.1,3.1,0,4.6-0.5
			c1-0.3,2-0.6,2.6-1.5c0.9-1.4,1-3,0.5-4.6c-0.4-1.1-0.6-2.1-0.6-3.2c0.1-0.8,0.2-1.7,0.2-2.5c0-1.1-0.2-2.2-0.3-3.3
			c0-0.3-0.1-0.7-0.2-1c-0.1-0.3-0.4-0.6-0.6-0.6c-0.2,0-0.7,0.2-0.8,0.4c-0.7,1.2-1.4,2.5-2,3.8c-0.4,0.8-0.5,1.6-0.2,2.5
			s0.5,1.9,0.7,2.8c0.2,0.9-0.6,1.6-1.4,1.2c-0.6-0.2-1.2-0.7-1.7-1.1c-1.3-1.2-2.1-2.7-2.5-4.3c-0.3-1-0.6-2.1-1.1-3
			c-0.4-0.9-1.4-1.1-2.2-0.6c-0.9,0.6-1.4,2-0.8,3c0.5,0.8,0.9,1.7,1.3,2.6C145.2,116.9,145.3,118.7,145.3,120.6 M44.5,53.9
			L44.5,53.9c0.6-0.6,1.3-1,1.9-1.5c0.7-0.5,1.4-1,1.8-1.8c0.2-0.6,0.1-0.9-0.6-0.9c-0.8,0.1-1.7,0.1-2.4,0.3
			c-3.6,1-7.2,2.1-10.7,3.2c-0.3,0.1-0.7,0.2-1.1,0.3c0.3-0.3,0.4-0.5,0.6-0.8c0.4-0.5,0.3-1-0.4-1.1c-1.4-0.2-2.8-0.3-4.2,0.2
			c-2.5,0.9-5,1.6-7.6,2c-0.7,0.1-1.4,0.5-1.8,1.2c-0.5,0.8-0.2,1.7,0.7,1.8c0.5,0.1,1.1,0.1,1.7,0c0.9-0.2,1.8-0.6,2.7-0.8
			c1.2-0.3,2.5-0.5,3.7-0.7c0.3-0.1,0.6-0.1,1.1-0.1c-0.3,0.4-0.5,0.6-0.7,0.8c-0.3,0.5-0.7,0.9-0.9,1.5c-0.3,0.8,0.4,1.5,1.2,1.4
			c0.5-0.1,1-0.2,1.4-0.3c1.2-0.4,2.4-0.5,3.8-0.6c-0.2,0.3-0.4,0.5-0.5,0.7c-0.4,0.6-0.5,1.5-0.1,2s1.1,1.2,2.1,0.8
			c1.9-0.8,4-1.6,5.8-2.7c1.5-1,2.6-2.4,3.8-3.7c0.3-0.3,0.6-0.7,0.9-1.1c0-0.1-0.1-0.1-0.1-0.2C45.7,53.8,45.1,53.9,44.5,53.9
			 M106.9,16.3c0.1,1.4,0.2,3,0.4,4.5c0.1,1,0.4,2,0.7,3c0.4,1.3,1.7,1.5,2.5,0.6c0.1-0.1,0.2-0.2,0.2-0.4c0.3-0.9,0.6-1.7,0.9-2.6
			c0.6-1.7,1.3-3.5,1.8-5.2c0.4-1.5,0.7-3,1-4.5c0.2-1.4,0.6-2.6,2.1-3.2c1.4-0.5,1.5-1.7,0.4-2.6c-1-0.8-2-1.7-3.1-2.5
			c-0.4-0.3-0.9-0.7-1.5-0.9c-1.5-0.5-3.1-0.4-4.7-0.3c-0.3,0-0.7,0.3-0.8,0.5c-0.1,0.1,0.2,0.5,0.4,0.7c0.1,0.1,0.2,0.2,0.3,0.3
			c0.6,0.4,0.7,0.9,0.2,1.4c-0.4,0.4-0.9,0.8-1.4,0.9c-0.6,0.2-1.3,0.2-2,0.3c-0.8,0.1-1.2,0.6-1,1.3c0.2,0.6,0.6,1,1.1,1.3
			c1.8,1,2.6,2.4,2.4,4.4C107,14.5,107,15.3,106.9,16.3 M33.1,46.7c0-0.1,0-0.1,0-0.2c0.4-0.2,0.7-0.5,1.1-0.7
			c0.8-0.5,0.7-1.1-0.1-1.6c-0.3-0.2-0.5-0.3-0.9-0.6c2.5-0.7,5.1-0.4,7.4-1.4c-0.2-0.1-0.3-0.2-0.5-0.2c-1.6-0.1-3.2-0.2-4.8-0.2
			c-1.5-0.1-3-0.1-4.5-0.2c-2.1-0.2-4.3-0.3-6.4-0.6c-1.9-0.3-3.8-0.7-5.6-1.1c-2.2-0.5-4.3-1.3-6.5-1.8c-1.5-0.4-3.1-0.6-4.6,0.1
			c-0.6,0.3-1.2,0.6-1.3,1.3c-0.2,0.8,0.4,1.3,1,1.6c0.3,0.2,0.6,0.3,0.9,0.4c0.7,0.3,1.5,0.7,2.3,1c-0.6,0.4-1.1,0.7-1.6,1
			c-1.2,0.9-1.1,2.3,0.2,2.9c0.5,0.2,1,0.4,1.4,0.6c0.9,0.4,1.8,0.9,2.6,1.6c-0.3,0.3-0.6,0.5-0.9,0.8c-0.4,0.4-0.5,0.8-0.4,1.4
			c0.2,0.8,0.8,1.3,1.6,1.7c1.7,0.9,3.6,0.5,5.5,0.5c0.6,0,1.1-0.1,1.6-0.3c1-0.3,1.9-0.8,2.9-1.1c1.4-0.5,2.8-0.9,4.2-1
			c1.1-0.1,2.2-0.3,3.3-0.6c1-0.2,2.1-0.5,3.1-0.7c0.9-0.2,1.9-0.3,2.8-0.6c0.9-0.2,1.7-0.6,2.6-0.9c1.1-0.4,2.2-0.7,3.2-1.1
			c0.3-0.1,0.5-0.5,0.8-0.8c-0.4-0.1-0.8-0.2-1.1-0.2c-1.3,0.1-2.6,0.3-3.9,0.5c-1.3,0.2-2.5,0.3-3.8,0.4
			C34.3,46.7,33.7,46.7,33.1,46.7 M169.4,69.2c1.5-0.7,1.5-2.4,0.8-3.5c-0.6-0.8-1.4-1.5-2.2-2.2c-1-1-2-2-3.1-2.9
			c-0.7-0.7-1.4-1.4-2.2-2c-1-0.8-2.1-1.6-3.1-2.4c-0.3-0.2-0.6-0.4-0.9-0.6c-0.5-0.2-0.8-0.1-0.7,0.4c0,0.8,0.6,1.4,1.1,2
			c1.4,1.7,2.9,3.3,4.3,5c0.6,0.7,1.1,1.4,1.5,2.1c0.4,0.8,1,1.4,1.7,2c0.9,0.7,1.7,1.4,2.5,2.1c-0.6,0.4-1.4,0.8-2,1.2
			c-0.5,0.4-0.9,0.9-1.4,1.2c-0.7,0.5-1.5,1-2.4,1.3c-1.2,0.4-2.2,1.1-3.1,2c-0.4,0.4-1,0.6-1.5,0.8c-1,0.3-1.9-0.1-2.7-0.6
			c-1.6-1-2.6-0.6-4,0.3c-1.5,1-3.1,2-4.7,2.7c-0.7,0.3-1.6,0.2-2.4,0.1c-1.1-0.1-2.2,0-3,0.9c-0.2,0.2-0.4,0.5-0.5,0.9
			c-0.4,1.3-1.5,2-2.7,2.5c-1.6,0.6-3.2,0.9-4.9,0.8c-1.3-0.1-2.6,0.1-3.8,0.6c-1.1,0.5-2.2,0.2-3.3,0c-0.7-0.1-1.5,0.1-1.8,0.7
			c-1.1,1.7-1.8,3.6-2.2,5.6c-0.2,0.8-0.3,1.6-0.2,2.3c0,0.6,0.2,1.3,0.5,1.9c0.2,0.6,0.7,1.2,0.8,1.8c0.1,0.8-0.1,1.6-0.1,2.5
			c0,0.3,0.1,0.6,0.2,0.8c0.2,0.1,0.6,0.1,0.8,0c0.7-0.4,1.5-0.9,2.1-1.5c0.4-0.3,0.7-0.7,1.2-1.1c0.6-0.4,1.2-0.9,2-0.6
			c0.8,0.3,0.9,1.1,0.9,1.7c0,1.3-0.1,2.7-0.1,4c0,1.1,0.2,2.1,0.7,3.1c0.1,0.1,0.2,0.3,0.3,0.4c0.5,0.8,1.3,0.7,1.8,0
			c0.4-0.6,0.8-1.2,1.3-1.8c0.7-0.7,1.5-0.7,2.3,0s1,1.7,1.3,2.6c0.1,0.3,0.1,0.7,0.3,1c0.5,1,1.3,1.6,2.5,0.8
			c0.7-0.5,1.4-1.1,2.1-1.6c0.8-0.6,0.8-1.3,0.6-2.1c-0.4-1.2-0.4-2.5,0.1-3.7c0.2-0.4,0.3-0.7,0.6-1c0.7-0.8,1.9-0.7,2.4,0.2
			s0.9,1.9,1.5,2.7c0.9,1.1,1.8,2.2,2.8,3.2c0.4,0.5,1.1,0.4,1.5-0.2c0.6-0.8,0.5-1.6,0.5-2.5c0-0.6,0-1.2,0.2-1.8
			c0.1-0.6,0.7-0.8,1.3-0.8c1.5,0.1,2.6-0.4,3.5-1.4c0.3-0.3,0.6-0.6,1-0.9c1.2-1,2.4-1.9,3.9-2.3c0.5-0.1,1.2-0.2,1.7-0.1
			c1.1,0.2,1.3,1.1,0.9,1.9c-0.3,0.8-0.8,1.4-1.2,2.2c-0.1,0.2-0.2,0.5-0.3,0.8c-0.4,1.3,0.2,1.4,1.2,1.6c0.3,0,0.6,0,0.9,0.1
			c0.8,0.3,1.1,0.9,0.7,1.9c-0.5,1.5-1.1,3.1-1.6,4.6c-0.4,1-0.7,2.1-0.6,3.2c0.1,1.2,0.3,2.4,0.2,3.5c-0.1,1.5,0.1,3,0.3,4.5
			c0.3,1.9-0.4,3.4-2.4,4.4c-1,0.5-1.9,1-2.8,1.6c-0.9,0.6-1.9,0.9-3,0.9c-1.6,0-3,0.4-4.5,1c-1.2,0.5-2.4,0.8-3.6,0.7
			c-1.7,0-3.4,0.1-5,0.4c-1.3,0.3-2.7,0.6-4,0.8c-0.9,0.2-1.8,0.2-2.6,0.3c-1.4,0.2-2.7,0.5-4,0.8c-0.9,0.2-1.6,0.7-2.5,1
			c-1.5,0.5-2.9,0.3-4.3-0.3c-1.8-0.8-3.6-0.8-5.4-0.2c-1.3,0.4-2.6,0.4-3.9,0.1c-0.2,0-0.4-0.1-0.6-0.1c-1.5-0.1-3-0.2-4.5-0.2
			c-0.8,0-1.7,0.1-2.5,0.4c-1.8,0.5-3.5,0.5-5.2-0.1c-1.2-0.5-2.5-0.4-3.8-0.1c-1.1,0.2-2.3,0.4-3.4,0.4c-1.9,0-3.8,0-5.7-0.2
			c-1-0.1-2-0.5-3-0.9c-0.9-0.4-1.8-0.9-2.8-1.2c-1.7-0.5-3.3-1.2-4.9-1.7c-0.8-0.2-1.6-0.4-2.4-0.5c-0.9-0.2-1.8-0.2-2.6-0.8
			c0.3-0.2,0.6-0.4,0.7-0.7c0.4-0.5,0.5-1.1,0.3-1.7c-0.8-1.9-0.4-3.8-0.1-5.7c0.3-1.5,0-2.7-1.6-3.4c-1.1-0.5-2.2-1.2-3.3-1.7
			c-1.2-0.6-2.5-0.6-3.7,0.1c-0.6,0.3-0.8,0.7-0.5,1.2c0.7,1.2,1.4,2.4,2.1,3.6c0.6,0.9,1.2,1.8,1.7,2.8c0.7,1.6,1.9,3,2.9,4.5
			c0.2,0.3,0.5,0.6,0.9,1.1c-1.1,0-2.1,0.1-3,0.1c-1.2-0.1-2.4-0.3-3.6-0.5c-1.1-0.2-2.1-0.7-3.1-1.3c-0.8-0.4-1.8-0.6-2.7-0.9
			c-1.3-0.4-2.7-0.9-4.1-1.2c-0.6-0.2-1.2-0.2-1.7-0.2c-1.5,0.1-2.8-0.3-4-1.2c-1.1-0.8-2.2-1.5-3-2.6c-0.7-1-1-2.1-1-3.2
			c-0.1-1.7,0-3.4,0.3-5.1c0.2-0.7,0.5-1.3,1.1-1.8c0.7-0.5,0.8-0.9,0.5-1.7c-0.6-1.3-1.2-2.5-1.5-4c-0.2-1.2-0.6-2.4-0.9-3.6
			c-0.2-0.7,0.1-1.4,0.8-1.8c0.5-0.3,1.5-0.2,1.9,0.2c0.3,0.2,0.6,0.4,0.8,0.7c1,1,1.6,0.6,2.3-0.3c0.4-0.6,0.8-1.1,1.3-1.6
			c0.7-0.6,1.6-0.2,1.9,0.4c0.3,0.7,0.4,1.5,0.6,2.2c0.2,1,0.2,2,0.8,2.9c0.7,0.9,1.6,1.6,2.6,2c0.5,0.2,1,0.1,1.4-0.3
			c0.4-0.4,0.7-0.9,0.5-1.4c-0.4-0.8-0.8-1.5-1.4-2.2c-1.1-1.5-2-3-2.4-4.8c-0.2-0.9-0.2-2.1,1.3-2.7c1-0.4,1.5-1.2,1.4-2.2
			s-0.3-2-0.4-3c-0.1-0.5-0.1-1,0-1.5c0.2-0.8,1.2-1.2,2-0.9c0.8,0.4,1.5,0.9,2.2,1.4c0.5,0.3,1,0.7,1.6,1.1
			c1.3,0.8,2.7,1.5,3.9,2.3c0.9,0.6,1.8,0.9,2.8,0.9c1,0.1,1.8,0.4,2.6,0.9c0.6,0.4,1.3,0.5,2,0.4c0.8-0.1,1.4-0.9,1.4-1.7
			s0.1-1.6,0.6-2.3c0.6-0.7,1.7-0.6,2.3,0c0.7,0.8,1.4,1.6,2,2.4c0.9,1.1,1.7,2.3,2.6,3.3c0.7,0.8,1.6,1.1,2.7,1.1
			c1.2,0,2.3,0.4,3.3,1c0.4,0.2,0.9,0.6,1.2,0.2c0.2-0.3,0.2-0.9,0-1.3c-0.3-0.9-0.8-1.8-1-2.8c-0.6-1.9,0.5-3.3,2.8-2.7
			c0.1,0,0.1,0.1,0.2,0.1c0.5,0,1.1,0,1.5-0.4s0.2-0.9,0-1.3c-0.5-0.9-0.9-1.8-1.4-2.7c-0.2-0.4-0.4-0.8-0.6-1.3
			c-0.5-1.2-1-1.5-2.3-1.4c-1.4,0.1-2.7-0.2-3.8-1c-0.7-0.5-1.4-0.8-2.3-0.8c-0.4,0-0.8,0-1.3,0c-1.6,0.2-3-0.4-4.3-1.2
			c-0.7-0.5-1.5-0.6-2.3-0.4s-1.5-0.1-2.2-0.5c-0.9-0.5-1.9-1-2.8-1.7c-0.6-0.5-1.1-1.1-1.6-1.7c-0.7-0.8-1-1.2-2.3-0.8
			c-0.8,0.3-1.7,0.4-2.6,0.1c-0.4-0.2-0.8-0.4-1.2-0.6c-1.7-0.8-3.4-1.7-5.2-2.1c-0.6-0.1-1.2-0.4-1.7-0.8c-1.1-0.7-2.4-0.8-3.6-1.2
			c-1.7-0.6-3.3-1.3-4.9-2.1c-2-1-4.1-2-6.3-2.5c-0.4-0.1-0.8,0-1.2,0.1c-1.1,0.3-2.2,0.3-3.2-0.1c-1.2-0.5-2.4-0.9-3.7-1.4
			c-0.2-0.1-0.4-0.3-0.6-0.4c-0.9-0.7-2-0.9-3.1-0.9c-0.7,0-1.4-0.2-2.1-0.6c-1.2-0.6-2.3-1.1-3.6-1.4c-0.5-0.1-1.1-0.4-1.5-0.7
			c-0.8-0.6-1.7-0.9-2.6-0.9c-2.1,0-3.9-0.8-5.6-1.9c-1.5-1-3.2-1.8-5-2.3c-2.6-0.7-4.3-2.5-5-5c-0.4-1.3-0.9-2.5-2.2-3.4
			c-0.5-0.3-0.9-1-0.9-1.6c0-1.7-0.7-3.1-1.4-4.6c-0.4-0.8-0.6-1.8-0.7-2.8c-0.2-1.1-0.4-2.1-1-3c-0.9-1.4-1.4-2.8-1.2-4.5
			c0-0.4,0.1-0.8,0.2-1.2c0.3-1-0.1-1.8-0.5-2.7C1,24.9,0.7,24,0.6,23.1c-0.2-1.3,0.3-2.4,1.2-3.3c0.7-0.7,1.1-1.5,1.4-2.4
			c0.1-0.3,0.3-0.7,0.5-1c1-1.1,1.3-2.5,1.6-3.9C5.6,10.9,6.2,9.4,7,8c1-1.7,2.7-1.6,3.8,0c1.2,1.8,2.4,3.7,3.7,5.5
			c0.6,0.7,1.5,1.3,2.2,1.9c0.6,0.5,1.2,0.9,1.8,1.4c1.2,1.1,2.4,2.3,3.7,3.4c0.7,0.6,1.6,1,2.5,1.5c1,0.6,1.9,1.3,2.9,1.8
			c1.1,0.5,2.4,0.9,3.6,1.2c1.4,0.5,2.9,0.9,4.3,1.3c1,0.3,2,0.4,3,0.6c1.3,0.2,2.6,0.4,3.8,0.7c2.4,0.5,4.8,1.1,7.2,1.4
			c2.1,0.3,4.2,0.2,6.1-1c1.4-0.9,2.9-1.2,4.6-1.4c1.8-0.2,3.5-0.6,5.3-0.9c1.4-0.2,2.7-0.9,3.9-1.5c1.4-0.8,3-1.1,4.5-1.4
			c1.7-0.3,3.4,0,5,0.4c0.5,0.1,1,0,1.6,0c1,0.1,1.9,0.1,2.9,0.2c1.5,0.2,3,0.7,4.3,1.6c1.6,1,2.4,2.4,2.7,4.2
			c0.1,0.6,0.2,1.2,0.5,1.7c0.8,1.8,0.7,3.6,0.1,5.4c-0.5,1.6-1.1,3.1-1.7,4.6c-0.5,1.3-0.7,2.6,0.1,3.8c0.4,0.6,1,0.9,1.6,1
			c1.3,0.2,2.6,0.3,3.8,0.5C95.5,46,96.3,46,97,46c3.4,0,5.6-1.8,6.8-4.5c0.6-1.2,0.9-2.6,1.3-3.9c0.1-0.5,0.2-1,0.2-1.4
			c0-0.8,0-1.6,0-2.4c0-3.8,0-7.6,0-11.4c0-1.9,0-3.8-0.1-5.7c-0.1-1.8-0.8-3.6-2-5c-1.1-1.3-2.3-2.6-4-3.3
			c-2.2-0.9-4.3-1.8-6.5-2.5C90,5,87.3,4.4,84.5,3.6c-1.5-0.4-3-1-4.3-2c-0.4-0.3-0.8-0.7-0.6-1.3s0.8-0.8,1.3-0.9
			c1.8-0.3,3.5-0.2,5.3,0.1c1.4,0.3,2.7,0.4,4.1,0.7c1.9,0.4,3.8,1,5.7,1.3c1.3,0.2,2.6,0.2,4,0.2c2.4,0,4.5-1,6.8-1.7
			c1.8-0.5,3.4-0.8,5.2,0.1c1.7,0.8,3.4,1.5,5.1,2.3c1.2,0.6,2.3,1.2,3.5,1.8c1.5,0.7,3.1,1,4.8,0.7c0.7-0.1,1.5-0.1,2.3,0
			c1.1,0.1,1.4,1.1,0.6,1.9c-0.4,0.4-1,0.6-1.5,1c-0.2,0.2-0.6,0.5-0.6,0.6c0.1,0.3,0.4,0.6,0.6,0.7c0.8,0.4,1.6,0.7,2.4,1
			c0.5,0.2,0.9,0.4,1.4,0.8c0.4,0.3,0.3,0.8-0.2,1s-1,0.4-1.5,0.5c-1.9,0.3-3.8,0.1-5.6-0.4c-1.4-0.4-2.8-0.9-4.2-1.3
			c-1-0.3-1.7,0.3-1.7,1.3c0,1.4,0,2.8,0,4.2c0,1.9-0.3,3.8-0.8,5.6c-0.5,2.1-1.1,4.3-1.5,6.4c-0.2,1.1,0.1,2.3,0.4,3.4
			c0.5,1.7,0.9,3.4,1.5,5.1c0.9,2.5,2.2,4.8,4.1,6.8c0.8,0.8,1.6,1.6,2.5,2.3c0.7,0.6,1.5,0.9,2.4,0.9c1,0,2.1,0.1,3-0.1
			c1.9-0.4,2.6-1.5,2.8-3.2c0.1-1-0.3-1.8-0.8-2.6c-0.9-1.5-1.4-3-1.6-4.7c-0.1-0.8-0.3-1.5-0.2-2.3c0.1-1.5,0.6-2.9,1.5-4.2
			c0.9-1.4,2.3-2.3,3.8-3.1c1.2-0.6,2.3-1.3,3.6-1.8c1.1-0.4,2.3-0.6,3.5-0.7c3.5-0.2,6.8,0.5,10,1.7c0.9,0.3,1.6,0.8,2.5,1.1
			c0.9,0.3,1.9,0.5,2.9,0.8c2,0.6,4.1,1.3,6.1,2c1.7,0.6,3.3,1.3,5,1.8c1.8,0.5,3.7,0.6,5.5,0.2c1.5-0.3,3-0.4,4.5-0.6
			c2.9-0.3,5.8-0.9,8.7-1.6c1.3-0.3,2.6-0.6,3.8-1c0.4-0.1,0.9-0.4,1.3-0.6c1.6-0.7,3.2-1.4,4.7-2.1c4-2,8.2-3.8,11.8-6.5
			c0.9-0.6,1.6-1.4,2.3-2.2c1.1-1.3,2.2-2.7,3.3-3.9c1-1.2,2.3-0.7,3,0.4c0.7,1.1,1.1,2.4,1.1,3.7c0,0.9-0.3,1.8-0.5,2.7
			c0,0.1,0,0.2-0.1,0.3c-0.4,1.2-0.2,1.7,1,2.2s2.1,1.3,2.4,2.6c0.1,0.6,0.2,1.2,0.1,1.7c-0.3,1.2,0.1,2.2,0.7,3.1
			c1,1.5,0.8,2.9-0.1,4.4c-0.4,0.6-0.9,1.2-1.4,1.9c-0.4,0.6-0.5,1.2-0.4,1.9c0.2,1.9-0.2,3.6-1.6,5c-0.4,0.4-0.9,0.7-1.2,1.2
			c-0.3,0.4-0.7,0.9-0.7,1.4c-0.1,1.5-0.6,2.7-1.5,3.9c-0.4,0.5-0.6,1.1-0.6,1.8c0,0.8,0.1,1.5-0.2,2.3c-0.7,1.3-1.8,2.1-3.2,2.4
			c-1.2,0.3-2.1,0.9-2.7,1.9c-0.8,1.3-2,2.1-3.4,2.5c-1,0.3-1.8,1-2.4,1.8c-0.9,1.1-2,1.7-3.3,1.9c-1.3,0.2-2.5,0.5-3.8,1
			c-1.5,0.6-3.1,0.4-4.6,0.2c-1.1-0.1-2.2-0.4-3.2-0.4s-2,0.2-3,0.4c-0.6,0.1-1.2,0.5-1.7,0.9c-1.1,0.7-2.3,1-3.6,1.1
			c-1.5,0.1-3.1,0.2-4.6,0.4c-0.8,0.1-1.5,0.5-2.2,0.8C170.8,69.2,170.1,69.5,169.4,69.2"/>
	</g>
</g>
</svg>
