<?xml version="1.0" encoding="utf-8"?>
<!-- Generator: Adobe Illustrator 26.4.0, SVG Export Plug-In . SVG Version: 6.00 Build 0)  -->
<svg version="1.1" id="Livello_1" xmlns="http://www.w3.org/2000/svg" xmlns:xlink="http://www.w3.org/1999/xlink" x="0px" y="0px"
	 viewBox="0 0 1214 195.1" style="enable-background:new 0 0 1214 195.1;" xml:space="preserve">
<style type="text/css">
	.st0{clip-path:url(#SVGID_00000166640105235403209440000016728472637035103378_);fill:#FFF9F8;}
	.st1{fill:#FFF9F8;}
	.st2{clip-path:url(#SVGID_00000160875492367094660870000005507163183790274997_);fill:#FFF9F8;}
	.st3{clip-path:url(#SVGID_00000103948254766549690970000005244529389246790064_);fill:#FFF9F8;}
	.st4{clip-path:url(#SVGID_00000140720539396510090640000006676226508794448003_);fill:#FFF9F8;}
</style>
<g>
	<defs>
		<rect id="SVGID_1_" width="1214" height="195.1"/>
	</defs>
	<clipPath id="SVGID_00000061472976156644716780000006960472049107877555_">
		<use xlink:href="#SVGID_1_"  style="overflow:visible;"/>
	</clipPath>
	<path style="clip-path:url(#SVGID_00000061472976156644716780000006960472049107877555_);fill:#FFF9F8;" d="M0,0.3h44.9
		c8.4,45.9,16.7,91.9,25.1,137.8c0.2,0,0.4,0.1,0.6,0.1c1.4-7.8,2.9-15.5,4.3-23.3c5.9-32.2,11.7-64.3,17.6-96.5
		c1-5.3,1.8-10.6,2.9-15.8c0.2-1,1.6-2.5,2.4-2.5c14-0.2,27.9-0.1,42.8-0.1c-16.4,64.1-32.7,127.7-49,191.5H48.9
		C32.6,127.9,16.4,64.3,0,0.3"/>
	<path style="clip-path:url(#SVGID_00000061472976156644716780000006960472049107877555_);fill:#FFF9F8;" d="M749.9,191.5h-40.1
		v-148h40v14.1c5.8-7.1,11.8-11.6,19.1-14.2c15.1-5.5,38.7-2.1,48.2,11.9c5.7,8.4,8.3,17.8,8.4,27.6c0.4,35.4,0.4,70.7,0.5,106.1
		c0,0.8-0.2,1.6-0.3,2.6h-42.7c0-1.5,0-3,0-4.5c0-32.1,0.2-64.2,0-96.3c0-4.4-0.9-9-2.1-13.3c-1.6-5.6-6.1-8.1-11.7-8.9
		c-6.4-0.8-11.9,1-14.7,6.8c-2.2,4.7-4.2,10.1-4.3,15.2c-0.5,31.8-0.3,63.6-0.4,95.5C749.9,187.8,749.9,189.5,749.9,191.5"/>
	<path style="clip-path:url(#SVGID_00000061472976156644716780000006960472049107877555_);fill:#FFF9F8;" d="M393.8,122.6
		c-6.3,1.6-12.5,3-18.5,4.8c-7.8,2.3-13.6,6.7-15.2,15.3c-2,10.6,3.8,19.7,13.9,21.5c10,1.8,18.7-4.4,19.6-15
		C394.5,140.3,393.8,131.4,393.8,122.6 M368,98.6c-13.7-3.9-26.8-7.7-40.3-11.5c-0.2-13,4.6-23.9,14.1-32.6
		c9.2-8.4,20.4-12.4,32.8-13c11.6-0.5,23.1,0,34.2,4.2c15.6,5.9,23.9,17.6,24.7,33.7c1,21.6,0.6,43.3,0.8,64.9c0,4.7,0,9.3,0.2,14
		c0.2,3.4,1.1,6.4,5.5,6.7c0.9,0.1,2.5,1.8,2.5,2.8c0.2,7.8,0.1,15.5,0.1,23.2c-11,4.2-34.2,3.6-45-10.3c-0.4,0.3-1,0.5-1.3,0.8
		c-16.4,18.8-44.7,14.3-60.1,3.7c-24.6-17-23.9-51.1,1.2-68.1c11.3-7.7,24.2-11.2,37.2-14.4c4.2-1,8.5-2.3,12.3-4.2
		c7.1-3.7,9-11.7,5.3-19.5c-3.2-6.6-11.6-10.1-18.3-7.3c-5.9,2.4-7.1,7.8-7.2,13.3C366.7,89.3,367.6,93.6,368,98.6"/>
	<path style="clip-path:url(#SVGID_00000061472976156644716780000006960472049107877555_);fill:#FFF9F8;" d="M1165.1,122.6
		c-6.3,1.6-12.4,3-18.5,4.8c-7.8,2.3-13.6,6.7-15.2,15.3c-2.1,10.9,3.9,19.9,14.7,21.7c9.4,1.5,18.2-5.2,18.9-15.5
		C1165.6,140.1,1165.1,131.3,1165.1,122.6 M1169.6,181.4c-6.3,3.8-11.8,8.4-18.1,10.7c-20.3,7.4-55.7-2.6-61.5-33.3
		c-2.8-15.1,4.6-32.1,18.7-41.7c11.3-7.7,24.2-11.2,37.2-14.4c4.2-1,8.5-2.3,12.3-4.3c7.1-3.7,9-11.7,5.3-19.5
		c-3.2-6.6-11.6-10-18.3-7.2c-5.9,2.4-7,7.8-7.2,13.3c-0.1,4.3,0.7,8.6,1.2,13.5c-13.5-3.9-26.7-7.6-40.3-11.5
		c-0.2-13.1,4.6-23.9,14.2-32.6c9.2-8.4,20.4-12.4,32.8-12.9c11.6-0.5,23.1,0,34.2,4.2c15.6,5.9,23.9,17.6,24.7,33.7
		c1,22,0.6,44.1,0.8,66.2c0,4.2,0,8.5,0.2,12.7c0.2,3.5,1.2,6.4,5.5,6.7c0.9,0.1,2.4,1.8,2.5,2.8c0.2,7.2,0.2,14.4,0,21.6
		c0,0.9-1.1,2.4-1.9,2.6c-13.5,2.2-26.8,2.2-38.4-6.8C1171.9,184,1170.6,182.3,1169.6,181.4"/>
	<path style="clip-path:url(#SVGID_00000061472976156644716780000006960472049107877555_);fill:#FFF9F8;" d="M660.4,101.4
		c-1-8.1-1.5-15.7-2.8-23.1c-1-5.4-4.8-8.9-10.6-9.5c-5.9-0.7-11.1,1-14.2,6.4c-4.7,8.1-4.6,17.1-4.8,26.2H660.4z M698,127.8h-69.8
		c-0.5,11.5-0.2,22.6,5.5,32.6c3.5,6.1,9.4,8,16.5,6c6.9-1.9,10.7-6.9,10.9-14.8c0.1-3.2-0.4-6.4-0.6-10.3c13,1.5,26,3.1,38.9,4.6
		c0.4,21.7-15.9,41.7-37.6,46.5c-12.8,2.8-25.5,2.8-38-1.3c-19.1-6.2-28.9-20.7-33.8-39.1c-4.4-16.5-4.3-33.2-2.8-50
		c1-10.9,3.4-21.5,8.3-31.3c10.4-20.6,27.6-30,50.2-29.2c8.2,0.3,16.6,1.6,24.4,4.1c15.9,5.2,23.4,17.9,26.4,33.5
		c3,15.6,3.2,31.4,2.1,47.3C698.5,126.7,698.3,127.1,698,127.8"/>
	<path style="clip-path:url(#SVGID_00000061472976156644716780000006960472049107877555_);fill:#FFF9F8;" d="M1019.9,94.4
		c-14.2,2.4-28,4.7-42.3,7.1c0.3-4.4,1-8.4,0.8-12.4c-0.3-4.6-1-9.3-2.6-13.5c-1.9-5.2-6.4-7.6-12-7.9c-5.8-0.3-10.3,2-12.4,7
		c-2.3,5.4-4.2,11.2-4.8,16.9c-2.1,20-2.3,40.1,2.2,59.9c0.8,3.5,2.4,6.9,4.2,10.1c2.4,4.3,6.4,6.4,11.3,6.1
		c5.4-0.3,9.4-2.9,11.6-7.9c2.7-6,3-12.3,2.2-18.7c-0.3-2.2-0.4-4.4-0.7-7.1c14.4,2.3,28.2,4.6,42,6.8c1.6,16.3-5.8,37.3-22.4,45.7
		c-21.8,11.1-44.2,12-65.8-0.9c-10.8-6.5-17.5-16.8-22-28.3c-10.5-27.2-11.6-54.9-0.8-82.2c8.6-21.7,25.7-32.6,48.7-34.3
		c9.9-0.7,19.7,0.2,29.3,3.3c19.9,6.4,29.5,21,32.7,40.8c0.4,2.4,0.6,4.8,0.8,7.2C1020,92.6,1019.9,93.2,1019.9,94.4"/>
</g>
<polygon class="st1" points="587.3,33.1 535.9,33.1 535.9,77.8 570.9,77.8 570.9,107.7 535.6,107.7 535.6,191.5 495.1,191.5 
	495.1,0.3 587.3,0.3 "/>
<rect x="266.2" y="0.3" class="st1" width="37.5" height="191.3"/>
<g>
	<defs>
		<rect id="SVGID_00000045594998613505736790000008999632575553997199_" width="1214" height="195.1"/>
	</defs>
	<clipPath id="SVGID_00000053503611593488888240000002333605043001124234_">
		<use xlink:href="#SVGID_00000045594998613505736790000008999632575553997199_"  style="overflow:visible;"/>
	</clipPath>
	<path style="clip-path:url(#SVGID_00000053503611593488888240000002333605043001124234_);fill:#FFF9F8;" d="M209.9,191.4V0.5
		c0.8-0.2,1.4-0.4,2.1-0.4c10.7,0,21.5,0.1,32.2-0.1c2.8,0,3.9,0.9,3.6,3.7c-0.1,0.8,0,1.7,0,2.5V186v5.4H209.9z"/>
</g>
<rect x="151.4" y="43.6" class="st1" width="39.4" height="148"/>
<g>
	<defs>
		<rect id="SVGID_00000111910305624709505020000011906908455958879656_" width="1214" height="195.1"/>
	</defs>
	<clipPath id="SVGID_00000067205065151660117560000003001441970991228840_">
		<use xlink:href="#SVGID_00000111910305624709505020000011906908455958879656_"  style="overflow:visible;"/>
	</clipPath>
	<path style="clip-path:url(#SVGID_00000067205065151660117560000003001441970991228840_);fill:#FFF9F8;" d="M884.9,191.6h-39.5
		V43.3h8.6c8.8,0,17.5,0.2,26.3-0.1c3.8-0.1,4.7,1.1,4.7,4.8c-0.1,35.9-0.1,71.8-0.1,107.7V191.6z"/>
</g>
<rect x="1035" y="43.6" class="st1" width="39.1" height="148"/>
<g>
	<defs>
		<rect id="SVGID_00000032632212849073553990000008220216504548199601_" width="1214" height="195.1"/>
	</defs>
	<clipPath id="SVGID_00000135651686584217436950000009549445287028715691_">
		<use xlink:href="#SVGID_00000032632212849073553990000008220216504548199601_"  style="overflow:visible;"/>
	</clipPath>
	<path style="clip-path:url(#SVGID_00000135651686584217436950000009549445287028715691_);fill:#FFF9F8;" d="M191.6,0.1v21
		c0,10.2,0,10.2-10.1,10.2h-31V7.7c0-7.6,0-7.6,7.6-7.6H191.6z"/>
</g>
<rect x="844.7" y="0.4" class="st1" width="40.2" height="30.6"/>
<rect x="1034.7" y="0.3" class="st1" width="40.3" height="30.6"/>
</svg>
