<?xml version="1.0" encoding="utf-8"?>
<!-- Generator: Adobe Illustrator 26.4.0, SVG Export Plug-In . SVG Version: 6.00 Build 0)  -->
<svg version="1.1" id="Livello_1" xmlns="http://www.w3.org/2000/svg" xmlns:xlink="http://www.w3.org/1999/xlink" x="0px" y="0px"
	 viewBox="0 0 903.9 172.5" style="enable-background:new 0 0 903.9 172.5;" xml:space="preserve">
<style type="text/css">
	.st0{clip-path:url(#SVGID_00000000903920990839705130000008992214986213608588_);fill:#BF2E2E;}
	.st1{fill:#BF2E2E;}
	.st2{clip-path:url(#SVGID_00000030470757592668619890000014086760311117491364_);fill:#BF2E2E;}
</style>
<g>
	<defs>
		<rect id="SVGID_1_" width="903.9" height="172.5"/>
	</defs>
	<clipPath id="SVGID_00000012459819877713609330000005844710645202635652_">
		<use xlink:href="#SVGID_1_"  style="overflow:visible;"/>
	</clipPath>
	<path style="clip-path:url(#SVGID_00000012459819877713609330000005844710645202635652_);fill:#BF2E2E;" d="M191.6,83.1
		c0,7.8,0,15.5,0,23.3c0.1,6.7,3.4,11,9.9,12.4c7.4,1.6,14-0.7,16.6-8.8c0.5-1.5,0.9-3.1,1.1-4.7c1.3-10.9,1.3-21.9,0.5-32.8
		c-0.4-5.2-1.3-10.4-2.8-15.4c-2.1-7-6.7-9.6-13.9-8.9c-7.2,0.8-11.5,5.5-11.5,12.6C191.6,68.3,191.6,75.7,191.6,83.1 M191.6,39.9
		c2.3-2.1,4.4-4.2,6.7-5.9c10.8-8.1,26.3-5.4,35.4,2.4c7.7,6.7,11.6,15.4,13.7,25.1c3,13.7,2.9,27.5,0.7,41.2
		c-1.1,7.1-3.2,14-6.8,20.3c-10.3,18.3-35.1,19.6-48.1,7.2c-0.4-0.4-0.8-0.7-1.5-1.4v43.6h-28.1V30.9c0.5-0.1,1-0.2,1.5-0.2
		c7.6,0,15.2,0,22.9,0c1.4,0,2,0.4,2.2,1.8C190.5,34.9,191.1,37.4,191.6,39.9"/>
	<path style="clip-path:url(#SVGID_00000012459819877713609330000005844710645202635652_);fill:#BF2E2E;" d="M586.4,40.9
		c4.6-5.5,10.1-9.3,16.8-10.8c10.5-2.3,20.5-1.2,28.9,6.4c4.6,4.2,6.8,9.9,7.6,16c0.8,5.4,1.3,10.8,1.3,16.3
		c0.1,22.1,0.1,44.3,0.1,66.4c0,0.4,0,0.8-0.1,1.4c-0.7,0.1-1.3,0.1-1.9,0.1c-8.7,0-17.5-0.1-26.2,0.1c-1.9,0-2.3-0.6-2.3-2.4
		c0.1-20.5,0-40.9,0-61.4c0-4.3,0-8.7-0.1-13c-0.3-8-5.7-12.6-13.6-11.6c-5.1,0.7-7.7,4.4-9,8.9c-0.9,3-1.4,6.3-1.5,9.5
		c-0.1,22.4,0,44.7,0,67.1c0,2.9,0,2.9-3,2.9c-7.8,0-15.5,0-23.3,0c-1.7,0-2.1-0.5-2.1-2.1c0-33.8,0-67.6,0-101.4
		c0-1.6,0.4-2.2,2.1-2.2c8,0.1,16.1,0.1,24.1,0c1.8,0,2.3,0.7,2.2,2.3C586.3,35.7,586.4,38.3,586.4,40.9"/>
</g>
<polygon class="st1" points="0,0 0,136.4 65.5,136.4 65.5,113.5 28.1,113.5 28.1,75.2 57.1,75.2 57.1,55.5 28.1,55.5 28.1,22.9 
	65.5,22.9 65.5,0 "/>
<g>
	<defs>
		<rect id="SVGID_00000044872728349757935860000006865420237789335451_" width="903.9" height="172.5"/>
	</defs>
	<clipPath id="SVGID_00000116948130050978721920000001031963413085446311_">
		<use xlink:href="#SVGID_00000044872728349757935860000006865420237789335451_"  style="overflow:visible;"/>
	</clipPath>
	<path style="clip-path:url(#SVGID_00000116948130050978721920000001031963413085446311_);fill:#BF2E2E;" d="M510.3,72.5
		c3.3,0,6.6,0,9.9,0c1.3,0,2-0.4,1.9-1.8c-0.3-4.7-0.4-9.5-1.1-14.1c-0.5-3.2-2-6.3-5.4-7.4c-5.9-2-12.1-0.3-14.6,6.6
		c-1.8,4.8-2,9.8-2.1,14.8c0,1.6,0.6,2,2.1,2C504,72.4,507.2,72.5,510.3,72.5 M498.9,90.7c-0.3,7.4-0.2,14.5,2.5,21.2
		c2.4,6,6.8,8.5,12.7,7.4c5.5-1,8.8-4.8,9-10.8c0.1-2.3-0.3-4.7-0.4-7.3c9.1,1,18.2,2.1,27.5,3.1c0,4.1-1.1,7.8-2.5,11.4
		c-4.4,11.5-12.9,18.6-24.8,21.2c-10.3,2.3-20.6,2.2-30.4-2.1c-10.9-4.8-16.7-13.8-19.9-24.8c-3.3-11.5-3.8-23.4-2.9-35.3
		c0.6-8.1,2.1-15.9,5.6-23.3c6.5-13.8,17.5-21.2,32.7-22.1c7-0.4,13.9,0.3,20.6,2.7c9.5,3.4,15.3,10.2,18.1,19.7
		c2.6,8.7,2.9,17.7,2.9,26.8c0,3.3-0.2,6.6,0,9.8c0.1,1.9-0.6,2.4-2.4,2.3c-15.2-0.1-30.4,0-45.5,0H498.9z"/>
	<path style="clip-path:url(#SVGID_00000116948130050978721920000001031963413085446311_);fill:#BF2E2E;" d="M300.4,72.5
		c3.3,0,6.6,0,9.9,0c1,0,1.9,0,1.8-1.4c-0.4-5.1-0.6-10.3-1.3-15.4c-0.4-2.6-1.8-5-4.4-6.3c-5.7-2.9-12.4-0.5-14.9,5.3
		c-2.3,5.2-2.5,10.8-2.5,16.4c0,1.2,0.7,1.3,1.6,1.3C293.8,72.5,297.1,72.5,300.4,72.5 M288.9,90.7c-0.2,8-0.3,15.7,3.4,22.9
		c2.5,4.9,6.5,6.7,11.9,5.7c5.1-0.9,8.2-4.1,8.7-9.5c0.3-2.7,0.1-5.5,0.1-8.5c8.8,1,17.9,2,27.2,3.1c0,4.1-1,7.8-2.5,11.4
		c-5.5,13.9-16.2,20.6-30.6,22.2c-6.4,0.7-12.7,0.5-18.9-1.1c-9.6-2.4-16.7-8.1-21.5-16.7c-5.4-9.7-6.8-20.4-7.3-31.3
		c-0.6-11.5,0.4-22.9,4.4-33.8c4-10.6,10.7-18.8,21.5-22.9c8.1-3.1,16.5-3.3,25-2c5.1,0.8,9.9,2.2,14.3,5c7,4.4,10.7,11,12.6,18.8
		c2.3,9.1,2.3,18.4,2.3,27.7c0,2.3-0.2,4.6-0.1,6.9c0.1,1.9-0.5,2.4-2.3,2.4c-15.2-0.1-30.4,0-45.5,0H288.9z"/>
	<path style="clip-path:url(#SVGID_00000116948130050978721920000001031963413085446311_);fill:#BF2E2E;" d="M781.7,72.5
		c3.3,0,6.6,0,9.9,0c1.2,0,1.9-0.4,1.8-1.7c-0.4-4.9-0.4-9.9-1.3-14.7c-0.8-4.8-3.9-7.2-8.2-7.7c-5.1-0.5-8.9,1.5-11,5.9
		c-2.6,5.3-2.6,11.1-2.8,16.8c0,1.3,0.8,1.4,1.8,1.4C775.1,72.5,778.4,72.5,781.7,72.5 M794.3,101.2c8.9,1,17.9,2.1,27.2,3.1
		c-0.7,7.3-2.7,13.8-7,19.6c-7.2,9.8-17.3,13.7-29,14.3c-7.5,0.4-14.8-0.2-21.8-3.3c-8.5-3.8-14.1-10.3-17.7-18.7
		c-3-6.9-4.4-14.2-5-21.7c-0.8-9.2-0.8-18.3,0.8-27.4c2-11.6,6.1-22.2,15.7-29.9c7.3-5.8,15.9-8,25.1-8c5.7,0,11.3,0.7,16.7,2.6
		c9.7,3.3,15.7,10,18.6,19.7c2.7,8.9,3,18,2.9,27.2c0,3.3-0.2,6.6,0,9.8c0.1,1.9-0.7,2.2-2.3,2.2c-15.2,0-30.4,0-45.5,0
		c-0.5,0-1.1-0.2-1.4,0c-0.6,0.3-1.4,0.8-1.4,1.3c-0.2,6.9,0,13.7,2.8,20.2c2,4.7,5.2,7.4,10.6,7.2c6.1-0.2,10.5-4.1,10.8-10.3
		C794.4,106.6,794.3,104,794.3,101.2"/>
	<path style="clip-path:url(#SVGID_00000116948130050978721920000001031963413085446311_);fill:#BF2E2E;" d="M703.6,95.9
		c3.4,0.5,6.4,0.9,9.4,1.4c6,0.9,12,1.9,18,2.9c2.8,0.5,2.8,0.5,2.6,3.5c-0.6,7.2-2.2,14.1-6.5,20.1c-6.2,8.8-15.1,12.7-25.4,14.2
		c-6.1,0.8-12.2,1-18.2-0.3c-12.4-2.5-21-10-26.7-21c-6-11.6-8.1-24.1-7.9-37.1c0.1-7.8,1.2-15.4,3.8-22.8
		c5-14.1,14.5-23.6,29.4-26.7c9-1.9,18.1-1.7,27,1.1c13.1,4.1,20.6,13.3,23.3,26.6c0.5,2.5,0.7,5,1.1,7.5c0.2,1.1-0.2,1.7-1.3,1.9
		c-9.2,1.5-18.5,3.1-27.7,4.6c-0.2,0-0.4-0.1-1-0.2c0.2-1.3,0.5-2.5,0.6-3.8c0.5-5.1,0.8-10.2-1.8-14.9c-3.5-6.6-14.4-6.9-17.9-0.2
		c-2.5,4.9-3.4,10.2-3.9,15.5c-1,11.6-0.9,23.2,0.8,34.7c0.6,3.9,1.9,7.7,3.4,11.4c1.6,4,4.9,5.9,9.3,5.7c4.4-0.2,7.3-2.6,8.8-6.6
		c1.5-4,1.7-8.2,1.2-12.4C704.1,99.3,703.9,97.8,703.6,95.9"/>
	<path style="clip-path:url(#SVGID_00000116948130050978721920000001031963413085446311_);fill:#BF2E2E;" d="M71.6,30.5h8.8
		c6.2,0,12.4,0.1,18.7,0c1.5,0,2.2,0.4,2.7,1.9c4,11.5,8.1,23,12.1,34.4c0.1,0.2,0.2,0.5,0.4,1.1c0.5-1.3,1-2.3,1.4-3.3
		c4.1-10.7,8.1-21.5,12.1-32.2c0.5-1.4,1.2-1.9,2.7-1.9c9,0.1,18,0,27.4,0c-0.4,0.9-0.6,1.5-1,2.2c-8.4,16.4-16.8,32.9-25.3,49.3
		c-0.7,1.3-0.7,2.3-0.1,3.6c7.9,16.3,15.8,32.6,23.7,48.9c0.3,0.6,0.5,1.2,0.9,2.1h-2.5c-8,0-16.1-0.1-24.1,0
		c-1.9,0-2.8-0.5-3.4-2.3c-3.8-10.8-7.8-21.5-11.7-32.2c-0.2-0.6-0.4-1.2-0.8-2.1c-0.4,0.8-0.7,1.3-0.9,1.8
		c-4.3,11.1-8.7,22.2-13,33.2c-0.3,0.9-0.6,1.5-1.8,1.5c-9.1-0.1-18.2,0-27.3,0c-0.2,0-0.4-0.1-0.8-0.2c0.4-0.8,0.7-1.5,1.1-2.3
		c8.3-16.1,16.6-32.2,25-48.2c0.8-1.6,0.8-2.8,0-4.4c-7.8-16.2-15.5-32.4-23.2-48.6C72.3,32.2,72,31.5,71.6,30.5"/>
	<path style="clip-path:url(#SVGID_00000116948130050978721920000001031963413085446311_);fill:#BF2E2E;" d="M855.2,98.2
		c-0.4,2.9-1.1,5.8-1.2,8.7c0,6,3.7,10.2,9.7,10.9c2.6,0.3,5.3,0.3,7.9-0.1c3.1-0.5,5.4-2.4,6.1-5.6c0.7-3.4,0.4-6.9-2.6-8.9
		c-4.7-3.2-9.6-6.2-14.7-8.8c-7.7-3.9-15.1-8.3-21-14.6c-7.8-8.3-11.6-18.1-9.4-29.5c1.5-7.9,6.7-13.2,13.8-16.6
		c7.3-3.6,15.2-4.4,23.3-4.3c7.6,0.1,14.8,1.4,21.5,5.4c7.4,4.5,11.2,11.2,12.8,19.5c0.5,2.4,0.7,4.8,0.7,7.3c0,0.6-0.8,1.6-1.4,1.8
		c-8,1.6-16,3.1-24.1,4.6c-0.1,0-0.3,0-0.7-0.1c0.1-0.7,0.3-1.4,0.3-2.1c0-3.5,0.4-7.2-0.3-10.6c-0.9-4.5-4.1-6.8-8.2-7.2
		c-4.9-0.4-9.2,0.6-11.6,5.2c-2.1,4.2-1.1,8.2,1.8,11.7c3.3,4,7.9,6.4,12.5,8.7c7.4,3.6,14.4,7.7,20.7,13c5.1,4.3,9.5,9.2,11.5,15.7
		c4.1,13-0.8,27.8-16.5,33.4c-8.3,2.9-16.9,3.5-25.6,2.7c-19.5-1.7-29.4-16.2-30.6-32.7c0-0.5,0.6-1.5,1-1.6c8-1.9,16-3.7,24.1-5.5
		C855,98.1,855.2,98.2,855.2,98.2"/>
	<path style="clip-path:url(#SVGID_00000116948130050978721920000001031963413085446311_);fill:#BF2E2E;" d="M352.1,31h28.2v11
		c0.2,0.1,0.4,0.1,0.6,0.2c0.4-0.7,0.8-1.4,1.3-2.2c5.6-9.6,17.1-13.6,27.2-9.3c6.6,2.8,9.6,8.4,11.1,15c1.7,8.1,0.5,16-1.6,23.8
		c-0.2,0.6-1,1.4-1.6,1.5c-8.3,0.9-16.7,1.8-25,2.6c-0.2,0-0.4-0.1-0.5-0.2c1.1-3.6,2.2-7.2,3.1-10.8c0.5-2.1,0.6-4.4,0.6-6.6
		c0-3.6-1.4-5.5-3.8-6.3c-3-0.9-6.7,0.1-8.6,2.5c-1.9,2.4-2.6,5.2-2.6,8.2c0,24.6,0,49.2,0.1,73.8c0,2-0.6,2.6-2.6,2.6
		c-7.9-0.1-15.8-0.1-23.7,0c-1.7,0-2.1-0.5-2.1-2.1c0-33.9,0-67.8,0-101.6C352,32.3,352,31.8,352.1,31"/>
</g>
<rect x="429.3" y="30.9" class="st1" width="27.7" height="105.6"/>
<rect x="428.8" y="0" class="st1" width="28.6" height="21.3"/>
</svg>
