<?xml version="1.0" encoding="utf-8"?>
<!-- Generator: Adobe Illustrator 26.4.0, SVG Export Plug-In . SVG Version: 6.00 Build 0)  -->
<svg version="1.1" id="Livello_1" xmlns="http://www.w3.org/2000/svg" xmlns:xlink="http://www.w3.org/1999/xlink" x="0px" y="0px"
	 viewBox="0 0 910.3 87.5" style="enable-background:new 0 0 910.3 87.5;" xml:space="preserve">
<style type="text/css">
	.st0{clip-path:url(#SVGID_00000176757824123778554460000001680790015903016604_);fill:#BF2E2E;}
	.st1{fill:#BF2E2E;}
	.st2{clip-path:url(#SVGID_00000038395238626256926160000002711421275301363107_);fill:#BF2E2E;}
	.st3{clip-path:url(#SVGID_00000003090642346158215590000005834571767043325604_);fill:#BF2E2E;}
</style>
<g>
	<defs>
		<rect id="SVGID_1_" width="910.3" height="87.5"/>
	</defs>
	<clipPath id="SVGID_00000049195467578447086630000007571316449700815765_">
		<use xlink:href="#SVGID_1_"  style="overflow:visible;"/>
	</clipPath>
	<path style="clip-path:url(#SVGID_00000049195467578447086630000007571316449700815765_);fill:#BF2E2E;" d="M62.5,86.2H44.8V38
		c-0.2,0-0.3,0-0.5-0.1c-2.5,11.8-5,23.7-7.5,35.5H25.6c-2.4-11.9-4.9-23.8-7.3-35.7c-0.1,0-0.2,0-0.3,0v48.4H0v-86
		C0.5,0.1,1.1,0,1.7,0c5.5,0,11,0,16.6,0c1.3,0,1.8,0.4,2.1,1.7c3.5,14.7,7,29.4,10.5,44c0.1,0.5,0.3,1,0.5,1.9
		C35,32.1,38.6,17,42.2,2c0.4-1.5,0.9-2,2.4-2C50,0.1,55.4,0.1,60.8,0c1.3,0,1.9,0.2,1.9,1.7c0,27.7,0,55.3,0,83
		C62.7,85.2,62.6,85.6,62.5,86.2"/>
	<path style="clip-path:url(#SVGID_00000049195467578447086630000007571316449700815765_);fill:#BF2E2E;" d="M240.2,19.6h17.8v5.1
		c9-9.3,21.2-8,27.3,1.8c1.7-1.5,3.4-3.2,5.3-4.3c7.5-4.6,15.4-5.1,23.4-1.5c5.5,2.5,8,7.5,9.1,13.2c0.5,2.5,0.7,5,0.7,7.6
		c0.1,14.4,0,28.9,0,43.3c0,0.4,0,0.8,0,1.3h-17.7c0-0.7,0-1.4,0-2c0-13.9,0-27.8,0-41.7c0-2.7,0-5.4-1.3-7.9
		c-1.4-2.7-3.7-3.6-6.6-3.6c-2.7-0.1-4.5,1.3-5.6,3.6c-1.5,3-1.8,6.2-1.8,9.5c0,13.4,0,26.8,0,40.1v2.2h-17.2c0-0.6-0.1-1.3-0.1-1.9
		c0-13.9,0-27.7,0-41.6c0-2.8,0-5.6-1.3-8.1c-1.4-2.7-3.7-3.8-6.7-3.8c-2.8-0.1-4.5,1.4-5.7,3.8c-1.5,3-1.7,6.3-1.7,9.5
		c0,13.3,0,26.6,0,40v2.2h-17.9V19.6z"/>
	<path style="clip-path:url(#SVGID_00000049195467578447086630000007571316449700815765_);fill:#BF2E2E;" d="M440.2,86.2h-19.3
		c0-0.8,0-1.5,0-2.2c0-14.4,0.1-28.9,0.1-43.3c0-1.9-0.4-3.9-0.9-5.7c-0.7-2.6-2.8-3.8-5.4-4.1c-2.9-0.4-5.2,0.6-6.7,3.2
		c-1.8,3.1-2,6.5-2,10c0,13.3,0,26.6,0,40c0,0.7,0,1.4,0,2.2H388V19.6h17.9V26c0.8-0.8,1.1-1.2,1.5-1.6c7.7-8.7,21.7-6.8,27.1-1.6
		c3.6,3.4,5.4,7.8,5.5,12.5c0.3,16.8,0.3,33.6,0.4,50.4C440.3,85.9,440.2,86,440.2,86.2"/>
	<path style="clip-path:url(#SVGID_00000049195467578447086630000007571316449700815765_);fill:#BF2E2E;" d="M103.1,55.1
		c-2.5,0.6-5.2,1.3-7.9,2c-4,1.1-6.9,3.2-7.3,7.8c-0.4,4.3,2,8.2,5.8,8.9c4.9,0.8,8.7-1.5,9.3-6.4C103.5,63.4,103.1,59.2,103.1,55.1
		 M91.6,44.3c-1.7-0.5-3.2-0.9-4.8-1.4c-4-1.2-8.1-2.3-12.1-3.4c-1-0.3-1.3-0.7-1.2-1.7C74,29.1,79.8,22,88.9,19.6
		c7.2-1.9,14.5-1.5,21.5,1.1c7,2.6,10.5,8.1,10.8,15.2c0.4,7.9,0.2,15.9,0.3,23.8c0,3.7,0,7.3,0.1,11c0.1,2.8,0.6,3.3,3.4,3.5v11.8
		c-5,1.6-15.2,1.5-20.1-4.9c-0.9,0.8-1.7,1.6-2.6,2.3c-6.7,5.2-13.9,4.7-21.2,1.8c-5.8-2.3-9.8-6.5-11.5-12.7
		c-2-7.4,1.4-15.5,8.2-20c5.2-3.5,11.1-5.1,17.1-6.6c1.8-0.4,3.7-1,5.3-1.9c3.1-1.7,3.9-5.2,2.4-8.7c-1.4-3-5-4.5-8.1-3.4
		C92.4,32.9,91,35,91,38C91,40,91.4,42,91.6,44.3"/>
	<path style="clip-path:url(#SVGID_00000049195467578447086630000007571316449700815765_);fill:#BF2E2E;" d="M345.9,52.6
		c0.2,0,0.3,0,0.5,0.1c0,1.3-0.1,2.6,0,3.9c0.3,4.6,0.2,9.4,2.2,13.7c1.4,3.1,3.8,4.7,7.2,4.8c3.5,0.1,6.3-1.2,7.9-4.4
		c0.7-1.4,1.2-2.8,1.5-4.3c1.5-7.7,1.4-15.4,0.6-23.1c-0.3-2.7-1.1-5.4-2.1-8c-0.8-2.2-2.6-3.8-5-4.4c-5.2-1.4-9.6,1-10.9,6.7
		C346.8,42.5,346.5,47.6,345.9,52.6 M328.5,52.4c0.3-7.3,1.6-14.4,5-20.9c5.5-10.2,15-14,25.9-12.9c10.4,1.1,17.2,7,20.6,16.6
		c4.5,12.6,4.4,25.3-1,37.6c-4.6,10.7-14.2,15.3-25.6,14.3c-6.5-0.6-12.1-2.9-16.5-7.9c-3.7-4.2-5.8-9.3-6.9-14.8
		C329.3,60.5,329,56.4,328.5,52.4"/>
	<path style="clip-path:url(#SVGID_00000049195467578447086630000007571316449700815765_);fill:#BF2E2E;" d="M131.6,32.4h-7.4
		c0-4.1,0-8,0.1-11.8c0-0.3,0.8-0.9,1.3-0.9c1.9-0.1,3.9,0,6,0c0-3.9,0.1-7.6,0-11.3c0-1.3,0.4-1.9,1.6-2.3
		c5.1-1.8,10.1-3.6,15.2-5.4c0.4-0.1,0.8-0.2,1.4-0.4v19.5h5.2c4.1,0,4.1,0,4.1,4.2v8.6h-9.2c0,0.8-0.1,1.4-0.1,1.9
		c0,9.9,0,19.8,0,29.7c0,1.7,0.1,3.3,0.3,5c0.3,3.7,1.8,5.1,5.5,5.3c1.2,0,2.3,0,3.6,0v11.9c-3.5,0-6.9,0.1-10.4,0
		c-1.9-0.1-3.9-0.4-5.8-0.8c-7.7-1.7-11.4-6.1-11.4-13.9c-0.1-12.2,0-24.4,0-36.6C131.6,34.1,131.6,33.4,131.6,32.4"/>
	<path style="clip-path:url(#SVGID_00000049195467578447086630000007571316449700815765_);fill:#BF2E2E;" d="M165.1,86.1V19.5h1.9
		c4.6,0,9.3,0,13.9,0c2.3,0,2.3,0,2.3,2.3c0,1.5,0,2.9,0,4.9c0.6-0.9,0.9-1.4,1.2-1.9c4.2-6.5,13.4-8.5,19.3-4
		c3.5,2.7,4.7,6.6,5.1,10.7c0.4,4.2-0.2,8.4-1.4,12.4c-0.1,0.4-0.6,1-0.9,1c-5.5,0.7-10.9,1.2-16.5,1.9c0.7-2.5,1.5-4.7,2-7.1
		c0.3-1.5,0.5-3.2,0.4-4.7c0-1.4-0.6-2.9-2.2-3.3c-1.7-0.5-3.4-0.3-4.8,1c-1.7,1.6-2.1,3.6-2.1,5.8c0,12.7,0,25.5,0,38.2
		c0,3.1,0,6.2,0,9.4H165.1z"/>
</g>
<rect x="213.7" y="19.6" class="st1" width="17.8" height="66.6"/>
<rect x="449" y="19.5" class="st1" width="17.6" height="66.6"/>
<rect x="448.6" y="0.2" class="st1" width="18.3" height="13.7"/>
<g>
	<defs>
		<rect id="SVGID_00000067237980375755837530000000966146113454623877_" width="910.3" height="87.5"/>
	</defs>
	<clipPath id="SVGID_00000101814710708879752170000013054535092547741600_">
		<use xlink:href="#SVGID_00000067237980375755837530000000966146113454623877_"  style="overflow:visible;"/>
	</clipPath>
	<path style="clip-path:url(#SVGID_00000101814710708879752170000013054535092547741600_);fill:#BF2E2E;" d="M213.4,13.9
		c0-4.4,0-8.6,0-12.8c0-0.3,0.7-1,1.1-1c5.4-0.1,10.8-0.1,16.2,0c0.4,0,1.1,0.6,1.1,1c0.1,4.2,0,8.5,0,12.8H213.4z"/>
	<path style="clip-path:url(#SVGID_00000101814710708879752170000013054535092547741600_);fill:#BF2E2E;" d="M585,53.4
		c0-4.7-0.1-9.3,0-14c0.1-6.5-5-9.7-11.1-8.3c-4.3,1-5.8,4.5-6,8.3c-0.4,7.4-0.5,14.9-0.3,22.3c0.1,3,1.1,6,2,8.9
		c1,2.9,3.2,4.4,6.4,4.5c4.9,0.2,9.3-3,9-8.2C584.8,62.4,585,57.9,585,53.4 M585,24.2v-24c0.6-0.1,1.1-0.1,1.5-0.1
		c4.9,0,9.9,0,14.8,0c1.4,0,1.8,0.4,1.8,1.8c-0.1,5.7,0,11.4,0,17v65v2.2h-17c-0.3-1.6-0.7-3.4-1-4.8c-2.5,1.7-4.8,3.7-7.5,4.9
		c-7.6,3.3-17.2,0.1-22.4-7c-3.6-4.9-5.3-10.5-6.1-16.4c-1.1-9-0.9-17.9,1.4-26.7c1.5-5.8,4.1-11.1,9.4-14.5c7.2-4.6,17-4,23.6,1.4
		C583.9,23.2,584.3,23.6,585,24.2"/>
	<path style="clip-path:url(#SVGID_00000101814710708879752170000013054535092547741600_);fill:#BF2E2E;" d="M811.1,25.9
		c7.2-8.7,17.2-8.7,24.4-5.7c5.4,2.2,8,6.7,9,12.1c0.7,3.7,0.9,7.5,1,11.3c0.1,13.7,0,27.3,0,41c0,0.5,0,0.9-0.1,1.5h-19.4
		c0-0.7,0-1.4,0-2.1c0-14.6,0-29.1,0-43.7c0-1.9-0.4-3.9-1-5.7c-0.8-2.5-2.9-3.6-5.5-3.8c-2.8-0.3-5,0.6-6.5,3.1
		c-1.5,2.5-2,5.3-2,8.2c0,14,0,27.9,0,41.9c0,0.7,0,1.4,0,2.2h-18V19.7c0.2-0.1,0.4-0.2,0.6-0.2c5.4,0,10.8,0,16.2,0
		c0.9,0,1.3,0.3,1.2,1.2C811,22.3,811.1,23.9,811.1,25.9"/>
	<path style="clip-path:url(#SVGID_00000101814710708879752170000013054535092547741600_);fill:#BF2E2E;" d="M661.6,45.6
		c0.1-3.6,0.2-7.1-0.9-10.6c-0.8-2.3-2.3-3.9-4.8-4.2c-2.5-0.3-4.8,0.3-6.2,2.5c-2.5,3.7-2.3,8-2.4,12.2H661.6z M679,57.5h-31.7
		c-0.2,4.6-0.1,9,1.7,13.1c1.5,3.5,4.2,5.1,7.4,4.5c3.8-0.7,5.8-3.1,5.8-7.1c0-1.4-0.2-2.8-0.3-4.4c5.9,0.7,11.8,1.4,17.6,2.1
		c-0.2,7.9-4.6,16-12.8,19.4c-7.6,3.2-15.5,3.2-23.2,0.2c-6.5-2.5-10.6-7.6-12.5-14.1c-3.9-12.8-3.9-25.6,1.1-38.2
		c3.9-9.8,13.8-15.5,24.4-14.3c3.2,0.4,6.5,0.8,9.6,1.7c5.2,1.6,8.6,5.3,10.7,10.4C679.4,37.1,679.8,50.2,679,57.5"/>
	<path style="clip-path:url(#SVGID_00000101814710708879752170000013054535092547741600_);fill:#BF2E2E;" d="M770.2,45.6
		c0.3-3.5,0.2-7-0.8-10.4c-0.7-2.5-2.3-4.1-5-4.4c-2.8-0.3-5.2,0.9-6.5,3.3c-1.9,3.6-1.8,7.5-1.9,11.4H770.2z M787.9,57.5h-32
		c-0.1,4.8,0,9.4,2,13.7c1.5,3.3,4.2,4.6,7.3,3.9c3.6-0.8,5.5-3,5.6-6.7c0-1.5-0.1-3-0.2-4.7c5.8,0.7,11.7,1.4,17.7,2.1
		c-0.4,4.8-1.7,9-4.5,12.7c-4.3,5.8-10.3,8.3-17.3,8.8c-5.1,0.4-10.2,0-14.9-2.2c-6.2-2.9-10-8-12.1-14.4c-2.7-8.3-2.9-16.8-2-25.4
		c0.6-5.3,1.9-10.3,4.5-15c4.9-8.6,13.6-12.4,22.8-11.6c3.4,0.3,6.8,0.8,10,1.9c7,2.3,10.3,7.9,11.8,14.7
		C788.4,42.5,787.9,49.9,787.9,57.5"/>
	<path style="clip-path:url(#SVGID_00000101814710708879752170000013054535092547741600_);fill:#BF2E2E;" d="M525.8,45.6
		c0.2-3.9,0.2-7.6-1.2-11.2c-1.6-4-7.1-4.9-10-1.7c-3.3,3.7-2.9,8.3-3,12.9H525.8z M526.3,63.6c5.7,0.7,11.5,1.3,17.7,2.1
		c-0.4,2-0.6,3.9-1.2,5.7c-2.7,8.9-8.9,13.9-17.8,15.5c-5.1,0.9-10.3,0.8-15.3-0.9c-7.7-2.5-12.3-8.1-14.7-15.6
		c-2.6-8.1-2.8-16.4-1.9-24.7c0.6-5.5,1.9-10.7,4.6-15.5c4.9-8.6,13.7-12.3,22.7-11.6c3.4,0.3,6.8,0.8,10.1,1.8
		c6.9,2.2,10.3,7.6,11.8,14.4c1.7,7.4,1.3,14.9,1.1,22.5h-31.6c0,2.3-0.3,4.5,0.1,6.6c0.4,2.6,1.1,5.3,2.1,7.8
		c1.2,2.8,4,3.9,6.8,3.3c3.5-0.7,5.3-2.6,5.6-5.9C526.4,67.4,526.3,65.7,526.3,63.6"/>
	<path style="clip-path:url(#SVGID_00000101814710708879752170000013054535092547741600_);fill:#BF2E2E;" d="M681.8,19.6h18.2
		c2.8,18.2,5.5,36.3,8.2,54.4c0.1,0,0.2,0,0.3,0c2.7-18.1,5.5-36.2,8.3-54.4H735c-5.4,22.3-10.7,44.4-16.1,66.6h-21
		C692.6,64.1,687.2,41.9,681.8,19.6"/>
	<path style="clip-path:url(#SVGID_00000101814710708879752170000013054535092547741600_);fill:#BF2E2E;" d="M876.8,0.3v19.3
		c1.5,0,2.9,0,4.3,0c1.6,0,3.8-0.5,4.6,0.4c0.9,1,0.4,3.1,0.5,4.7c0,2.1,0,4.1,0,6.2c0,1.2-0.4,1.5-1.5,1.5c-2.5-0.1-5.1,0-7.7,0
		c-0.1,0.5-0.2,0.7-0.2,1c0,11.5,0,23.1,0.2,34.6c0,4.6,1.7,6.1,6.3,6.1c0.9,0,1.8,0,2.8,0v12c-6.5,0.1-12.9,0.4-19.2-1.8
		c-4.9-1.7-7.5-5.4-8.1-10.5c-0.3-2.8-0.3-5.7-0.3-8.5c0-10.2,0-20.5,0-30.7v-2.3h-7.1V19.7h7.1c0-1.7,0-3.2,0-4.7
		c0-2.4-0.1-4.7,0-7.1c0-0.6,0.5-1.4,0.9-1.6c5.5-2.1,11.1-4.1,16.6-6C876.2,0.2,876.3,0.3,876.8,0.3"/>
</g>
<rect x="892.4" y="19.6" class="st1" width="17.6" height="66.5"/>
<g>
	<defs>
		<rect id="SVGID_00000053527419654049506520000017408528844332718234_" width="910.3" height="87.5"/>
	</defs>
	<clipPath id="SVGID_00000145017154855915758130000007444944295826803112_">
		<use xlink:href="#SVGID_00000053527419654049506520000017408528844332718234_"  style="overflow:visible;"/>
	</clipPath>
	<path style="clip-path:url(#SVGID_00000145017154855915758130000007444944295826803112_);fill:#BF2E2E;" d="M892,13.8
		c0-4.3,0-8.5,0-12.8c0-0.3,0.6-0.9,0.9-0.9c5.7-0.1,11.5,0,17.3,0v13.7H892z"/>
</g>
</svg>
